<?xml version="1.0" encoding="UTF-8" standalone="no"?>
<svg
   xmlns:dc="http://purl.org/dc/elements/1.1/"
   xmlns:cc="http://creativecommons.org/ns#"
   xmlns:rdf="http://www.w3.org/1999/02/22-rdf-syntax-ns#"
   xmlns:svg="http://www.w3.org/2000/svg"
   xmlns="http://www.w3.org/2000/svg"
   width="50.754688mm"
   height="18.129997mm"
   viewBox="0 0 50.754688 18.129997"
   version="1.1"
   id="svg8">
  <defs
     id="defs2" />
  <metadata
     id="metadata5">
    <rdf:RDF>
      <cc:Work
         rdf:about="">
        <dc:format>image/svg+xml</dc:format>
        <dc:type
           rdf:resource="http://purl.org/dc/dcmitype/StillImage" />
        <dc:title></dc:title>
      </cc:Work>
    </rdf:RDF>
  </metadata>
  <g
     id="layer1"
     transform="translate(-23.807209,-67.991784)">
    <g
       id="text4506"
       style="font-style:normal;font-weight:normal;font-size:10.58333302px;line-height:1.25;font-family:sans-serif;letter-spacing:0px;word-spacing:0px;fill:#000000;fill-opacity:1;stroke:none;stroke-width:0.26458332"
       aria-label="Burns Meet">
      <path
         id="path4506"
         style="font-style:normal;font-variant:normal;font-weight:bold;font-stretch:normal;font-family:'PT Sans';-inkscape-font-specification:'PT Sans Bold';fill:#ffffff;fill-opacity:1;stroke-width:0.26458332"
         d="m 28.791959,69.822701 q 0,0.275167 -0.07408,0.550333 -0.0635,0.275167 -0.22225,0.508 -0.15875,0.22225 -0.41275,0.402167 -0.254,0.169333 -0.613833,0.254 v 0.0635 q 0.3175,0.05292 0.60325,0.179917 0.28575,0.127 0.497417,0.34925 0.211666,0.22225 0.328083,0.53975 0.127,0.3175 0.127,0.751416 0,0.5715 -0.243417,0.994834 -0.243416,0.41275 -0.656166,0.677333 -0.402167,0.264583 -0.92075,0.391583 -0.518584,0.127 -1.068917,0.127 -0.179917,0 -0.465667,0 -0.275166,0 -0.60325,-0.02117 -0.3175,-0.01058 -0.656166,-0.04233 -0.328084,-0.03175 -0.60325,-0.09525 v -7.3025 q 0.201083,-0.03175 0.455083,-0.0635 0.264583,-0.03175 0.560917,-0.05292 0.296333,-0.02117 0.60325,-0.03175 0.3175,-0.01058 0.624416,-0.01058 0.518584,0 1.005417,0.08467 0.497417,0.07408 0.878417,0.275167 0.391583,0.201083 0.624416,0.560916 0.232834,0.359834 0.232834,0.910167 z m -2.645834,4.593167 q 0.264584,0 0.508,-0.0635 0.254,-0.0635 0.4445,-0.1905 0.1905,-0.137584 0.306917,-0.338667 0.116417,-0.201083 0.116417,-0.47625 0,-0.34925 -0.137584,-0.550333 -0.137583,-0.201084 -0.359833,-0.306917 -0.22225,-0.116417 -0.497417,-0.148167 -0.275166,-0.03175 -0.550333,-0.03175 h -0.772583 v 2.042584 q 0.05292,0.02117 0.169333,0.03175 0.116417,0.01058 0.243417,0.02117 0.137583,0 0.275166,0.01058 0.148167,0 0.254,0 z m -0.47625,-3.20675 q 0.148167,0 0.338667,-0.01058 0.201083,-0.01058 0.328083,-0.03175 0.402167,-0.127 0.687917,-0.381 0.296333,-0.254 0.296333,-0.66675 0,-0.275166 -0.105833,-0.455083 -0.105833,-0.179917 -0.28575,-0.28575 -0.169333,-0.105833 -0.391583,-0.148167 -0.22225,-0.04233 -0.465667,-0.04233 -0.275167,0 -0.508,0.01058 -0.232833,0.01058 -0.359833,0.03175 v 1.979084 z" />
      <path
         id="path4508"
         style="font-style:normal;font-variant:normal;font-weight:bold;font-stretch:normal;font-family:'PT Sans';-inkscape-font-specification:'PT Sans Bold';fill:#ffffff;fill-opacity:1;stroke-width:0.26458332"
         d="m 31.361559,70.214284 v 3.005667 q 0,0.645583 0.148167,0.931333 0.15875,0.28575 0.60325,0.28575 0.391583,0 0.645583,-0.232833 0.264583,-0.232833 0.391583,-0.5715 v -3.418417 h 1.375834 v 3.683 q 0,0.433917 0.04233,0.85725 0.04233,0.41275 0.127,0.751417 h -1.037167 l -0.243416,-0.783167 h -0.04233 q -0.243416,0.402167 -0.677333,0.66675 -0.433917,0.264584 -1.026583,0.264584 -0.402167,0 -0.719667,-0.105834 -0.3175,-0.105833 -0.529167,-0.34925 -0.211666,-0.243416 -0.328083,-0.656166 -0.105833,-0.41275 -0.105833,-1.037167 v -3.291417 z" />
      <path
         id="path4510"
         style="font-style:normal;font-variant:normal;font-weight:bold;font-stretch:normal;font-family:'PT Sans';-inkscape-font-specification:'PT Sans Bold';fill:#ffffff;fill-opacity:1;stroke-width:0.26458332"
         d="m 38.64405,71.505451 q -0.328084,-0.116417 -0.592667,-0.116417 -0.370417,0 -0.624417,0.201084 -0.243416,0.1905 -0.328083,0.497416 v 3.418417 H 35.72305 v -5.291667 h 1.068916 l 0.15875,0.6985 h 0.04233 q 0.179916,-0.391583 0.486833,-0.60325 0.306917,-0.211666 0.719667,-0.211666 0.275166,0 0.624416,0.116416 z" />
      <path
         id="path4512"
         style="font-style:normal;font-variant:normal;font-weight:bold;font-stretch:normal;font-family:'PT Sans';-inkscape-font-specification:'PT Sans Bold';fill:#ffffff;fill-opacity:1;stroke-width:0.26458332"
         d="m 42.682253,75.505951 v -3.005667 q 0,-0.645583 -0.1905,-0.931333 -0.179917,-0.28575 -0.624417,-0.28575 -0.391583,0 -0.66675,0.232833 -0.264583,0.22225 -0.381,0.560917 v 3.429 h -1.375833 v -5.291667 h 1.090083 l 0.15875,0.6985 h 0.04233 q 0.243417,-0.338666 0.645584,-0.592666 0.402166,-0.254 1.037166,-0.254 0.391584,0 0.6985,0.105833 0.306917,0.105833 0.518584,0.34925 0.211666,0.243417 0.3175,0.66675 0.105833,0.41275 0.105833,1.026583 v 3.291417 z" />
      <path
         id="path4514"
         style="font-style:normal;font-variant:normal;font-weight:bold;font-stretch:normal;font-family:'PT Sans';-inkscape-font-specification:'PT Sans Bold';fill:#ffffff;fill-opacity:1;stroke-width:0.26458332"
         d="m 47.401592,74.045451 q 0,-0.211667 -0.179917,-0.338667 -0.179917,-0.127 -0.4445,-0.232833 -0.264583,-0.105833 -0.582083,-0.211667 -0.3175,-0.116416 -0.582084,-0.306916 -0.264583,-0.201084 -0.4445,-0.497417 -0.179916,-0.306917 -0.179916,-0.783167 0,-0.783166 0.465666,-1.195916 0.465667,-0.41275 1.344084,-0.41275 0.60325,0 1.090083,0.127 0.486833,0.127 0.762,0.28575 l -0.306917,0.994833 q -0.243416,-0.09525 -0.613833,-0.201083 -0.370417,-0.105834 -0.751417,-0.105834 -0.613833,0 -0.613833,0.47625 0,0.1905 0.179917,0.306917 0.179916,0.116417 0.4445,0.22225 0.264583,0.09525 0.582083,0.211667 0.3175,0.116416 0.582083,0.306916 0.264584,0.179917 0.4445,0.47625 0.179917,0.296334 0.179917,0.762 0,0.804334 -0.518583,1.27 -0.508,0.455084 -1.534584,0.455084 -0.560916,0 -1.058333,-0.148167 -0.486833,-0.137583 -0.79375,-0.328083 l 0.381,-1.026584 q 0.243417,0.137584 0.645583,0.275167 0.402167,0.127 0.8255,0.127 0.306917,0 0.486834,-0.116417 0.1905,-0.116416 0.1905,-0.391583 z" />
      <path
         id="path4516"
         style="font-style:normal;font-variant:normal;font-weight:bold;font-stretch:normal;font-family:'PT Sans';-inkscape-font-specification:'PT Sans Bold';fill:#ffffff;fill-opacity:1;stroke-width:0.26458332"
         d="m 58.141361,71.664201 0.15875,-1.471083 h -0.0635 l -0.455083,1.185333 -1.576917,2.76225 h -0.465667 l -1.661583,-2.772833 -0.465667,-1.17475 h -0.05292 l 0.211666,1.4605 v 3.852333 h -1.375833 v -7.408333 h 1.322917 l 1.979083,3.386666 0.34925,0.846667 h 0.04233 l 0.3175,-0.867833 1.87325,-3.3655 h 1.312334 v 7.408333 h -1.449917 z" />
      <path
         id="path4518"
         style="font-style:normal;font-variant:normal;font-weight:bold;font-stretch:normal;font-family:'PT Sans';-inkscape-font-specification:'PT Sans Bold';fill:#ffffff;fill-opacity:1;stroke-width:0.26458332"
         d="m 65.071128,75.050868 q -0.3175,0.254 -0.867833,0.433916 -0.53975,0.169334 -1.153584,0.169334 -1.280583,0 -1.87325,-0.740834 -0.592666,-0.751416 -0.592666,-2.053166 0,-1.397 0.66675,-2.0955 0.66675,-0.6985 1.87325,-0.6985 0.402166,0 0.783166,0.105833 0.381,0.105833 0.677334,0.34925 0.296333,0.243417 0.47625,0.656167 0.179916,0.41275 0.179916,1.026583 0,0.22225 -0.03175,0.47625 -0.02117,0.254 -0.07408,0.529167 h -3.175 q 0.03175,0.66675 0.338667,1.005416 0.3175,0.338667 1.016,0.338667 0.433916,0 0.772583,-0.127 0.34925,-0.137583 0.529167,-0.275167 z m -1.9685,-3.884084 q -0.53975,0 -0.804333,0.328084 -0.254,0.3175 -0.306917,0.85725 h 1.9685 q 0.04233,-0.5715 -0.179917,-0.878417 -0.211666,-0.306917 -0.677333,-0.306917 z" />
      <path
         id="path4520"
         style="font-style:normal;font-variant:normal;font-weight:bold;font-stretch:normal;font-family:'PT Sans';-inkscape-font-specification:'PT Sans Bold';fill:#ffffff;fill-opacity:1;stroke-width:0.26458332"
         d="m 70.383464,75.050868 q -0.3175,0.254 -0.867833,0.433916 -0.53975,0.169334 -1.153584,0.169334 -1.280583,0 -1.87325,-0.740834 -0.592666,-0.751416 -0.592666,-2.053166 0,-1.397 0.66675,-2.0955 0.66675,-0.6985 1.87325,-0.6985 0.402166,0 0.783166,0.105833 0.381,0.105833 0.677334,0.34925 0.296333,0.243417 0.47625,0.656167 0.179916,0.41275 0.179916,1.026583 0,0.22225 -0.03175,0.47625 -0.02117,0.254 -0.07408,0.529167 h -3.175 q 0.03175,0.66675 0.338667,1.005416 0.3175,0.338667 1.016,0.338667 0.433916,0 0.772583,-0.127 0.34925,-0.137583 0.529167,-0.275167 z m -1.9685,-3.884084 q -0.53975,0 -0.804333,0.328084 -0.254,0.3175 -0.306917,0.85725 h 1.9685 q 0.04233,-0.5715 -0.179917,-0.878417 -0.211666,-0.306917 -0.677333,-0.306917 z" />
      <path
         id="path4522"
         style="font-style:normal;font-variant:normal;font-weight:bold;font-stretch:normal;font-family:'PT Sans';-inkscape-font-specification:'PT Sans Bold';fill:#ffffff;fill-opacity:1;stroke-width:0.26458332"
         d="m 70.974149,70.214284 h 0.73025 v -0.994833 l 1.375833,-0.391583 v 1.386416 h 1.291167 v 1.164167 h -1.291167 v 2.032 q 0,0.550333 0.105833,0.79375 0.116417,0.232833 0.423334,0.232833 0.211666,0 0.359833,-0.04233 0.15875,-0.04233 0.34925,-0.127 l 0.243417,1.058333 q -0.28575,0.137584 -0.66675,0.232834 -0.381,0.09525 -0.772584,0.09525 -0.730249,0 -1.079499,-0.370417 -0.338667,-0.381 -0.338667,-1.23825 v -2.667 h -0.73025 z" />
    </g>
    <g
       id="text4514"
       style="font-style:normal;font-weight:normal;font-size:10.58333302px;line-height:1.25;font-family:sans-serif;letter-spacing:0px;word-spacing:0px;fill:#000000;fill-opacity:1;stroke:none;stroke-width:0.26458332"
       aria-label="2018">
      <path
         id="path4525"
         style="font-style:normal;font-variant:normal;font-weight:normal;font-stretch:normal;font-family:'PT Sans';-inkscape-font-specification:'PT Sans';fill:#ffffff;fill-opacity:1;stroke-width:0.26458332"
         d="m 27.871209,80.269198 q 0,0.560917 -0.211666,1.153584 -0.201084,0.582083 -0.53975,1.17475 -0.328084,0.592666 -0.740833,1.164166 -0.41275,0.560917 -0.8255,1.068917 l -0.518584,0.455083 v 0.04233 l 0.677334,-0.116417 h 2.307166 v 0.783166 H 23.80721 v -0.306916 q 0.232833,-0.243417 0.560916,-0.60325 0.328084,-0.359833 0.677334,-0.79375 0.359833,-0.4445 0.6985,-0.931333 0.34925,-0.497417 0.624416,-1.005417 0.28575,-0.508 0.455083,-1.005417 0.169334,-0.497416 0.169334,-0.941916 0,-0.518584 -0.296334,-0.85725 -0.296333,-0.34925 -0.899583,-0.34925 -0.402166,0 -0.783166,0.169333 -0.381,0.15875 -0.656167,0.370417 l -0.34925,-0.60325 q 0.370417,-0.3175 0.878417,-0.497417 0.508,-0.179917 1.090083,-0.179917 0.455083,0 0.804333,0.137584 0.34925,0.127 0.592667,0.370416 0.243416,0.243417 0.370416,0.582084 0.127,0.328083 0.127,0.719666 z" />
      <path
         id="path4527"
         style="font-style:normal;font-variant:normal;font-weight:normal;font-stretch:normal;font-family:'PT Sans';-inkscape-font-specification:'PT Sans';fill:#ffffff;fill-opacity:1;stroke-width:0.26458332"
         d="m 29.373216,82.290615 q 0,-1.905 0.613833,-2.868083 0.624417,-0.963084 1.80975,-0.963084 1.280584,0 1.852084,0.9525 0.582083,0.941917 0.582083,2.878667 0,1.905 -0.624417,2.868083 -0.613833,0.963083 -1.80975,0.963083 -1.259416,0 -1.8415,-1.005416 -0.582083,-1.005417 -0.582083,-2.82575 z m 0.878417,0 q 0,0.687917 0.08467,1.259417 0.09525,0.560916 0.28575,0.973666 0.1905,0.402167 0.47625,0.635 0.296334,0.22225 0.6985,0.22225 0.804334,0 1.17475,-0.740833 0.381,-0.751417 0.381,-2.3495 0,-0.677333 -0.08467,-1.248833 -0.07408,-0.5715 -0.264584,-0.98425 -0.179916,-0.41275 -0.47625,-0.635 -0.296333,-0.22225 -0.73025,-0.22225 -0.79375,0 -1.17475,0.751416 -0.370416,0.751417 -0.370416,2.338917 z" />
      <path
         id="path4529"
         style="font-style:normal;font-variant:normal;font-weight:normal;font-stretch:normal;font-family:'PT Sans';-inkscape-font-specification:'PT Sans';fill:#ffffff;fill-opacity:1;stroke-width:0.26458332"
         d="m 35.828223,85.211615 h 1.481666 v -5.122333 l 0.105834,-0.624417 -0.423334,0.497417 -1.164166,0.836083 -0.402167,-0.53975 2.328333,-1.799167 h 0.381 v 6.752167 h 1.449917 v 0.783166 h -3.757083 z" />
      <path
         id="path4531"
         style="font-style:normal;font-variant:normal;font-weight:normal;font-stretch:normal;font-family:'PT Sans';-inkscape-font-specification:'PT Sans';fill:#ffffff;fill-opacity:1;stroke-width:0.26458332"
         d="m 41.171979,84.227365 q 0,-0.66675 0.34925,-1.153583 0.34925,-0.497417 1.090083,-0.899584 -0.264583,-0.15875 -0.497416,-0.328083 -0.22225,-0.179917 -0.402167,-0.402167 -0.169333,-0.22225 -0.275167,-0.497416 -0.09525,-0.275167 -0.09525,-0.635 0,-0.41275 0.137584,-0.751417 0.148166,-0.338667 0.41275,-0.582083 0.275166,-0.243417 0.645583,-0.381 0.381,-0.137584 0.85725,-0.137584 0.4445,0 0.804333,0.127 0.359834,0.127 0.60325,0.34925 0.254,0.22225 0.391584,0.529167 0.137583,0.306917 0.137583,0.677333 0,0.60325 -0.275167,1.068917 -0.275166,0.455083 -0.910166,0.899583 0.275166,0.15875 0.518583,0.34925 0.254,0.1905 0.433917,0.423334 0.1905,0.232833 0.296333,0.529166 0.105833,0.28575 0.105833,0.656167 0,0.455083 -0.148166,0.836083 -0.148167,0.370417 -0.433917,0.645584 -0.28575,0.264583 -0.6985,0.423333 -0.41275,0.148166 -0.941917,0.148166 -0.508,0 -0.899583,-0.148166 -0.391583,-0.148167 -0.66675,-0.402167 -0.264583,-0.254 -0.402167,-0.592666 -0.137583,-0.34925 -0.137583,-0.751417 z m 3.503083,-0.105833 q 0,-0.3175 -0.127,-0.550334 -0.127,-0.243416 -0.338666,-0.433916 -0.201084,-0.201084 -0.465667,-0.359834 -0.264583,-0.15875 -0.550333,-0.306916 -0.645584,0.359833 -0.92075,0.804333 -0.275167,0.4445 -0.275167,0.846667 0,0.254 0.08467,0.486833 0.08467,0.232833 0.254,0.402167 0.169333,0.169333 0.41275,0.275166 0.254,0.09525 0.582083,0.09525 0.264583,0 0.508,-0.07408 0.243417,-0.08467 0.423333,-0.232833 0.1905,-0.15875 0.296334,-0.391584 0.116416,-0.243416 0.116416,-0.560916 z m -2.50825,-3.831167 q 0,0.296333 0.116417,0.529167 0.116417,0.22225 0.306917,0.402166 0.201083,0.179917 0.455083,0.338667 0.254,0.148167 0.529167,0.28575 0.47625,-0.370417 0.6985,-0.73025 0.232833,-0.359833 0.232833,-0.79375 0,-0.53975 -0.338667,-0.8255 -0.328083,-0.296333 -0.79375,-0.296333 -0.28575,0 -0.508,0.09525 -0.22225,0.09525 -0.381,0.243416 -0.15875,0.148167 -0.243416,0.34925 -0.07408,0.1905 -0.07408,0.402167 z" />
    </g>
  </g>
</svg>
