<?xml version="1.0" encoding="UTF-8" standalone="no"?>
<svg
   xmlns:dc="http://purl.org/dc/elements/1.1/"
   xmlns:cc="http://creativecommons.org/ns#"
   xmlns:rdf="http://www.w3.org/1999/02/22-rdf-syntax-ns#"
   xmlns:svg="http://www.w3.org/2000/svg"
   xmlns="http://www.w3.org/2000/svg"
   viewBox="0 0 535.73504 95.279128"
   height="95.279129"
   width="535.73505"
   xml:space="preserve"
   id="svg2"
   version="1.1"><metadata
     id="metadata8"><rdf:RDF><cc:Work
         rdf:about=""><dc:format>image/svg+xml</dc:format><dc:type
           rdf:resource="http://purl.org/dc/dcmitype/StillImage" /><dc:title></dc:title></cc:Work></rdf:RDF></metadata><defs
     id="defs6"><clipPath
       id="clipPath18"
       clipPathUnits="userSpaceOnUse"><path
         id="path16"
         d="M 0,71.46 H 467.833 V 0 H 0 Z" /></clipPath></defs><g
     transform="matrix(1.3333333,0,0,-1.3333333,0,130.54159)"
     id="g10"><g
       transform="translate(0,26.446448)"
       id="g12"><g
         clip-path="url(#clipPath18)"
         id="g14"><g
           transform="translate(42,69)"
           id="g20"><path
             id="path22"
             style="fill:#383838;fill-opacity:1;fill-rule:nonzero;stroke:none"
             d="m 0,0 c -0.833,2.167 -3.5,1.167 -3.5,1.167 0,0 -3.663,-0.497 -4.333,-0.834 -0.405,0.458 -1.165,1.189 -2.334,1.667 -1.974,0.808 -3.762,0.341 -4.333,0.167 -1.727,-0.343 -5.767,-1.387 -9.5,-4.834 -3.62,-3.343 -4.997,-7.142 -5.5,-8.833 -1.303,-0.064 -4.96,-0.416 -8.333,-3.167 -2.495,-2.034 -3.664,-4.425 -4.167,-5.666 0.901,0.22 3.008,0.606 5.5,-0.167 2.386,-0.74 3.869,-2.153 4.5,-2.833 0.095,-2.937 0.638,-8.035 3.333,-13.667 2.578,-5.386 5.999,-8.911 8.167,-10.833 -0.422,-2.496 -0.419,-4.562 -0.333,-6 0.113,-1.896 0.193,-3.04 0.833,-4.334 1.041,-2.103 2.864,-3.188 3.833,-3.666 -0.177,1.277 -0.302,3.375 0.334,5.833 0.517,1.999 1.351,3.515 2,4.5 0.534,0.742 1.589,2.005 3.333,3 1.691,0.965 3.264,1.242 4.167,1.333 -0.517,0.568 -1.173,1.157 -2,1.667 -3.47,2.141 -7.335,1.301 -8.5,1 -1.018,2.12 -2.392,5.718 -2.5,10.333 -0.176,7.502 2.941,12.948 4.333,15 0.766,-0.805 1.635,-1.853 2.458,-3.166 1.009,-1.61 1.64,-3.125 2.042,-4.334 0.586,1.463 1.376,3.974 1.333,7.167 -0.039,2.933 -0.765,5.25 -1.333,6.667 1.818,1.409 3.725,3.013 5.667,4.833 1.324,1.241 2.907,2.876 3.666,3.667 0.938,1.173 2,2.166 1.167,4.333" /></g><g
           transform="translate(36.7227,40.0054)"
           id="g24"><path
             id="path26"
             style="fill:#8f8f8f;fill-opacity:1;fill-rule:nonzero;stroke:none"
             d="m 0,0 c 0.535,1.39 2.245,0.748 2.245,0.748 0,0 2.35,-0.318 2.78,-0.534 0.26,0.293 0.747,0.762 1.497,1.069 1.266,0.518 2.414,0.219 2.78,0.107 1.072,-0.199 3.714,-0.837 6.095,-3.101 2.688,-2.556 3.363,-5.59 3.547,-6.628 0.874,-0.088 3.236,-0.446 5.333,-2.333 1.41,-1.269 2.096,-2.685 2.417,-3.5 -0.754,0.145 -1.892,0.273 -3.25,0.083 -1.256,-0.175 -2.249,-0.56 -2.915,-0.88 -0.378,-2.205 -1.12,-5.182 -2.668,-8.453 -1.506,-3.181 -3.277,-5.592 -4.71,-7.264 0.271,-1.601 0.269,-2.926 0.214,-3.849 -0.069,-1.16 -0.142,-2.004 -0.535,-2.78 -1.157,-2.286 -4.527,-2.632 -5.219,-2.69 0.107,0.197 1.739,3.321 0,6.416 -1.496,2.662 -4.294,3.187 -4.667,3.25 0.511,0.424 1.174,0.879 2,1.25 2.469,1.111 4.812,0.767 5.855,0.541 0.294,2.417 0.451,5.434 0.145,8.876 -0.253,2.842 -0.763,5.325 -1.321,7.376 -0.487,-0.231 -1.289,-0.69 -2.012,-1.543 -0.941,-1.109 -1.232,-2.275 -1.334,-2.833 -0.25,0.264 -1.761,1.919 -1.583,4.417 0.17,2.38 1.749,3.773 2.042,4.022 C 5.57,-7.328 4.346,-6.299 3.101,-5.132 2.251,-4.336 1.648,-3.721 0.748,-2.78 -0.151,-1.839 -0.535,-1.39 0,0" /></g></g></g><g
       id="text4536"
       style="font-style:normal;font-variant:normal;font-weight:normal;font-stretch:normal;font-size:42px;line-height:1.25;font-family:Lato;-inkscape-font-specification:Lato;letter-spacing:0px;word-spacing:0px;fill:#e20000;fill-opacity:1;stroke:none;stroke-width:0.75"
       transform="scale(1,-1)"
       aria-label="Open Meet 2019"><path
         id="path4544"
         style="fill:#000000"
         d="m 110.97999,-67.026619 q 0,7.198242 -3.65039,11.320313 -3.62989,4.12207 -10.110354,4.12207 -6.624024,0 -10.233399,-4.040039 -3.588867,-4.060547 -3.588867,-11.44336 0,-7.321289 3.609375,-11.34082 3.609375,-4.040039 10.253907,-4.040039 6.459958,0 10.089848,4.101563 3.62988,4.101562 3.62988,11.320312 z m -23.891603,0 q 0,6.09082 2.583984,9.249023 2.604492,3.137696 7.546875,3.137696 4.983394,0 7.526364,-3.137696 2.54297,-3.137695 2.54297,-9.249023 0,-6.049805 -2.54297,-9.166992 -2.52246,-3.137695 -7.485348,-3.137695 -4.983399,0 -7.587891,3.158203 -2.583984,3.137695 -2.583984,9.146484 z" /><path
         id="path4546"
         style="fill:#000000"
         d="m 127.63233,-51.584236 q -2.19433,0 -4.01953,-0.799805 -1.80469,-0.820312 -3.03516,-2.501953 h -0.24609 q 0.24609,1.96875 0.24609,3.732422 v 9.249023 h -3.40429 v -32.566406 h 2.76855 l 0.47168,3.076172 h 0.16406 q 1.3125,-1.845703 3.05567,-2.666016 1.74316,-0.820312 3.99902,-0.820312 4.4707,0 6.89063,3.055664 2.44043,3.055664 2.44043,8.572266 0,5.537109 -2.48145,8.613281 -2.46094,3.055664 -6.84961,3.055664 z m -0.49219,-20.405274 q -3.44531,0 -4.98339,1.907227 -1.53809,1.907227 -1.57911,6.070312 v 0.75879 q 0,4.737304 1.57911,6.788085 1.5791,2.030274 5.06543,2.030274 2.9121,0 4.55273,-2.358399 1.66113,-2.358398 1.66113,-6.500976 0,-4.204102 -1.66113,-6.439453 -1.64063,-2.25586 -4.63477,-2.25586 z" /><path
         id="path4548"
         style="fill:#000000"
         d="m 152.42628,-51.584236 q -4.9834,0 -7.875,-3.035156 -2.8711,-3.035157 -2.8711,-8.428711 0,-5.434571 2.66602,-8.633789 2.68652,-3.199219 7.19824,-3.199219 4.22461,0 6.68555,2.789062 2.46094,2.768555 2.46094,7.321289 v 2.153321 h -15.4834 q 0.10254,3.958008 1.98925,6.008789 1.90723,2.050781 5.35254,2.050781 3.62989,0 7.17774,-1.517578 v 3.035156 q -1.80469,0.779297 -3.42481,1.107422 -1.59961,0.348633 -3.87597,0.348633 z m -0.92285,-20.446289 q -2.70704,0 -4.32715,1.763672 -1.59961,1.763672 -1.88672,4.880859 h 11.75097 q 0,-3.219727 -1.43554,-4.921875 -1.43555,-1.722656 -4.10156,-1.722656 z" /><path
         id="path4550"
         style="fill:#000000"
         d="m 181.85499,-51.994392 v -14.540039 q 0,-2.748047 -1.25098,-4.101563 -1.25098,-1.353516 -3.91699,-1.353516 -3.52734,0 -5.16797,1.907227 -1.64062,1.907227 -1.64062,6.295898 v 11.791993 h -3.4043 v -22.476563 h 2.76855 l 0.55371,3.076172 h 0.16407 q 1.0459,-1.661133 2.93261,-2.563477 1.88672,-0.922851 4.20411,-0.922851 4.06054,0 6.11132,1.96875 2.05078,1.948242 2.05078,6.254883 v 14.663086 z" /><path
         id="path4552"
         style="fill:#000000"
         d="m 216.92335,-51.994392 -10.17188,-26.578125 h -0.16406 q 0.28711,3.158203 0.28711,7.505859 v 19.072266 h -3.21973 v -29.982422 h 5.25 l 9.49512,24.732422 h 0.16406 l 9.57715,-24.732422 h 5.20899 v 29.982422 h -3.48633 v -19.31836 q 0,-3.322265 0.28711,-7.21875 h -0.16407 l -10.2539,26.53711 z" /><path
         id="path4554"
         style="fill:#000000"
         d="m 250.53565,-51.584236 q -4.9834,0 -7.875,-3.035156 -2.87109,-3.035157 -2.87109,-8.428711 0,-5.434571 2.66601,-8.633789 2.68653,-3.199219 7.19825,-3.199219 4.22461,0 6.68554,2.789062 2.46094,2.768555 2.46094,7.321289 v 2.153321 h -15.4834 q 0.10254,3.958008 1.98926,6.008789 1.90723,2.050781 5.35254,2.050781 3.62988,0 7.17773,-1.517578 v 3.035156 q -1.80468,0.779297 -3.4248,1.107422 -1.59961,0.348633 -3.87598,0.348633 z m -0.92285,-20.446289 q -2.70703,0 -4.32715,1.763672 -1.59961,1.763672 -1.88672,4.880859 h 11.75098 q 0,-3.219727 -1.43555,-4.921875 -1.43554,-1.722656 -4.10156,-1.722656 z" /><path
         id="path4556"
         style="fill:#000000"
         d="m 274.07862,-51.584236 q -4.9834,0 -7.875,-3.035156 -2.87109,-3.035157 -2.87109,-8.428711 0,-5.434571 2.66601,-8.633789 2.68653,-3.199219 7.19824,-3.199219 4.22461,0 6.68555,2.789062 2.46094,2.768555 2.46094,7.321289 v 2.153321 h -15.4834 q 0.10254,3.958008 1.98926,6.008789 1.90723,2.050781 5.35254,2.050781 3.62988,0 7.17773,-1.517578 v 3.035156 q -1.80469,0.779297 -3.4248,1.107422 -1.59961,0.348633 -3.87598,0.348633 z m -0.92285,-20.446289 q -2.70703,0 -4.32715,1.763672 -1.59961,1.763672 -1.88672,4.880859 h 11.75098 q 0,-3.219727 -1.43555,-4.921875 -1.43555,-1.722656 -4.10156,-1.722656 z" /><path
         id="path4558"
         style="fill:#000000"
         d="m 295.38624,-54.393806 q 0.90234,0 1.74316,-0.123047 0.84082,-0.143555 1.33301,-0.28711 v 2.604492 q -0.55371,0.266602 -1.64063,0.430665 -1.0664,0.18457 -1.92773,0.18457 -6.52148,0 -6.52148,-6.870117 v -13.371094 h -3.21973 v -1.640625 l 3.21973,-1.415039 1.43554,-4.798828 h 1.96875 v 5.208984 h 6.52149 v 2.645508 h -6.52149 v 13.227539 q 0,2.030273 0.96387,3.117187 0.96387,1.086915 2.64551,1.086915 z" /><path
         id="path4560"
         style="font-style:italic;font-variant:normal;font-weight:600;font-stretch:normal;font-family:'Open Sans';-inkscape-font-specification:'Open Sans Semi-Bold Italic';fill:#e20000;fill-opacity:1"
         d="m 328.95753,-51.994392 h -19.05176 l 0.73828,-3.691407 9.65918,-8.654297 q 3.60938,-3.260742 4.88086,-4.737304 1.29199,-1.476563 1.86621,-2.727539 0.57422,-1.271485 0.57422,-2.707032 0,-1.743164 -1.02539,-2.748046 -1.00488,-1.025391 -2.85059,-1.025391 -1.43554,0 -2.85058,0.615234 -1.41504,0.615235 -3.48633,2.235352 l -2.3584,-3.28125 q 2.46094,-1.989258 4.7373,-2.830078 2.27637,-0.861328 4.67579,-0.861328 3.71191,0 5.90625,1.907226 2.19433,1.907227 2.19433,5.147461 0,2.214844 -0.7998,4.12207 -0.79981,1.907227 -2.52246,3.916993 -1.72266,1.989257 -5.82422,5.496093 l -6.37793,5.414063 v 0.164062 h 12.75586 z" /><path
         id="path4562"
         style="font-style:italic;font-variant:normal;font-weight:600;font-stretch:normal;font-family:'Open Sans';-inkscape-font-specification:'Open Sans Semi-Bold Italic';fill:#e20000;fill-opacity:1"
         d="m 355.96632,-72.748299 q 0,6.275391 -1.62012,11.217774 -1.62012,4.921875 -4.49121,7.444336 -2.8711,2.501953 -6.66504,2.501953 -3.97852,0 -5.94727,-2.604492 -1.94824,-2.625 -1.94824,-7.464844 0,-5.824219 1.70215,-10.787109 1.70215,-4.962891 4.55273,-7.485352 2.8711,-2.522461 6.60352,-2.522461 3.83496,0 5.82422,2.44043 1.98926,2.419922 1.98926,7.259765 z m -8.20313,-5.660156 q -1.98926,0 -3.69141,2.296875 -1.70214,2.296875 -2.80957,6.418945 -1.08691,4.101563 -1.08691,8.080079 0,2.932617 0.79981,4.470703 0.7998,1.538086 2.6455,1.538086 2.05078,0 3.73242,-2.317383 1.70215,-2.337891 2.70704,-6.500977 1.02539,-4.163086 1.02539,-8.490234 0,-5.496094 -3.32227,-5.496094 z" /><path
         id="path4564"
         style="font-style:italic;font-variant:normal;font-weight:600;font-stretch:normal;font-family:'Open Sans';-inkscape-font-specification:'Open Sans Semi-Bold Italic';fill:#e20000;fill-opacity:1"
         d="m 369.60401,-51.994392 h -4.88086 l 3.87598,-17.841797 q 0.57422,-3.076172 1.68164,-6.644532 -1.16895,1.12793 -2.76856,2.091797 l -3.83496,2.399414 -2.17382,-3.486328 10.41796,-6.500976 h 4.06055 z" /><path
         id="path4566"
         style="font-style:italic;font-variant:normal;font-weight:600;font-stretch:normal;font-family:'Open Sans';-inkscape-font-specification:'Open Sans Semi-Bold Italic';fill:#e20000;fill-opacity:1"
         d="m 401.80128,-72.871346 q 0,4.204102 -1.18946,8.510743 -1.18945,4.286132 -3.13769,7.157226 -1.92774,2.850586 -4.63477,4.245117 -2.68652,1.374024 -6.35742,1.374024 -2.72754,0 -4.92187,-0.65625 v -4.245117 q 2.48144,0.881836 4.83984,0.881836 3.85547,0 6.27539,-2.522461 2.41992,-2.522461 3.62988,-7.977539 h -0.12304 q -2.31739,3.28125 -6.25489,3.28125 -3.38379,0 -5.25,-2.091797 -1.8457,-2.091797 -1.8457,-5.90625 0,-3.199219 1.37402,-5.926758 1.37403,-2.727539 3.81446,-4.183594 2.46093,-1.476562 5.63965,-1.476562 3.9375,0 6.02929,2.460937 2.11231,2.44043 2.11231,7.075195 z m -8.51075,-5.537109 q -1.68164,0 -2.99414,0.963867 -1.29199,0.963867 -1.98925,2.666016 -0.69727,1.702148 -0.69727,3.670898 0,2.153321 0.94336,3.28125 0.94336,1.12793 2.74805,1.12793 2.39941,0 4.06054,-1.927734 1.66114,-1.927735 1.66114,-4.921875 0,-2.214844 -0.98438,-3.527344 -0.98437,-1.333008 -2.74805,-1.333008 z" /></g></g></svg>