<?xml version="1.0" encoding="UTF-8" standalone="no"?>
<svg
   xmlns:dc="http://purl.org/dc/elements/1.1/"
   xmlns:cc="http://creativecommons.org/ns#"
   xmlns:rdf="http://www.w3.org/1999/02/22-rdf-syntax-ns#"
   xmlns:svg="http://www.w3.org/2000/svg"
   xmlns="http://www.w3.org/2000/svg"
   viewBox="0 0 543.93817 105.33191"
   height="105.33191"
   width="543.93817"
   xml:space="preserve"
   id="svg2"
   version="1.1"><metadata
     id="metadata8"><rdf:RDF><cc:Work
         rdf:about=""><dc:format>image/svg+xml</dc:format><dc:type
           rdf:resource="http://purl.org/dc/dcmitype/StillImage" /><dc:title></dc:title></cc:Work></rdf:RDF></metadata><defs
     id="defs6"><clipPath
       id="clipPath18"
       clipPathUnits="userSpaceOnUse"><path
         id="path16"
         d="M 0,71.46 H 467.833 V 0 H 0 Z" /></clipPath></defs><g
     transform="matrix(1.3333333,0,0,-1.3333333,0,135.8563)"
     id="g10"><g
       style="fill:#ffffff"
       transform="translate(0,26.662688)"
       id="g12"><g
         style="fill:#ffffff"
         clip-path="url(#clipPath18)"
         id="g14"><g
           style="fill:#ffffff"
           transform="translate(42,69)"
           id="g20"><path
             id="path22"
             style="fill:#ffffff;fill-opacity:1;fill-rule:nonzero;stroke:none"
             d="m 0,0 c -0.833,2.167 -3.5,1.167 -3.5,1.167 0,0 -3.663,-0.497 -4.333,-0.834 -0.405,0.458 -1.165,1.189 -2.334,1.667 -1.974,0.808 -3.762,0.341 -4.333,0.167 -1.727,-0.343 -5.767,-1.387 -9.5,-4.834 -3.62,-3.343 -4.997,-7.142 -5.5,-8.833 -1.303,-0.064 -4.96,-0.416 -8.333,-3.167 -2.495,-2.034 -3.664,-4.425 -4.167,-5.666 0.901,0.22 3.008,0.606 5.5,-0.167 2.386,-0.74 3.869,-2.153 4.5,-2.833 0.095,-2.937 0.638,-8.035 3.333,-13.667 2.578,-5.386 5.999,-8.911 8.167,-10.833 -0.422,-2.496 -0.419,-4.562 -0.333,-6 0.113,-1.896 0.193,-3.04 0.833,-4.334 1.041,-2.103 2.864,-3.188 3.833,-3.666 -0.177,1.277 -0.302,3.375 0.334,5.833 0.517,1.999 1.351,3.515 2,4.5 0.534,0.742 1.589,2.005 3.333,3 1.691,0.965 3.264,1.242 4.167,1.333 -0.517,0.568 -1.173,1.157 -2,1.667 -3.47,2.141 -7.335,1.301 -8.5,1 -1.018,2.12 -2.392,5.718 -2.5,10.333 -0.176,7.502 2.941,12.948 4.333,15 0.766,-0.805 1.635,-1.853 2.458,-3.166 1.009,-1.61 1.64,-3.125 2.042,-4.334 0.586,1.463 1.376,3.974 1.333,7.167 -0.039,2.933 -0.765,5.25 -1.333,6.667 1.818,1.409 3.725,3.013 5.667,4.833 1.324,1.241 2.907,2.876 3.666,3.667 0.938,1.173 2,2.166 1.167,4.333" /></g><g
           style="fill:#ffffff"
           transform="translate(36.7227,40.0054)"
           id="g24"><path
             id="path26"
             style="fill:#ffffff;fill-opacity:1;fill-rule:nonzero;stroke:none"
             d="m 0,0 c 0.535,1.39 2.245,0.748 2.245,0.748 0,0 2.35,-0.318 2.78,-0.534 0.26,0.293 0.747,0.762 1.497,1.069 1.266,0.518 2.414,0.219 2.78,0.107 1.072,-0.199 3.714,-0.837 6.095,-3.101 2.688,-2.556 3.363,-5.59 3.547,-6.628 0.874,-0.088 3.236,-0.446 5.333,-2.333 1.41,-1.269 2.096,-2.685 2.417,-3.5 -0.754,0.145 -1.892,0.273 -3.25,0.083 -1.256,-0.175 -2.249,-0.56 -2.915,-0.88 -0.378,-2.205 -1.12,-5.182 -2.668,-8.453 -1.506,-3.181 -3.277,-5.592 -4.71,-7.264 0.271,-1.601 0.269,-2.926 0.214,-3.849 -0.069,-1.16 -0.142,-2.004 -0.535,-2.78 -1.157,-2.286 -4.527,-2.632 -5.219,-2.69 0.107,0.197 1.739,3.321 0,6.416 -1.496,2.662 -4.294,3.187 -4.667,3.25 0.511,0.424 1.174,0.879 2,1.25 2.469,1.111 4.812,0.767 5.855,0.541 0.294,2.417 0.451,5.434 0.145,8.876 -0.253,2.842 -0.763,5.325 -1.321,7.376 -0.487,-0.231 -1.289,-0.69 -2.012,-1.543 -0.941,-1.109 -1.232,-2.275 -1.334,-2.833 -0.25,0.264 -1.761,1.919 -1.583,4.417 0.17,2.38 1.749,3.773 2.042,4.022 C 5.57,-7.328 4.346,-6.299 3.101,-5.132 2.251,-4.336 1.648,-3.721 0.748,-2.78 -0.151,-1.839 -0.535,-1.39 0,0" /></g></g></g><g
       id="g840"><g
         id="text4536"
         style="font-style:normal;font-variant:normal;font-weight:normal;font-stretch:normal;font-size:42px;line-height:1.25;font-family:Lato;-inkscape-font-specification:Lato;letter-spacing:0px;word-spacing:0px;fill:#e20000;fill-opacity:1;stroke:none;stroke-width:0.75"
         transform="scale(1,-1)"
         aria-label="Open Meet 2019"><path
           id="path842"
           style="font-style:normal;font-variant:normal;font-weight:600;font-stretch:normal;font-family:'Open Sans';-inkscape-font-specification:'Open Sans Semi-Bold';fill:#ffffff"
           d="m 111.41065,-48.015366 q 0,7.321289 -3.6709,11.381836 -3.65039,4.060547 -10.356442,4.060547 -6.788086,0 -10.438476,-4.019531 -3.629883,-4.040039 -3.629883,-11.463867 0,-7.423828 3.650391,-11.402344 3.670898,-3.978516 10.458984,-3.978516 6.685546,0 10.335936,4.040039 3.65039,4.04004 3.65039,11.381836 z m -22.886717,0 q 0,5.53711 2.235352,8.408204 2.235352,2.850585 6.624023,2.850585 4.368162,0 6.583012,-2.830078 2.23535,-2.830078 2.23535,-8.428711 0,-5.516601 -2.21485,-8.367187 -2.19433,-2.850586 -6.562496,-2.850586 -4.40918,0 -6.665039,2.850586 -2.235352,2.850586 -2.235352,8.367187 z" /><path
           id="path844"
           style="font-style:normal;font-variant:normal;font-weight:600;font-stretch:normal;font-family:'Open Sans';-inkscape-font-specification:'Open Sans Semi-Bold';fill:#ffffff"
           d="m 128.84229,-32.572983 q -4.30664,0 -6.68554,-3.096679 h -0.28711 q 0.28711,2.871093 0.28711,3.486328 v 9.290039 h -4.81934 V -55.66478 h 3.89648 q 0.16407,0.635743 0.67676,3.035157 h 0.2461 q 2.25586,-3.445313 6.76757,-3.445313 4.24512,0 6.60352,3.076172 2.37891,3.076172 2.37891,8.633789 0,5.557617 -2.41993,8.674805 -2.39941,3.117187 -6.64453,3.117187 z m -1.16894,-19.564453 q -2.8711,0 -4.2041,1.681641 -1.3125,1.68164 -1.3125,5.373047 v 0.717773 q 0,4.142578 1.3125,6.008789 1.3125,1.845703 4.28613,1.845703 2.50195,0 3.85547,-2.050781 1.35351,-2.050781 1.35351,-5.844727 0,-3.814453 -1.35351,-5.762695 -1.33301,-1.96875 -3.9375,-1.96875 z" /><path
           id="path846"
           style="font-style:normal;font-variant:normal;font-weight:600;font-stretch:normal;font-family:'Open Sans';-inkscape-font-specification:'Open Sans Semi-Bold';fill:#ffffff"
           d="m 153.41065,-32.572983 q -5.29101,0 -8.28515,-3.076172 -2.97364,-3.096679 -2.97364,-8.510742 0,-5.557617 2.76856,-8.736328 2.76855,-3.178711 7.6084,-3.178711 4.49121,0 7.0957,2.727539 2.60449,2.727539 2.60449,7.50586 v 2.604492 h -15.11426 q 0.10254,3.301758 1.78418,5.085937 1.68164,1.763672 4.73731,1.763672 2.00976,0 3.73242,-0.369141 1.74316,-0.389648 3.73242,-1.271484 v 3.916992 q -1.76367,0.840821 -3.56836,1.189453 -1.80469,0.348633 -4.12207,0.348633 z m -0.88183,-19.851562 q -2.29688,0 -3.69141,1.456054 -1.37402,1.456055 -1.64063,4.245118 h 10.29493 q -0.041,-2.809571 -1.35352,-4.245118 -1.3125,-1.456054 -3.60937,-1.456054 z" /><path
           id="path848"
           style="font-style:normal;font-variant:normal;font-weight:600;font-stretch:normal;font-family:'Open Sans';-inkscape-font-specification:'Open Sans Semi-Bold';fill:#ffffff"
           d="m 187.6587,-32.983139 h -4.83984 v -13.945313 q 0,-2.625 -1.06641,-3.916992 -1.0459,-1.291992 -3.34277,-1.291992 -3.05567,0 -4.47071,1.804688 -1.41504,1.804687 -1.41504,6.049804 v 11.299805 H 167.7046 V -55.66478 h 3.77343 l 0.67676,2.973633 h 0.2461 q 1.02539,-1.620117 2.91211,-2.501953 1.88671,-0.881836 4.18359,-0.881836 8.16211,0 8.16211,8.305664 z" /><path
           id="path850"
           style="font-style:normal;font-variant:normal;font-weight:600;font-stretch:normal;font-family:'Open Sans';-inkscape-font-specification:'Open Sans Semi-Bold';fill:#ffffff"
           d="m 218.74854,-32.983139 -8.69531,-25.040039 h -0.16406 q 0.34863,5.578125 0.34863,10.458984 v 14.581055 h -4.45019 v -29.982422 h 6.91113 l 8.32617,23.850586 h 0.12305 l 8.57226,-23.850586 h 6.93164 v 29.982422 h -4.71679 v -14.827148 q 0,-2.235352 0.10254,-5.824219 0.12304,-3.588867 0.20507,-4.347656 h -0.16406 l -9.00293,24.999023 z" /><path
           id="path852"
           style="font-style:normal;font-variant:normal;font-weight:600;font-stretch:normal;font-family:'Open Sans';-inkscape-font-specification:'Open Sans Semi-Bold';fill:#ffffff"
           d="m 253.98096,-32.572983 q -5.29101,0 -8.28515,-3.076172 -2.97363,-3.096679 -2.97363,-8.510742 0,-5.557617 2.76855,-8.736328 2.76855,-3.178711 7.6084,-3.178711 4.49121,0 7.0957,2.727539 2.60449,2.727539 2.60449,7.50586 v 2.604492 h -15.11425 q 0.10254,3.301758 1.78418,5.085937 1.68164,1.763672 4.7373,1.763672 2.00977,0 3.73242,-0.369141 1.74317,-0.389648 3.73242,-1.271484 v 3.916992 q -1.76367,0.840821 -3.56836,1.189453 -1.80468,0.348633 -4.12207,0.348633 z m -0.88183,-19.851562 q -2.29688,0 -3.69141,1.456054 -1.37402,1.456055 -1.64062,4.245118 h 10.29492 q -0.041,-2.809571 -1.35352,-4.245118 -1.3125,-1.456054 -3.60937,-1.456054 z" /><path
           id="path854"
           style="font-style:normal;font-variant:normal;font-weight:600;font-stretch:normal;font-family:'Open Sans';-inkscape-font-specification:'Open Sans Semi-Bold';fill:#ffffff"
           d="m 278.18018,-32.572983 q -5.29101,0 -8.28515,-3.076172 -2.97364,-3.096679 -2.97364,-8.510742 0,-5.557617 2.76856,-8.736328 2.76855,-3.178711 7.6084,-3.178711 4.49121,0 7.0957,2.727539 2.60449,2.727539 2.60449,7.50586 v 2.604492 h -15.11426 q 0.10254,3.301758 1.78418,5.085937 1.68165,1.763672 4.73731,1.763672 2.00976,0 3.73242,-0.369141 1.74317,-0.389648 3.73242,-1.271484 v 3.916992 q -1.76367,0.840821 -3.56836,1.189453 -1.80468,0.348633 -4.12207,0.348633 z m -0.88183,-19.851562 q -2.29688,0 -3.69141,1.456054 -1.37402,1.456055 -1.64062,4.245118 h 10.29492 q -0.041,-2.809571 -1.35352,-4.245118 -1.3125,-1.456054 -3.60937,-1.456054 z" /><path
           id="path856"
           style="font-style:normal;font-variant:normal;font-weight:600;font-stretch:normal;font-family:'Open Sans';-inkscape-font-specification:'Open Sans Semi-Bold';fill:#ffffff"
           d="m 300.92335,-36.469467 q 1.76367,0 3.52734,-0.553711 v 3.629883 q -0.7998,0.348633 -2.07129,0.574218 -1.25097,0.246094 -2.60449,0.246094 -6.84961,0 -6.84961,-7.21875 v -12.222656 h -3.09668 v -2.132813 l 3.32227,-1.763671 1.64062,-4.798829 h 2.97363 v 5.044922 h 6.45997 v 3.650391 h -6.45997 v 12.140625 q 0,1.743164 0.86133,2.583984 0.88184,0.820313 2.29688,0.820313 z" /><path
           id="path858"
           style="font-style:italic;font-variant:normal;font-weight:600;font-stretch:normal;font-family:'Open Sans';-inkscape-font-specification:'Open Sans Semi-Bold Italic';fill:#ffffff;fill-opacity:1"
           d="m 335.10987,-32.983139 h -19.05176 l 0.73828,-3.691406 9.65918,-8.654297 q 3.60938,-3.260742 4.88086,-4.737305 1.292,-1.476562 1.86621,-2.727539 0.57422,-1.271484 0.57422,-2.707031 0,-1.743164 -1.02539,-2.748047 -1.00488,-1.025391 -2.85058,-1.025391 -1.43555,0 -2.85059,0.615235 -1.41504,0.615234 -3.48633,2.235351 l -2.3584,-3.28125 q 2.46094,-1.989258 4.73731,-2.830078 2.27637,-0.861328 4.67578,-0.861328 3.71191,0 5.90625,1.907227 2.19434,1.907226 2.19434,5.147461 0,2.214843 -0.79981,4.12207 -0.7998,1.907226 -2.52246,3.916992 -1.72266,1.989258 -5.82422,5.496094 l -6.37793,5.414062 v 0.164063 h 12.75586 z" /><path
           id="path860"
           style="font-style:italic;font-variant:normal;font-weight:600;font-stretch:normal;font-family:'Open Sans';-inkscape-font-specification:'Open Sans Semi-Bold Italic';fill:#ffffff;fill-opacity:1"
           d="m 362.11866,-53.737045 q 0,6.27539 -1.62012,11.217773 -1.62011,4.921875 -4.49121,7.444336 -2.87109,2.501953 -6.66504,2.501953 -3.97851,0 -5.94726,-2.604492 -1.94825,-2.625 -1.94825,-7.464844 0,-5.824218 1.70215,-10.787109 1.70215,-4.962891 4.55274,-7.485352 2.87109,-2.522461 6.60351,-2.522461 3.83496,0 5.82422,2.44043 1.98926,2.419922 1.98926,7.259766 z m -8.20313,-5.660157 q -1.98925,0 -3.6914,2.296875 -1.70215,2.296875 -2.80957,6.418946 -1.08692,4.101562 -1.08692,8.080078 0,2.932617 0.79981,4.470703 0.7998,1.538086 2.64551,1.538086 2.05078,0 3.73242,-2.317383 1.70215,-2.33789 2.70703,-6.500976 1.02539,-4.163086 1.02539,-8.490235 0,-5.496094 -3.32227,-5.496094 z" /><path
           id="path862"
           style="font-style:italic;font-variant:normal;font-weight:600;font-stretch:normal;font-family:'Open Sans';-inkscape-font-specification:'Open Sans Semi-Bold Italic';fill:#ffffff;fill-opacity:1"
           d="m 375.75636,-32.983139 h -4.88086 l 3.87597,-17.841797 q 0.57422,-3.076172 1.68164,-6.644531 -1.16894,1.12793 -2.76855,2.091797 l -3.83496,2.399414 -2.17383,-3.486328 10.41797,-6.500977 h 4.06054 z" /><path
           id="path864"
           style="font-style:italic;font-variant:normal;font-weight:600;font-stretch:normal;font-family:'Open Sans';-inkscape-font-specification:'Open Sans Semi-Bold Italic';fill:#ffffff;fill-opacity:1"
           d="m 407.95362,-53.860092 q 0,4.204101 -1.18945,8.510742 -1.18946,4.286133 -3.1377,7.157227 -1.92773,2.850586 -4.63476,4.245117 -2.68653,1.374023 -6.35743,1.374023 -2.72753,0 -4.92187,-0.65625 v -4.245117 q 2.48145,0.881836 4.83984,0.881836 3.85547,0 6.27539,-2.522461 2.41993,-2.522461 3.62989,-7.977539 h -0.12305 q -2.31738,3.28125 -6.25488,3.28125 -3.38379,0 -5.25,-2.091797 -1.84571,-2.091797 -1.84571,-5.90625 0,-3.199219 1.37403,-5.926758 1.37402,-2.727539 3.81445,-4.183593 2.46094,-1.476563 5.63965,-1.476563 3.9375,0 6.0293,2.460938 2.1123,2.440429 2.1123,7.075195 z m -8.51074,-5.53711 q -1.68164,0 -2.99414,0.963868 -1.29199,0.963867 -1.98926,2.666015 -0.69727,1.702149 -0.69727,3.670899 0,2.15332 0.94336,3.28125 0.94336,1.127929 2.74805,1.127929 2.39941,0 4.06055,-1.927734 1.66113,-1.927734 1.66113,-4.921875 0,-2.214844 -0.98437,-3.527344 -0.98438,-1.333008 -2.74805,-1.333008 z" /></g><g
         id="text832"
         style="font-style:normal;font-variant:normal;font-weight:normal;font-stretch:normal;font-size:32px;line-height:1.25;font-family:Lato;-inkscape-font-specification:Lato;letter-spacing:0px;word-spacing:0px;fill:#ffffff;fill-opacity:1;stroke:none;stroke-width:0.75"
         transform="scale(1,-1)"
         aria-label="Chester-le-Street"><path
           id="path867"
           style="font-style:normal;font-variant:normal;font-weight:normal;font-stretch:normal;font-family:'Open Sans';-inkscape-font-specification:'Open Sans';stroke-width:0.75;fill:#ffffff"
           d="m 94.283699,-98.376602 q -3.765625,0 -5.953125,2.515625 -2.171875,2.5 -2.171875,6.859375 0,4.484375 2.09375,6.9375 2.109375,2.4375 6,2.4375 2.390625,0 5.453125,-0.859375 v 2.328125 q -2.375,0.890625 -5.859375,0.890625 -5.046875,0 -7.796875,-3.0625 -2.734375,-3.0625 -2.734375,-8.703125 0,-3.53125 1.3125,-6.1875 1.328125,-2.65625 3.8125,-4.09375 2.5,-1.437498 5.875,-1.437498 3.59375,0 6.281251,1.312498 l -1.125001,2.28125 q -2.59375,-1.21875 -5.1875,-1.21875 z" /><path
           id="path869"
           style="font-style:normal;font-variant:normal;font-weight:normal;font-stretch:normal;font-family:'Open Sans';-inkscape-font-specification:'Open Sans';stroke-width:0.75;fill:#ffffff"
           d="m 116.01807,-77.579727 v -11.078125 q 0,-2.09375 -0.95312,-3.125 -0.95313,-1.03125 -2.98438,-1.03125 -2.70312,0 -3.95312,1.46875 -1.23438,1.46875 -1.23438,4.8125 v 8.953125 h -2.59375 v -24.312503 h 2.59375 v 7.359378 q 0,1.328125 -0.125,2.203125 h 0.15625 q 0.76563,-1.234375 2.17188,-1.9375 1.42187,-0.71875 3.23437,-0.71875 3.14063,0 4.70313,1.5 1.57812,1.484375 1.57812,4.734375 v 11.171875 z" /><path
           id="path871"
           style="font-style:normal;font-variant:normal;font-weight:normal;font-stretch:normal;font-family:'Open Sans';-inkscape-font-specification:'Open Sans';stroke-width:0.75;fill:#ffffff"
           d="m 131.1587,-77.267227 q -3.79688,0 -6,-2.3125 -2.1875,-2.3125 -2.1875,-6.421875 0,-4.140625 2.03125,-6.578125 2.04687,-2.4375 5.48437,-2.4375 3.21875,0 5.09375,2.125 1.875,2.109375 1.875,5.578125 v 1.640625 H 125.6587 q 0.0781,3.015625 1.51562,4.578125 1.45313,1.5625 4.07813,1.5625 2.76562,0 5.46875,-1.15625 v 2.3125 q -1.375,0.59375 -2.60938,0.84375 -1.21875,0.265625 -2.95312,0.265625 z m -0.70313,-15.578125 q -2.0625,0 -3.29687,1.34375 -1.21875,1.34375 -1.4375,3.71875 h 8.95312 q 0,-2.453125 -1.09375,-3.75 -1.09375,-1.3125 -3.125,-1.3125 z" /><path
           id="path873"
           style="font-style:normal;font-variant:normal;font-weight:normal;font-stretch:normal;font-family:'Open Sans';-inkscape-font-specification:'Open Sans';stroke-width:0.75;fill:#ffffff"
           d="m 152.9087,-82.251602 q 0,2.390625 -1.78125,3.6875 -1.78125,1.296875 -5,1.296875 -3.40625,0 -5.3125,-1.078125 v -2.40625 q 1.23437,0.625 2.64062,0.984375 1.42188,0.359375 2.73438,0.359375 2.03125,0 3.125,-0.640625 1.09375,-0.65625 1.09375,-1.984375 0,-1 -0.875,-1.703125 -0.85938,-0.71875 -3.375,-1.6875 -2.39063,-0.890625 -3.40625,-1.546875 -1,-0.671875 -1.5,-1.515625 -0.48438,-0.84375 -0.48438,-2.015625 0,-2.09375 1.70313,-3.296875 1.70312,-1.21875 4.67187,-1.21875 2.76563,0 5.40625,1.125 l -0.92187,2.109375 q -2.57813,-1.0625 -4.67188,-1.0625 -1.84375,0 -2.78125,0.578125 -0.9375,0.578125 -0.9375,1.59375 0,0.6875 0.34375,1.171875 0.35938,0.484375 1.14063,0.921875 0.78125,0.4375 3,1.265625 3.04687,1.109375 4.10937,2.234375 1.07813,1.125 1.07813,2.828125 z" /><path
           id="path875"
           style="font-style:normal;font-variant:normal;font-weight:normal;font-stretch:normal;font-family:'Open Sans';-inkscape-font-specification:'Open Sans';stroke-width:0.75;fill:#ffffff"
           d="m 162.64307,-79.407852 q 0.6875,0 1.32813,-0.09375 0.64062,-0.109375 1.01562,-0.21875 v 1.984375 q -0.42187,0.203125 -1.25,0.328125 -0.8125,0.140625 -1.46875,0.140625 -4.96875,0 -4.96875,-5.234375 v -10.1875 h -2.45312 v -1.25 l 2.45312,-1.078125 1.09375,-3.65625 h 1.5 v 3.96875 h 4.96875 v 2.015625 h -4.96875 v 10.078125 q 0,1.546875 0.73438,2.375 0.73437,0.828125 2.01562,0.828125 z" /><path
           id="path877"
           style="font-style:normal;font-variant:normal;font-weight:normal;font-stretch:normal;font-family:'Open Sans';-inkscape-font-specification:'Open Sans';stroke-width:0.75;fill:#ffffff"
           d="m 175.6587,-77.267227 q -3.79688,0 -6,-2.3125 -2.1875,-2.3125 -2.1875,-6.421875 0,-4.140625 2.03125,-6.578125 2.04687,-2.4375 5.48437,-2.4375 3.21875,0 5.09375,2.125 1.875,2.109375 1.875,5.578125 v 1.640625 H 170.1587 q 0.0781,3.015625 1.51562,4.578125 1.45313,1.5625 4.07813,1.5625 2.76562,0 5.46875,-1.15625 v 2.3125 q -1.375,0.59375 -2.60938,0.84375 -1.21875,0.265625 -2.95312,0.265625 z m -0.70313,-15.578125 q -2.0625,0 -3.29687,1.34375 -1.21875,1.34375 -1.4375,3.71875 h 8.95312 q 0,-2.453125 -1.09375,-3.75 -1.09375,-1.3125 -3.125,-1.3125 z" /><path
           id="path879"
           style="font-style:normal;font-variant:normal;font-weight:normal;font-stretch:normal;font-family:'Open Sans';-inkscape-font-specification:'Open Sans';stroke-width:0.75;fill:#ffffff"
           d="m 194.17432,-95.017227 q 1.14063,0 2.04688,0.1875 l -0.35938,2.40625 q -1.0625,-0.234375 -1.875,-0.234375 -2.07812,0 -3.5625,1.6875 -1.46875,1.6875 -1.46875,4.203125 v 9.1875 h -2.59375 v -17.125 h 2.14063 l 0.29687,3.171875 h 0.125 q 0.95313,-1.671875 2.29688,-2.578125 1.34375,-0.90625 2.95312,-0.90625 z" /><path
           id="path881"
           style="font-style:normal;font-variant:normal;font-weight:normal;font-stretch:normal;font-family:'Open Sans';-inkscape-font-specification:'Open Sans';stroke-width:0.75;fill:#ffffff"
           d="m 197.98682,-84.970352 v -2.375 h 7.67188 v 2.375 z" /><path
           id="path883"
           style="font-style:normal;font-variant:normal;font-weight:normal;font-stretch:normal;font-family:'Open Sans';-inkscape-font-specification:'Open Sans';stroke-width:0.75;fill:#ffffff"
           d="m 212.33057,-77.579727 h -2.59375 v -24.312503 h 2.59375 z" /><path
           id="path885"
           style="font-style:normal;font-variant:normal;font-weight:normal;font-stretch:normal;font-family:'Open Sans';-inkscape-font-specification:'Open Sans';stroke-width:0.75;fill:#ffffff"
           d="m 225.0962,-77.267227 q -3.79688,0 -6,-2.3125 -2.1875,-2.3125 -2.1875,-6.421875 0,-4.140625 2.03125,-6.578125 2.04687,-2.4375 5.48437,-2.4375 3.21875,0 5.09375,2.125 1.875,2.109375 1.875,5.578125 v 1.640625 H 219.5962 q 0.0781,3.015625 1.51562,4.578125 1.45313,1.5625 4.07813,1.5625 2.76562,0 5.46875,-1.15625 v 2.3125 q -1.375,0.59375 -2.60938,0.84375 -1.21875,0.265625 -2.95312,0.265625 z m -0.70313,-15.578125 q -2.0625,0 -3.29687,1.34375 -1.21875,1.34375 -1.4375,3.71875 h 8.95312 q 0,-2.453125 -1.09375,-3.75 -1.09375,-1.3125 -3.125,-1.3125 z" /><path
           id="path887"
           style="font-style:normal;font-variant:normal;font-weight:normal;font-stretch:normal;font-family:'Open Sans';-inkscape-font-specification:'Open Sans';stroke-width:0.75;fill:#ffffff"
           d="m 234.36182,-84.970352 v -2.375 h 7.67188 v 2.375 z" /><path
           id="path889"
           style="font-style:normal;font-variant:normal;font-weight:normal;font-stretch:normal;font-family:'Open Sans';-inkscape-font-specification:'Open Sans';stroke-width:0.75;fill:#ffffff"
           d="m 259.39307,-83.657852 q 0,3.015625 -2.1875,4.703125 -2.1875,1.6875 -5.9375,1.6875 -4.0625,0 -6.25,-1.046875 v -2.5625 q 1.40625,0.59375 3.0625,0.9375 1.65625,0.34375 3.28125,0.34375 2.65625,0 4,-1 1.34375,-1.015625 1.34375,-2.8125 0,-1.1875 -0.48437,-1.9375 -0.46875,-0.765625 -1.59375,-1.40625 -1.10938,-0.640625 -3.39063,-1.453125 -3.1875,-1.140625 -4.5625,-2.703125 -1.35937,-1.5625 -1.35937,-4.078125 0,-2.640625 1.98437,-4.203125 1.98438,-1.562498 5.25,-1.562498 3.40625,0 6.26563,1.249998 l -0.82813,2.3125 q -2.82812,-1.1875 -5.5,-1.1875 -2.10937,0 -3.29687,0.90625 -1.1875,0.90625 -1.1875,2.515625 0,1.1875 0.4375,1.953125 0.4375,0.75 1.46875,1.390625 1.04687,0.625 3.1875,1.390625 3.59375,1.28125 4.9375,2.75 1.35937,1.46875 1.35937,3.8125 z" /><path
           id="path891"
           style="font-style:normal;font-variant:normal;font-weight:normal;font-stretch:normal;font-family:'Open Sans';-inkscape-font-specification:'Open Sans';stroke-width:0.75;fill:#ffffff"
           d="m 269.20557,-79.407852 q 0.6875,0 1.32813,-0.09375 0.64062,-0.109375 1.01562,-0.21875 v 1.984375 q -0.42187,0.203125 -1.25,0.328125 -0.8125,0.140625 -1.46875,0.140625 -4.96875,0 -4.96875,-5.234375 v -10.1875 h -2.45312 v -1.25 l 2.45312,-1.078125 1.09375,-3.65625 h 1.5 v 3.96875 h 4.96875 v 2.015625 h -4.96875 v 10.078125 q 0,1.546875 0.73438,2.375 0.73437,0.828125 2.01562,0.828125 z" /><path
           id="path893"
           style="font-style:normal;font-variant:normal;font-weight:normal;font-stretch:normal;font-family:'Open Sans';-inkscape-font-specification:'Open Sans';stroke-width:0.75;fill:#ffffff"
           d="m 282.79932,-95.017227 q 1.14063,0 2.04688,0.1875 l -0.35938,2.40625 q -1.0625,-0.234375 -1.875,-0.234375 -2.07812,0 -3.5625,1.6875 -1.46875,1.6875 -1.46875,4.203125 v 9.1875 h -2.59375 v -17.125 h 2.14063 l 0.29687,3.171875 h 0.125 q 0.95313,-1.671875 2.29688,-2.578125 1.34375,-0.90625 2.95312,-0.90625 z" /><path
           id="path895"
           style="font-style:normal;font-variant:normal;font-weight:normal;font-stretch:normal;font-family:'Open Sans';-inkscape-font-specification:'Open Sans';stroke-width:0.75;fill:#ffffff"
           d="m 295.2837,-77.267227 q -3.79688,0 -6,-2.3125 -2.1875,-2.3125 -2.1875,-6.421875 0,-4.140625 2.03125,-6.578125 2.04687,-2.4375 5.48437,-2.4375 3.21875,0 5.09375,2.125 1.875,2.109375 1.875,5.578125 v 1.640625 H 289.7837 q 0.0781,3.015625 1.51562,4.578125 1.45313,1.5625 4.07813,1.5625 2.76562,0 5.46875,-1.15625 v 2.3125 q -1.375,0.59375 -2.60938,0.84375 -1.21875,0.265625 -2.95312,0.265625 z m -0.70313,-15.578125 q -2.0625,0 -3.29687,1.34375 -1.21875,1.34375 -1.4375,3.71875 h 8.95312 q 0,-2.453125 -1.09375,-3.75 -1.09375,-1.3125 -3.125,-1.3125 z" /><path
           id="path897"
           style="font-style:normal;font-variant:normal;font-weight:normal;font-stretch:normal;font-family:'Open Sans';-inkscape-font-specification:'Open Sans';stroke-width:0.75;fill:#ffffff"
           d="m 313.2212,-77.267227 q -3.79688,0 -6,-2.3125 -2.1875,-2.3125 -2.1875,-6.421875 0,-4.140625 2.03125,-6.578125 2.04687,-2.4375 5.48437,-2.4375 3.21875,0 5.09375,2.125 1.875,2.109375 1.875,5.578125 v 1.640625 H 307.7212 q 0.0781,3.015625 1.51562,4.578125 1.45313,1.5625 4.07813,1.5625 2.76562,0 5.46875,-1.15625 v 2.3125 q -1.375,0.59375 -2.60938,0.84375 -1.21875,0.265625 -2.95312,0.265625 z m -0.70313,-15.578125 q -2.0625,0 -3.29687,1.34375 -1.21875,1.34375 -1.4375,3.71875 h 8.95312 q 0,-2.453125 -1.09375,-3.75 -1.09375,-1.3125 -3.125,-1.3125 z" /><path
           id="path899"
           style="font-style:normal;font-variant:normal;font-weight:normal;font-stretch:normal;font-family:'Open Sans';-inkscape-font-specification:'Open Sans';stroke-width:0.75;fill:#ffffff"
           d="m 329.45557,-79.407852 q 0.6875,0 1.32813,-0.09375 0.64062,-0.109375 1.01562,-0.21875 v 1.984375 q -0.42187,0.203125 -1.25,0.328125 -0.8125,0.140625 -1.46875,0.140625 -4.96875,0 -4.96875,-5.234375 v -10.1875 h -2.45312 v -1.25 l 2.45312,-1.078125 1.09375,-3.65625 h 1.5 v 3.96875 h 4.96875 v 2.015625 h -4.96875 v 10.078125 q 0,1.546875 0.73438,2.375 0.73437,0.828125 2.01562,0.828125 z" /></g></g></g></svg>