<?xml version="1.0" encoding="UTF-8" standalone="no"?>
<!-- Generator: Adobe Illustrator 19.0.0, SVG Export Plug-In . SVG Version: 6.00 Build 0)  -->
<svg id="Layer_1" style="enable-background:new 0 0 17.7 20" xmlns="http://www.w3.org/2000/svg" xml:space="preserve" viewBox="0 0 17.7 20" version="1.1" y="0px" x="0px" xmlns:xlink="http://www.w3.org/1999/xlink">
<style type="text/css">
	.st0{fill:#FFFFFF;}
</style>
<path id="XMLID_2_" d="m11.7 0.7c-0.2-0.6-1-0.3-1-0.3s-1 0.1-1.2 0.2c-0.1-0.1-0.3-0.3-0.6-0.5-0.6-0.2-1.1-0.1-1.2 0-0.5 0.1-1.6 0.4-2.7 1.3-1 0.9-1.4 2-1.5 2.5-0.4 0-1.4 0.1-2.3 0.9-0.7 0.5-1.1 1.2-1.2 1.6 0.3-0.1 0.8-0.2 1.5 0.1 0.7 0.1 1.1 0.5 1.3 0.7 0 0.8 0.2 2.2 0.9 3.8 0.7 1.5 1.7 2.5 2.3 3-0.1 0.7-0.1 1.3-0.1 1.7 0 0.5 0.1 0.8 0.2 1.2 0.3 0.6 0.8 0.9 1.1 1-0.1-0.4-0.1-1 0.1-1.6 0.1-0.6 0.4-1 0.6-1.3 0.1-0.2 0.4-0.6 0.9-0.8 0.5-0.3 0.9-0.3 1.2-0.4-0.1-0.2-0.3-0.3-0.6-0.5-1-0.6-2-0.4-2.4-0.3-0.3-0.6-0.7-1.6-0.7-2.9 0-2 0.8-3.5 1.2-4 0.2 0.2 0.5 0.5 0.7 0.8 0.3 0.4 0.4 0.9 0.6 1.2 0.2-0.4 0.4-1.1 0.4-2 0-0.8-0.2-1.5-0.4-1.9 0.5-0.4 1-0.8 1.6-1.3 0.4-0.3 0.8-0.8 1-1s0.5-0.6 0.3-1.2z" class="st0"/>
<path id="XMLID_1_" d="m10.2 8.8c0.1-0.4 0.6-0.2 0.6-0.2s0.6 0.1 0.8 0.1c0.1-0.1 0.2-0.2 0.4-0.3 0.4-0.1 0.7-0.1 0.8 0 0.3 0.1 1 0.2 1.7 0.9 0.8 0.7 1 1.6 1 1.8 0.3 0 0.9 0.1 1.5 0.6 0.4 0.4 0.6 0.8 0.7 1-0.2 0-0.5-0.1-0.9 0s-0.6 0.2-0.8 0.3c-0.1 0.6-0.3 1.5-0.8 2.4-0.4 0.9-0.9 1.6-1.3 2 0.1 0.4 0.1 0.8 0.1 1.1s0 0.6-0.1 0.8c-0.3 0.6-1.3 0.7-1.5 0.8 0-0.1 0.5-0.9 0-1.8-0.4-0.8-1.2-0.9-1.3-0.9 0.1-0.1 0.3-0.3 0.6-0.3 0.7-0.3 1.3-0.2 1.6-0.1 0.1-0.7 0.1-1.5 0-2.5-0.1-0.8-0.2-1.5-0.4-2.1-0.1 0.1-0.4 0.2-0.6 0.4s-0.3 0.5-0.3 0.7c-0.1-0.1-0.5-0.5-0.4-1.2s0.5-1.1 0.6-1.1c-0.3-0.3-0.7-0.5-1-0.9l-0.7-0.7c-0.2-0.2-0.4-0.4-0.3-0.8z" class="st0"/>
</svg>
