<svg width="214" height="43" xmlns="http://www.w3.org/2000/svg" xmlns:xlink="http://www.w3.org/1999/xlink"><defs><path id="a" d="M.03.082h213.764v42.54H.03V.082z"/></defs><g fill="none" fill-rule="evenodd"><path d="M46.917 33.973h.716v4.678h2.347v.568h-3.063v-5.245M51.29 37.57l-.57 1.648h-.733l1.874-5.243h.848l1.873 5.243h-.756l-.587-1.65H51.29zm1.81-.53l-.547-1.51c-.122-.342-.203-.653-.285-.957h-.016c-.083.304-.163.63-.278.95l-.537 1.517h1.662-.002zM55.485 39.218l-1.393-5.245h.75l.65 2.654c.164.654.31 1.307.408 1.813h.017c.09-.52.26-1.143.447-1.82l.734-2.647h.74l.67 2.662c.154.623.3 1.245.382 1.798h.016c.114-.576.27-1.16.44-1.813l.725-2.647h.727l-1.557 5.245h-.742l-.69-2.73a14.974 14.974 0 0 1-.36-1.712h-.017c-.088.52-.218 1.036-.422 1.713l-.782 2.728h-.74M62.464 33.973h2.957v.57h-2.24v1.743h2.07v.56h-2.07v2.372h-.716v-5.245M66.063 33.975h.718v5.243h-.717v-5.243zM67.65 34.044c.36-.062.88-.11 1.362-.11.757 0 1.254.142 1.588.43.27.232.433.59.433 1.003 0 .685-.457 1.143-1.028 1.33v.023c.416.14.67.515.8 1.06.178.73.308 1.237.422 1.438h-.733c-.09-.155-.212-.6-.36-1.25-.16-.726-.463-1-1.106-1.02h-.67v2.27h-.707v-5.174zm.71 2.388h.725c.758 0 1.24-.396 1.24-.995 0-.677-.515-.972-1.264-.972-.34 0-.578.022-.7.053v1.914zM76.294 36.915a44.83 44.83 0 0 1-.09-2.265h-.016a36.97 36.97 0 0 1-.693 1.992l-.97 2.544h-.537l-.897-2.496a23.42 23.42 0 0 1-.625-2.04h-.016a71.426 71.426 0 0 1-.107 2.32l-.148 2.248h-.675l.383-5.245h.903l.938 2.537c.228.645.406 1.223.554 1.768h.016c.147-.53.343-1.105.586-1.768l.978-2.537h.904l.343 5.245h-.7l-.13-2.303M79.2 33.973h.715v4.678h2.347v.568H79.2v-5.245M82.677 33.973h.716v4.678h2.347v.568h-3.063v-5.245M86.162 34.037c.342-.055.79-.103 1.36-.103.7 0 1.215.157 1.54.437.294.25.48.632.48 1.097 0 .476-.146.85-.422 1.122-.383.38-.987.574-1.678.574-.212 0-.408-.007-.57-.046v2.1h-.71v-5.18zm.71 2.528c.154.04.35.055.585.055.857 0 1.378-.405 1.378-1.112 0-.7-.52-1.036-1.296-1.036-.31 0-.547.023-.67.055v2.038z" fill="#8E488B"/><path d="M55.515 30.952c-6.03 0-9.76-4.19-9.76-9.453 0-5.057 3.866-9.51 9.622-9.51 3.234 0 5.235.89 7.154 2.437l-1.397 1.57c-1.48-1.23-3.123-2.094-5.84-2.094-4.246 0-7.29 3.43-7.29 7.542 0 4.4 2.934 7.647 7.594 7.647 2.193 0 4.22-.81 5.536-1.83V22.7h-5.84l.002-1.858h7.922v7.307c-1.782 1.52-4.468 2.802-7.702 2.802" fill="#828382"/><path d="M55.515 30.952c-6.03 0-9.76-4.19-9.76-9.453 0-5.057 3.866-9.51 9.622-9.51 3.234 0 5.235.89 7.154 2.437l-1.397 1.57c-1.48-1.23-3.123-2.094-5.84-2.094-4.246 0-7.29 3.43-7.29 7.542 0 4.4 2.934 7.647 7.594 7.647 2.193 0 4.22-.81 5.536-1.83V22.7h-5.84l.002-1.858h7.922v7.307c-1.782 1.52-4.468 2.802-7.702 2.802z" stroke="#828382" stroke-width=".419"/><path d="M71.88 30.952c-4.25 0-7.346-3.194-7.346-7.044 0-3.85 3.123-7.1 7.4-7.1 4.25 0 7.374 3.197 7.374 7.047 0 3.85-3.154 7.097-7.43 7.097m0-12.36c-3.07 0-5.18 2.33-5.18 5.263 0 2.934 2.25 5.292 5.236 5.292 3.07 0 5.21-2.333 5.21-5.24-.002-2.96-2.278-5.316-5.265-5.316" fill="#828382"/><path d="M71.88 30.952c-4.25 0-7.346-3.194-7.346-7.044 0-3.85 3.123-7.1 7.4-7.1 4.25 0 7.374 3.197 7.374 7.047 0 3.85-3.154 7.097-7.43 7.097zm0-12.36c-3.07 0-5.182 2.33-5.182 5.263 0 2.934 2.25 5.292 5.236 5.292 3.07 0 5.21-2.333 5.21-5.24-.002-2.96-2.278-5.316-5.265-5.316z" stroke="#828382" stroke-width=".419"/><path d="M82.898 30.64h-2.11V17.097h2.11v3.537c1.043-2.253 3.098-3.877 5.785-3.773v2.174h-.166c-3.096 0-5.618 2.123-5.618 6.208l-.002 5.398" fill="#828382"/><path d="M82.898 30.64h-2.11V17.097h2.11v3.537c1.043-2.253 3.098-3.877 5.785-3.773v2.174h-.166c-3.096 0-5.618 2.123-5.618 6.208l-.002 5.398z" stroke="#828382" stroke-width=".419"/><path d="M100.36 30.64v-2.725c-1.15 1.623-2.825 3.01-5.427 3.01-3.4 0-6.772-2.564-6.772-7.044 0-4.452 3.373-7.07 6.773-7.07 2.63 0 4.33 1.362 5.426 2.88v-8.17h2.11v19.12h-2.11zm-5.045-12.023c-2.74 0-4.988 1.938-4.988 5.238 0 3.22 2.302 5.264 4.988 5.264 2.633 0 5.127-2.095 5.127-5.265 0-3.143-2.494-5.238-5.127-5.238z" fill="#828382"/><path d="M100.36 30.64v-2.725c-1.15 1.623-2.825 3.01-5.427 3.01-3.4 0-6.772-2.564-6.772-7.044 0-4.452 3.373-7.07 6.773-7.07 2.63 0 4.33 1.362 5.426 2.88v-8.17h2.11v19.12h-2.11zm-5.045-12.023c-2.74 0-4.988 1.938-4.988 5.238 0 3.22 2.302 5.264 4.988 5.264 2.633 0 5.127-2.095 5.127-5.265 0-3.143-2.494-5.238-5.127-5.238z" stroke="#828382" stroke-width=".419"/><path d="M111.323 30.952c-4.248 0-7.346-3.194-7.346-7.044 0-3.85 3.125-7.1 7.4-7.1 4.25 0 7.375 3.197 7.375 7.047 0 3.85-3.153 7.097-7.428 7.097m0-12.36c-3.07 0-5.182 2.33-5.182 5.263 0 2.934 2.25 5.292 5.236 5.292 3.07 0 5.21-2.333 5.21-5.24 0-2.96-2.276-5.316-5.264-5.316" fill="#828382"/><path d="M111.323 30.952c-4.248 0-7.346-3.194-7.346-7.044 0-3.85 3.125-7.1 7.4-7.1 4.25 0 7.375 3.197 7.375 7.047 0 3.85-3.153 7.097-7.428 7.097zm0-12.36c-3.07 0-5.18 2.33-5.18 5.263 0 2.934 2.248 5.292 5.235 5.292 3.07 0 5.21-2.333 5.21-5.24 0-2.96-2.276-5.316-5.264-5.316z" stroke="#828382" stroke-width=".419"/><path d="M122.343 30.64h-2.11V17.097h2.11v2.357c.93-1.466 2.412-2.645 4.852-2.645 3.427 0 5.428 2.2 5.428 5.42v8.41h-2.11v-7.913c0-2.513-1.427-4.085-3.922-4.085-2.438 0-4.247 1.703-4.247 4.244v7.754" fill="#828382"/><path d="M122.343 30.64h-2.11V17.097h2.11v2.357c.93-1.466 2.412-2.645 4.852-2.645 3.427 0 5.428 2.2 5.428 5.42v8.41h-2.11v-7.913c0-2.513-1.427-4.085-3.922-4.085-2.438 0-4.247 1.703-4.247 4.244v7.754z" stroke="#828382" stroke-width=".419"/><path d="M154.48 16.887c0 2.41-1.534 3.64-3.043 4.27 2.275.654 4.11 1.91 4.11 4.45 0 3.173-2.767 5.033-6.96 5.033h-8.526V12.305h8.17c3.782 0 6.25 1.78 6.25 4.582m-2.194.29c0-1.834-1.507-3.013-4.248-3.013h-5.84v6.312h5.677c2.602 0 4.41-1.127 4.41-3.3m1.072 8.303c0-2.02-1.755-3.17-5.1-3.17H142.2v6.47h6.44c2.907 0 4.717-1.233 4.717-3.3" fill="#828382"/><path d="M154.48 16.887c0 2.41-1.534 3.64-3.043 4.27 2.275.654 4.11 1.91 4.11 4.45 0 3.173-2.767 5.033-6.96 5.033h-8.526V12.305h8.17c3.782 0 6.25 1.78 6.25 4.582zm-2.194.29c0-1.834-1.507-3.013-4.248-3.013h-5.84v6.312h5.677c2.602 0 4.41-1.127 4.41-3.3zm1.07 8.302c0-2.02-1.754-3.17-5.098-3.17h-6.06v6.47h6.443c2.907 0 4.717-1.233 4.717-3.3z" stroke="#828382" stroke-width=".419"/><path d="M159.275 30.64h-2.11V17.097h2.11v3.537c1.042-2.253 3.1-3.877 5.784-3.773v2.174h-.166c-3.096 0-5.62 2.123-5.62 6.208v5.398" fill="#828382"/><path d="M159.275 30.64h-2.11V17.097h2.11v3.537c1.042-2.253 3.1-3.877 5.784-3.773v2.174h-.166c-3.096 0-5.62 2.123-5.62 6.208v5.398z" stroke="#828382" stroke-width=".419"/><path d="M171.805 30.952c-4.25 0-7.347-3.194-7.347-7.044 0-3.85 3.124-7.1 7.4-7.1 4.25 0 7.374 3.197 7.374 7.047 0 3.85-3.15 7.097-7.427 7.097m0-12.36c-3.07 0-5.182 2.33-5.182 5.263 0 2.934 2.248 5.292 5.236 5.292 3.068 0 5.206-2.333 5.206-5.24 0-2.96-2.275-5.316-5.26-5.316" fill="#828382"/><path d="M171.805 30.952c-4.25 0-7.347-3.194-7.347-7.044 0-3.85 3.124-7.1 7.4-7.1 4.25 0 7.374 3.197 7.374 7.047 0 3.85-3.15 7.097-7.427 7.097zm0-12.36c-3.07 0-5.182 2.33-5.182 5.263 0 2.934 2.248 5.292 5.236 5.292 3.068 0 5.206-2.333 5.206-5.24 0-2.96-2.275-5.316-5.26-5.316z" stroke="#828382" stroke-width=".419"/><path d="M194.202 27.968l3.726-10.87h2.195l-4.99 13.646h-1.835l-3.81-10.687-3.84 10.687h-1.862l-4.964-13.646h2.25l3.727 10.87 3.81-10.923h1.754l3.838 10.923" fill="#828382"/><path d="M194.202 27.968l3.726-10.87h2.195l-4.99 13.646h-1.835l-3.81-10.687-3.84 10.687h-1.862l-4.964-13.646h2.25l3.727 10.87 3.81-10.923h1.754l3.838 10.923z" stroke="#828382" stroke-width=".419"/><path d="M203.41 30.64h-2.11V17.097h2.11v2.357c.934-1.466 2.413-2.645 4.853-2.645 3.427 0 5.427 2.2 5.427 5.42v8.41h-2.11v-7.913c0-2.513-1.425-4.085-3.92-4.085-2.44 0-4.25 1.703-4.25 4.244v7.754" fill="#828382"/><mask id="b" fill="#fff"><use xlink:href="#a"/></mask><path d="M203.41 30.64h-2.11V17.097h2.11v2.357c.934-1.466 2.413-2.645 4.853-2.645 3.427 0 5.427 2.2 5.427 5.42v8.41h-2.11v-7.913c0-2.513-1.425-4.085-3.92-4.085-2.44 0-4.25 1.703-4.25 4.244v7.754z" stroke="#828382" stroke-width=".419" mask="url(#b)"/><path d="M9.613 30.882c-5.31 0-9.613-4.266-9.613-9.53 0-5.26 4.303-9.526 9.613-9.526v19.056M10.611 42.56c.003 0 .002-30.735.002-30.735h8.833v25.748c0 5.078-6.32 5.212-8.834 4.988" fill="#8E488B" mask="url(#b)"/><path d="M30.288 11.82c5.31 0 9.613 4.267 9.613 9.53 0 5.263-4.303 9.53-9.612 9.53V11.82M29.29.143c-.003 0 0 30.737 0 30.737h-8.834V5.13c0-5.078 6.32-5.21 8.833-4.987" fill="#828382" mask="url(#b)"/></g></svg>