<?xml version="1.0" encoding="UTF-8" standalone="no"?>
<svg
   xmlns:dc="http://purl.org/dc/elements/1.1/"
   xmlns:cc="http://creativecommons.org/ns#"
   xmlns:rdf="http://www.w3.org/1999/02/22-rdf-syntax-ns#"
   xmlns:svg="http://www.w3.org/2000/svg"
   xmlns="http://www.w3.org/2000/svg"
   id="svg8"
   version="1.1"
   viewBox="0 0 76.956215 7.7046666"
   height="7.7046666mm"
   width="76.956215mm">
  <defs
     id="defs2" />
  <metadata
     id="metadata5">
    <rdf:RDF>
      <cc:Work
         rdf:about="">
        <dc:format>image/svg+xml</dc:format>
        <dc:type
           rdf:resource="http://purl.org/dc/dcmitype/StillImage" />
        <dc:title></dc:title>
      </cc:Work>
    </rdf:RDF>
  </metadata>
  <g
     transform="translate(-19.878404,-27.519363)"
     id="layer1">
    <g
       id="text4506"
       style="font-style:normal;font-variant:normal;font-weight:normal;font-stretch:normal;font-size:10.58333302px;line-height:1.25;font-family:FontAwesome;-inkscape-font-specification:FontAwesome;letter-spacing:0px;word-spacing:0px;fill:#000000;fill-opacity:1;stroke:none;stroke-width:0.26458332"
       aria-label="Burns Meet 2019">
      <path
         id="path4508"
         style="font-style:normal;font-variant:normal;font-weight:bold;font-stretch:normal;font-family:'PT Sans';-inkscape-font-specification:'PT Sans Bold';fill:#ffffff;stroke-width:0.26458332"
         d="m 24.863154,29.392613 q 0,0.275167 -0.07408,0.550333 -0.0635,0.275167 -0.22225,0.508 -0.15875,0.22225 -0.41275,0.402167 -0.254,0.169333 -0.613833,0.254 v 0.0635 q 0.3175,0.05292 0.60325,0.179917 0.28575,0.127 0.497416,0.34925 0.211667,0.22225 0.328084,0.53975 0.127,0.3175 0.127,0.751416 0,0.5715 -0.243417,0.994834 -0.243417,0.41275 -0.656167,0.677333 -0.402166,0.264583 -0.92075,0.391583 -0.518583,0.127 -1.068916,0.127 -0.179917,0 -0.465667,0 -0.275167,0 -0.60325,-0.02117 -0.3175,-0.01058 -0.656167,-0.04233 -0.328083,-0.03175 -0.60325,-0.09525 v -7.3025 q 0.201084,-0.03175 0.455084,-0.0635 0.264583,-0.03175 0.560916,-0.05292 0.296334,-0.02117 0.60325,-0.03175 0.3175,-0.01058 0.624417,-0.01058 0.518583,0 1.005417,0.08467 0.497416,0.07408 0.878416,0.275167 0.391584,0.201083 0.624417,0.560916 0.232833,0.359834 0.232833,0.910167 z m -2.645833,4.593167 q 0.264583,0 0.508,-0.0635 0.254,-0.0635 0.4445,-0.1905 0.1905,-0.137584 0.306917,-0.338667 0.116416,-0.201083 0.116416,-0.47625 0,-0.34925 -0.137583,-0.550333 -0.137583,-0.201084 -0.359833,-0.306917 -0.22225,-0.116417 -0.497417,-0.148167 -0.275167,-0.03175 -0.550333,-0.03175 h -0.772584 v 2.042584 q 0.05292,0.02117 0.169334,0.03175 0.116416,0.01058 0.243416,0.02117 0.137584,0 0.275167,0.01058 0.148167,0 0.254,0 z m -0.47625,-3.20675 q 0.148167,0 0.338667,-0.01058 0.201083,-0.01058 0.328083,-0.03175 0.402167,-0.127 0.687917,-0.381 0.296333,-0.254 0.296333,-0.66675 0,-0.275166 -0.105833,-0.455083 -0.105834,-0.179917 -0.28575,-0.28575 -0.169334,-0.105833 -0.391584,-0.148167 -0.22225,-0.04233 -0.465666,-0.04233 -0.275167,0 -0.508,0.01058 -0.232834,0.01058 -0.359834,0.03175 v 1.979084 z" />
      <path
         id="path4510"
         style="font-style:normal;font-variant:normal;font-weight:bold;font-stretch:normal;font-family:'PT Sans';-inkscape-font-specification:'PT Sans Bold';fill:#ffffff;stroke-width:0.26458332"
         d="m 27.432755,29.784196 v 3.005667 q 0,0.645583 0.148166,0.931333 0.15875,0.28575 0.60325,0.28575 0.391584,0 0.645584,-0.232833 0.264583,-0.232833 0.391583,-0.5715 v -3.418417 h 1.375833 v 3.683 q 0,0.433917 0.04233,0.85725 0.04233,0.41275 0.127,0.751417 h -1.037166 l -0.243417,-0.783167 h -0.04233 q -0.243417,0.402167 -0.677333,0.66675 -0.433917,0.264584 -1.026584,0.264584 -0.402166,0 -0.719666,-0.105834 -0.3175,-0.105833 -0.529167,-0.34925 -0.211667,-0.243416 -0.328083,-0.656166 -0.105834,-0.41275 -0.105834,-1.037167 v -3.291417 z" />
      <path
         id="path4512"
         style="font-style:normal;font-variant:normal;font-weight:bold;font-stretch:normal;font-family:'PT Sans';-inkscape-font-specification:'PT Sans Bold';fill:#ffffff;stroke-width:0.26458332"
         d="m 34.715245,31.075363 q -0.328083,-0.116417 -0.592667,-0.116417 -0.370416,0 -0.624416,0.201084 -0.243417,0.1905 -0.328084,0.497416 v 3.418417 h -1.375833 v -5.291667 h 1.068917 l 0.15875,0.6985 h 0.04233 q 0.179917,-0.391583 0.486833,-0.60325 0.306917,-0.211666 0.719667,-0.211666 0.275167,0 0.624417,0.116416 z" />
      <path
         id="path4514"
         style="font-style:normal;font-variant:normal;font-weight:bold;font-stretch:normal;font-family:'PT Sans';-inkscape-font-specification:'PT Sans Bold';fill:#ffffff;stroke-width:0.26458332"
         d="m 38.753448,35.075863 v -3.005667 q 0,-0.645583 -0.1905,-0.931333 -0.179916,-0.28575 -0.624416,-0.28575 -0.391584,0 -0.66675,0.232833 -0.264584,0.22225 -0.381,0.560917 v 3.429 h -1.375834 v -5.291667 h 1.090084 l 0.15875,0.6985 h 0.04233 q 0.243417,-0.338666 0.645583,-0.592666 0.402167,-0.254 1.037167,-0.254 0.391583,0 0.6985,0.105833 0.306917,0.105833 0.518583,0.34925 0.211667,0.243417 0.3175,0.66675 0.105834,0.41275 0.105834,1.026583 v 3.291417 z" />
      <path
         id="path4516"
         style="font-style:normal;font-variant:normal;font-weight:bold;font-stretch:normal;font-family:'PT Sans';-inkscape-font-specification:'PT Sans Bold';fill:#ffffff;stroke-width:0.26458332"
         d="m 43.472787,33.615363 q 0,-0.211667 -0.179917,-0.338667 -0.179916,-0.127 -0.4445,-0.232833 -0.264583,-0.105833 -0.582083,-0.211667 -0.3175,-0.116416 -0.582083,-0.306916 -0.264583,-0.201084 -0.4445,-0.497417 -0.179917,-0.306917 -0.179917,-0.783167 0,-0.783166 0.465667,-1.195916 0.465667,-0.41275 1.344083,-0.41275 0.60325,0 1.090083,0.127 0.486834,0.127 0.762,0.28575 l -0.306916,0.994833 q -0.243417,-0.09525 -0.613834,-0.201083 -0.370416,-0.105834 -0.751416,-0.105834 -0.613833,0 -0.613833,0.47625 0,0.1905 0.179916,0.306917 0.179917,0.116417 0.4445,0.22225 0.264583,0.09525 0.582083,0.211667 0.3175,0.116416 0.582084,0.306916 0.264583,0.179917 0.4445,0.47625 0.179916,0.296334 0.179916,0.762 0,0.804334 -0.518583,1.27 -0.508,0.455084 -1.534583,0.455084 -0.560917,0 -1.058333,-0.148167 -0.486834,-0.137583 -0.79375,-0.328083 l 0.381,-1.026584 q 0.243416,0.137584 0.645583,0.275167 0.402167,0.127 0.8255,0.127 0.306916,0 0.486833,-0.116417 0.1905,-0.116416 0.1905,-0.391583 z" />
      <path
         id="path4518"
         style="font-style:normal;font-variant:normal;font-weight:bold;font-stretch:normal;font-family:'PT Sans';-inkscape-font-specification:'PT Sans Bold';fill:#ffffff;stroke-width:0.26458332"
         d="m 54.212557,31.234113 0.15875,-1.471083 h -0.0635 l -0.455084,1.185333 -1.576916,2.76225 H 51.81014 L 50.148557,30.93778 49.68289,29.76303 h -0.05292 l 0.211667,1.4605 v 3.852333 H 48.465807 V 27.66753 h 1.322916 l 1.979084,3.386666 0.34925,0.846667 h 0.04233 l 0.3175,-0.867833 1.87325,-3.3655 h 1.312333 v 7.408333 h -1.449916 z" />
      <path
         id="path4520"
         style="font-style:normal;font-variant:normal;font-weight:bold;font-stretch:normal;font-family:'PT Sans';-inkscape-font-specification:'PT Sans Bold';fill:#ffffff;stroke-width:0.26458332"
         d="m 61.142324,34.62078 q -0.3175,0.254 -0.867834,0.433916 -0.53975,0.169334 -1.153583,0.169334 -1.280583,0 -1.87325,-0.740834 -0.592667,-0.751416 -0.592667,-2.053166 0,-1.397 0.66675,-2.0955 0.66675,-0.6985 1.87325,-0.6985 0.402167,0 0.783167,0.105833 0.381,0.105833 0.677333,0.34925 0.296334,0.243417 0.47625,0.656167 0.179917,0.41275 0.179917,1.026583 0,0.22225 -0.03175,0.47625 -0.02117,0.254 -0.07408,0.529167 h -3.175 q 0.03175,0.66675 0.338666,1.005416 0.3175,0.338667 1.016,0.338667 0.433917,0 0.772584,-0.127 0.34925,-0.137583 0.529166,-0.275167 z m -1.9685,-3.884084 q -0.53975,0 -0.804334,0.328084 -0.254,0.3175 -0.306916,0.85725 h 1.9685 q 0.04233,-0.5715 -0.179917,-0.878417 -0.211667,-0.306917 -0.677333,-0.306917 z" />
      <path
         id="path4522"
         style="font-style:normal;font-variant:normal;font-weight:bold;font-stretch:normal;font-family:'PT Sans';-inkscape-font-specification:'PT Sans Bold';fill:#ffffff;stroke-width:0.26458332"
         d="m 66.45466,34.62078 q -0.3175,0.254 -0.867834,0.433916 -0.53975,0.169334 -1.153583,0.169334 -1.280583,0 -1.87325,-0.740834 -0.592667,-0.751416 -0.592667,-2.053166 0,-1.397 0.66675,-2.0955 0.66675,-0.6985 1.87325,-0.6985 0.402167,0 0.783167,0.105833 0.381,0.105833 0.677333,0.34925 0.296334,0.243417 0.47625,0.656167 0.179917,0.41275 0.179917,1.026583 0,0.22225 -0.03175,0.47625 -0.02117,0.254 -0.07408,0.529167 h -3.175 q 0.03175,0.66675 0.338666,1.005416 0.3175,0.338667 1.016,0.338667 0.433917,0 0.772584,-0.127 0.34925,-0.137583 0.529166,-0.275167 z m -1.9685,-3.884084 q -0.53975,0 -0.804334,0.328084 -0.254,0.3175 -0.306916,0.85725 h 1.9685 q 0.04233,-0.5715 -0.179917,-0.878417 -0.211667,-0.306917 -0.677333,-0.306917 z" />
      <path
         id="path4524"
         style="font-style:normal;font-variant:normal;font-weight:bold;font-stretch:normal;font-family:'PT Sans';-inkscape-font-specification:'PT Sans Bold';fill:#ffffff;stroke-width:0.26458332"
         d="m 67.045344,29.784196 h 0.73025 v -0.994833 l 1.375834,-0.391583 v 1.386416 h 1.291166 v 1.164167 h -1.291166 v 2.032 q 0,0.550333 0.105833,0.79375 0.116417,0.232833 0.423333,0.232833 0.211667,0 0.359834,-0.04233 0.15875,-0.04233 0.34925,-0.127 l 0.243416,1.058333 q -0.28575,0.137584 -0.66675,0.232834 -0.381,0.09525 -0.772583,0.09525 -0.73025,0 -1.0795,-0.370417 -0.338667,-0.381 -0.338667,-1.23825 v -2.667 h -0.73025 z" />
      <path
         id="path4526"
         style="font-style:normal;font-variant:normal;font-weight:bold;font-stretch:normal;font-family:'PT Sans';-inkscape-font-specification:'PT Sans Bold';fill:#ffffff;stroke-width:0.26458332"
         d="m 78.406718,29.47728 q 0,0.53975 -0.201083,1.090083 -0.1905,0.550333 -0.497417,1.0795 -0.296333,0.529167 -0.66675,1.026583 -0.359833,0.486834 -0.709083,0.899584 l -0.560917,0.433916 v 0.05292 l 0.762,-0.148167 h 2.032 v 1.164167 H 74.109885 V 34.36678 q 0.254,-0.264584 0.5715,-0.613834 0.3175,-0.359833 0.635,-0.751416 0.328083,-0.402167 0.635,-0.8255 0.306916,-0.423334 0.550333,-0.846667 0.243417,-0.433917 0.381,-0.836083 0.148167,-0.402167 0.148167,-0.762 0,-0.433917 -0.254,-0.709084 -0.243417,-0.28575 -0.783167,-0.28575 -0.338667,0 -0.6985,0.148167 -0.34925,0.137583 -0.592667,0.359833 L 74.152218,28.27078 q 0.41275,-0.338667 0.931333,-0.53975 0.529167,-0.211667 1.23825,-0.211667 0.455084,0 0.836084,0.127 0.381,0.127 0.656166,0.370417 0.275167,0.243416 0.433917,0.613833 0.15875,0.359833 0.15875,0.846667 z" />
      <path
         id="path4528"
         style="font-style:normal;font-variant:normal;font-weight:bold;font-stretch:normal;font-family:'PT Sans';-inkscape-font-specification:'PT Sans Bold';fill:#ffffff;stroke-width:0.26458332"
         d="m 79.797433,31.361113 q 0,-1.947333 0.66675,-2.88925 0.66675,-0.9525 1.915583,-0.9525 1.3335,0 1.957917,0.941917 0.624417,0.931333 0.624417,2.899833 0,1.957917 -0.677334,2.910417 -0.66675,0.9525 -1.915583,0.9525 -1.322917,0 -1.947333,-0.994834 -0.624417,-1.005416 -0.624417,-2.868083 z m 1.375833,0 q 0,1.291167 0.275167,2.00025 0.28575,0.6985 0.931333,0.6985 0.624417,0 0.910167,-0.645583 0.296333,-0.645584 0.296333,-2.053167 0,-1.280583 -0.275166,-1.979083 -0.275167,-0.6985 -0.941917,-0.6985 -0.635,0 -0.92075,0.656166 -0.275167,0.656167 -0.275167,2.021417 z" />
      <path
         id="path4530"
         style="font-style:normal;font-variant:normal;font-weight:bold;font-stretch:normal;font-family:'PT Sans';-inkscape-font-specification:'PT Sans Bold';fill:#ffffff;stroke-width:0.26458332"
         d="m 86.437481,33.911696 h 1.471084 V 29.73128 l 0.15875,-0.719667 -0.508,0.624417 -0.941917,0.645583 -0.582083,-0.79375 2.413,-1.947333 h 0.772583 v 6.371166 h 1.439333 v 1.164167 h -4.22275 z" />
      <path
         id="path4532"
         style="font-style:normal;font-variant:normal;font-weight:bold;font-stretch:normal;font-family:'PT Sans';-inkscape-font-specification:'PT Sans Bold';fill:#ffffff;stroke-width:0.26458332"
         d="m 91.839283,29.98528 q 0,-0.53975 0.15875,-0.994834 0.169334,-0.455083 0.47625,-0.772583 0.3175,-0.328083 0.762,-0.508 0.455084,-0.1905 1.037167,-0.1905 1.195917,0 1.87325,0.719667 0.687916,0.709083 0.687916,2.074333 0,1.227667 -0.3175,2.12725 -0.306916,0.889 -0.836083,1.49225 -0.518583,0.592667 -1.2065,0.910167 -0.687916,0.3175 -1.449916,0.381 l -0.296334,-1.0795 q 0.582084,-0.07408 1.037167,-0.28575 0.455083,-0.211667 0.783167,-0.518584 0.328083,-0.3175 0.529166,-0.709083 0.211667,-0.402167 0.296334,-0.85725 -0.254,0.275167 -0.550334,0.381 -0.28575,0.105833 -0.772583,0.105833 -0.402167,0 -0.804333,-0.137583 -0.391584,-0.137583 -0.709084,-0.41275 -0.306916,-0.28575 -0.508,-0.709083 -0.1905,-0.433917 -0.1905,-1.016 z m 1.3335,-0.07408 q 0,0.60325 0.338667,0.910167 0.338667,0.306917 0.846667,0.306917 0.433916,0 0.709083,-0.137584 0.275167,-0.137583 0.423333,-0.338666 0.03175,-0.22225 0.03175,-0.423334 0,-0.296333 -0.07408,-0.582083 -0.07408,-0.28575 -0.232833,-0.508 -0.148167,-0.22225 -0.391584,-0.34925 -0.232833,-0.137583 -0.560916,-0.137583 -0.518584,0 -0.804334,0.338666 -0.28575,0.328084 -0.28575,0.92075 z" />
    </g>
  </g>
</svg>
