<?xml version="1.0" encoding="utf-8"?>
<!-- Generator: Adobe Illustrator 19.0.0, SVG Export Plug-In . SVG Version: 6.00 Build 0)  -->
<svg version="1.1" id="Layer_1" xmlns="http://www.w3.org/2000/svg" xmlns:xlink="http://www.w3.org/1999/xlink" x="0px" y="0px"
	 viewBox="-484.5 279.5 75 75" style="enable-background:new -484.5 279.5 75 75;" xml:space="preserve">
<path id="XMLID_2_" d="M-436.7,283.8c-0.8-2.2-3.5-1.2-3.5-1.2s-3.7,0.5-4.3,0.8c-0.4-0.5-1.2-1.2-2.3-1.7c-2-0.8-3.8-0.3-4.3-0.2
	c-1.7,0.3-5.8,1.4-9.5,4.8c-3.6,3.3-5,7.1-5.5,8.8c-1.3,0.1-5,0.4-8.3,3.2c-2.5,2-3.7,4.4-4.2,5.7c0.9-0.2,3-0.6,5.5,0.2
	c2.4,0.7,3.9,2.2,4.5,2.8c0.1,2.9,0.6,8,3.3,13.7c2.6,5.4,6,8.9,8.2,10.8c-0.4,2.5-0.4,4.6-0.3,6c0.1,1.9,0.2,3,0.8,4.3
	c1,2.1,2.9,3.2,3.8,3.7c-0.2-1.3-0.3-3.4,0.3-5.8c0.5-2,1.4-3.5,2-4.5c0.5-0.7,1.6-2,3.3-3s3.3-1.2,4.2-1.3c-0.5-0.6-1.2-1.2-2-1.7
	c-3.5-2.1-7.3-1.3-8.5-1c-1-2.1-2.4-5.7-2.5-10.3c-0.2-7.5,2.9-12.9,4.3-15c0.8,0.8,1.6,1.9,2.5,3.2c1,1.6,1.6,3.1,2,4.3
	c0.6-1.5,1.4-4,1.3-7.2c0-2.9-0.8-5.2-1.3-6.7c1.8-1.4,3.7-3,5.7-4.8c1.3-1.2,2.5-2.5,3.7-3.7C-437.5,286.6-435.9,285.9-436.7,283.8
	z"/>
<path id="XMLID_1_" d="M-442,312.8c0.5-1.4,2.2-0.7,2.2-0.7s2.3,0.3,2.8,0.5c0.3-0.3,0.7-0.8,1.5-1.1c1.3-0.5,2.4-0.2,2.8-0.1
	c1.1,0.2,3.7,0.8,6.1,3.1c2.7,2.6,3.4,5.6,3.5,6.6c0.9,0.1,3.2,0.4,5.3,2.3c1.4,1.3,2.1,2.7,2.4,3.5c-0.8-0.1-1.9-0.3-3.2-0.1
	c-1.3,0.2-2.2,0.6-2.9,0.9c-0.4,2.2-1.1,5.2-2.7,8.5c-1.5,3.2-3.3,5.6-4.7,7.3c0.3,1.6,0.3,2.9,0.2,3.8c-0.1,1.2-0.1,2-0.5,2.8
	c-1.2,2.3-4.5,2.6-5.2,2.7c0.1-0.2,1.7-3.3,0-6.4c-1.5-2.7-4.3-3.2-4.7-3.2c0.5-0.4,1.2-0.9,2-1.2c2.5-1.1,4.8-0.8,5.9-0.5
	c0.3-2.4,0.5-5.4,0.1-8.9c-0.3-2.8-0.8-5.3-1.3-7.4c-0.5,0.2-1.3,0.7-2,1.5c-0.9,1.1-1.2,2.3-1.3,2.8c-0.2-0.3-1.8-1.9-1.6-4.4
	c0.2-2.4,1.7-3.8,2-4c-1.2-0.9-2.4-1.9-3.6-3.1c-0.8-0.8-1.6-1.6-2.4-2.4C-441.5,314.6-442.5,314.1-442,312.8z"/>
<g id="XMLID_3_">
</g>
<g id="XMLID_4_">
</g>
<g id="XMLID_5_">
</g>
<g id="XMLID_6_">
</g>
<g id="XMLID_20_">
</g>
<g id="XMLID_21_">
</g>
<g id="XMLID_22_">
</g>
<g id="XMLID_23_">
</g>
<g id="XMLID_24_">
</g>
<g id="XMLID_25_">
</g>
<g id="XMLID_26_">
</g>
<g id="XMLID_27_">
</g>
<g id="XMLID_28_">
</g>
<g id="XMLID_29_">
</g>
<g id="XMLID_30_">
</g>
</svg>
