<?xml version="1.0" encoding="UTF-8" standalone="no"?>
<!-- Created with Inkscape (http://www.inkscape.org/) -->

<svg
   xmlns:dc="http://purl.org/dc/elements/1.1/"
   xmlns:cc="http://creativecommons.org/ns#"
   xmlns:rdf="http://www.w3.org/1999/02/22-rdf-syntax-ns#"
   xmlns:svg="http://www.w3.org/2000/svg"
   xmlns="http://www.w3.org/2000/svg"
   xmlns:sodipodi="http://sodipodi.sourceforge.net/DTD/sodipodi-0.dtd"
   xmlns:inkscape="http://www.inkscape.org/namespaces/inkscape"
   version="1.1"
   id="svg2"
   xml:space="preserve"
   width="175.49644mm"
   height="25.209269mm"
   viewBox="0 0 663.29366 95.279126"
   sodipodi:docname="chesterStoreLogox.svg"
   inkscape:version="0.92.2 (5c3e80d, 2017-08-06)"><metadata
     id="metadata8"><rdf:RDF><cc:Work
         rdf:about=""><dc:format>image/svg+xml</dc:format><dc:type
           rdf:resource="http://purl.org/dc/dcmitype/StillImage" /><dc:title></dc:title></cc:Work></rdf:RDF></metadata><defs
     id="defs6"><clipPath
       clipPathUnits="userSpaceOnUse"
       id="clipPath18"><path
         d="M 0,71.46 H 467.833 V 0 H 0 Z"
         id="path16"
         inkscape:connector-curvature="0" /></clipPath></defs><sodipodi:namedview
     pagecolor="#ffffff"
     bordercolor="#666666"
     borderopacity="1"
     objecttolerance="10"
     gridtolerance="10"
     guidetolerance="10"
     inkscape:pageopacity="0"
     inkscape:pageshadow="2"
     inkscape:window-width="1920"
     inkscape:window-height="1001"
     id="namedview4"
     showgrid="false"
     units="mm"
     showguides="false"
     inkscape:zoom="1.1286078"
     inkscape:cx="395.42013"
     inkscape:cy="15.557124"
     inkscape:window-x="-9"
     inkscape:window-y="-9"
     inkscape:window-maximized="1"
     inkscape:current-layer="text30" /><g
     id="g10"
     inkscape:groupmode="layer"
     inkscape:label="chesterLogo"
     transform="matrix(1.3333333,0,0,-1.3333333,-99.999998,195.12233)"><g
       id="g12"
       transform="translate(75,74.882006)"><g
         id="g14"
         clip-path="url(#clipPath18)"><g
           id="g20"
           transform="translate(42,69)"><path
             d="m 0,0 c -0.833,2.167 -3.5,1.167 -3.5,1.167 0,0 -3.663,-0.497 -4.333,-0.834 -0.405,0.458 -1.165,1.189 -2.334,1.667 -1.974,0.808 -3.762,0.341 -4.333,0.167 -1.727,-0.343 -5.767,-1.387 -9.5,-4.834 -3.62,-3.343 -4.997,-7.142 -5.5,-8.833 -1.303,-0.064 -4.96,-0.416 -8.333,-3.167 -2.495,-2.034 -3.664,-4.425 -4.167,-5.666 0.901,0.22 3.008,0.606 5.5,-0.167 2.386,-0.74 3.869,-2.153 4.5,-2.833 0.095,-2.937 0.638,-8.035 3.333,-13.667 2.578,-5.386 5.999,-8.911 8.167,-10.833 -0.422,-2.496 -0.419,-4.562 -0.333,-6 0.113,-1.896 0.193,-3.04 0.833,-4.334 1.041,-2.103 2.864,-3.188 3.833,-3.666 -0.177,1.277 -0.302,3.375 0.334,5.833 0.517,1.999 1.351,3.515 2,4.5 0.534,0.742 1.589,2.005 3.333,3 1.691,0.965 3.264,1.242 4.167,1.333 -0.517,0.568 -1.173,1.157 -2,1.667 -3.47,2.141 -7.335,1.301 -8.5,1 -1.018,2.12 -2.392,5.718 -2.5,10.333 -0.176,7.502 2.941,12.948 4.333,15 0.766,-0.805 1.635,-1.853 2.458,-3.166 1.009,-1.61 1.64,-3.125 2.042,-4.334 0.586,1.463 1.376,3.974 1.333,7.167 -0.039,2.933 -0.765,5.25 -1.333,6.667 1.818,1.409 3.725,3.013 5.667,4.833 1.324,1.241 2.907,2.876 3.666,3.667 0.938,1.173 2,2.166 1.167,4.333"
             style="fill:#383838;fill-opacity:1;fill-rule:nonzero;stroke:none"
             id="path22"
             inkscape:connector-curvature="0" /></g><g
           id="g24"
           transform="translate(36.7227,40.0054)"><path
             d="m 0,0 c 0.535,1.39 2.245,0.748 2.245,0.748 0,0 2.35,-0.318 2.78,-0.534 0.26,0.293 0.747,0.762 1.497,1.069 1.266,0.518 2.414,0.219 2.78,0.107 1.072,-0.199 3.714,-0.837 6.095,-3.101 2.688,-2.556 3.363,-5.59 3.547,-6.628 0.874,-0.088 3.236,-0.446 5.333,-2.333 1.41,-1.269 2.096,-2.685 2.417,-3.5 -0.754,0.145 -1.892,0.273 -3.25,0.083 -1.256,-0.175 -2.249,-0.56 -2.915,-0.88 -0.378,-2.205 -1.12,-5.182 -2.668,-8.453 -1.506,-3.181 -3.277,-5.592 -4.71,-7.264 0.271,-1.601 0.269,-2.926 0.214,-3.849 -0.069,-1.16 -0.142,-2.004 -0.535,-2.78 -1.157,-2.286 -4.527,-2.632 -5.219,-2.69 0.107,0.197 1.739,3.321 0,6.416 -1.496,2.662 -4.294,3.187 -4.667,3.25 0.511,0.424 1.174,0.879 2,1.25 2.469,1.111 4.812,0.767 5.855,0.541 0.294,2.417 0.451,5.434 0.145,8.876 -0.253,2.842 -0.763,5.325 -1.321,7.376 -0.487,-0.231 -1.289,-0.69 -2.012,-1.543 -0.941,-1.109 -1.232,-2.275 -1.334,-2.833 -0.25,0.264 -1.761,1.919 -1.583,4.417 0.17,2.38 1.749,3.773 2.042,4.022 C 5.57,-7.328 4.346,-6.299 3.101,-5.132 2.251,-4.336 1.648,-3.721 0.748,-2.78 -0.151,-1.839 -0.535,-1.39 0,0"
             style="fill:#8f8f8f;fill-opacity:1;fill-rule:nonzero;stroke:none"
             id="path26"
             inkscape:connector-curvature="0" /></g></g></g><g
       id="g4542"
       transform="translate(0,0.50624451)"><g
         aria-label="Chester-le-Street ASC "
         transform="scale(1,-1)"
         style="font-variant:normal;font-weight:normal;font-stretch:normal;font-size:42px;font-family:'Open Sans';-inkscape-font-specification:OpenSans;writing-mode:lr-tb;fill:#000000;fill-opacity:1;fill-rule:nonzero;stroke:none"
         id="text30"><path
           d="m 172.79347,-140.833 q -4.94238,0 -7.81347,3.30176 -2.85059,3.28125 -2.85059,9.00293 0,5.88574 2.74805,9.10547 2.76855,3.19921 7.875,3.19921 3.13769,0 7.15722,-1.12792 v 3.05566 q -3.11718,1.16894 -7.69043,1.16894 -6.62402,0 -10.23339,-4.01953 -3.58887,-4.01953 -3.58887,-11.42285 0,-4.63476 1.72265,-8.12109 1.74317,-3.48633 5.00391,-5.37305 3.28125,-1.88672 7.71094,-1.88672 4.71679,0 8.24414,1.72266 l -1.47656,2.99414 q -3.4043,-1.59961 -6.8086,-1.59961 z"
           style=""
           id="path4544" /><path
           d="m 201.31984,-113.5371 v -14.54004 q 0,-2.74805 -1.25098,-4.10156 -1.25097,-1.35352 -3.91699,-1.35352 -3.54785,0 -5.18848,1.92774 -1.62011,1.92773 -1.62011,6.3164 v 11.75098 h -3.4043 v -31.91016 h 3.4043 v 9.65918 q 0,1.74317 -0.16407,2.8916 h 0.20508 q 1.00489,-1.62011 2.85059,-2.54297 1.86621,-0.94335 4.24512,-0.94335 4.12207,0 6.17285,1.96875 2.07129,1.94824 2.07129,6.21386 v 14.66309 z"
           style=""
           id="path4546" /><path
           d="m 221.19191,-113.12695 q -4.9834,0 -7.875,-3.03515 -2.87109,-3.03516 -2.87109,-8.42871 0,-5.43457 2.66601,-8.63379 2.68653,-3.19922 7.19824,-3.19922 4.22461,0 6.68555,2.78906 2.46094,2.76856 2.46094,7.32129 v 2.15332 h -15.4834 q 0.10254,3.95801 1.98926,6.00879 1.90722,2.05078 5.35254,2.05078 3.62988,0 7.17773,-1.51758 v 3.03516 q -1.80469,0.7793 -3.4248,1.10742 -1.59961,0.34863 -3.87598,0.34863 z m -0.92285,-20.44628 q -2.70703,0 -4.32715,1.76367 -1.59961,1.76367 -1.88672,4.88086 h 11.75098 q 0,-3.21973 -1.43555,-4.92188 -1.43555,-1.72265 -4.10156,-1.72265 z"
           style=""
           id="path4548" /><path
           d="m 249.73878,-119.66894 q 0,3.1377 -2.33789,4.83985 -2.33789,1.70214 -6.5625,1.70214 -4.4707,0 -6.97265,-1.41503 v -3.15821 q 1.62012,0.82031 3.46582,1.29199 1.86621,0.47168 3.58887,0.47168 2.66601,0 4.10156,-0.84082 1.43554,-0.86132 1.43554,-2.60449 0,-1.3125 -1.14843,-2.23535 -1.12793,-0.94336 -4.42969,-2.21484 -3.1377,-1.16895 -4.4707,-2.03028 -1.3125,-0.88183 -1.96875,-1.98925 -0.63575,-1.10743 -0.63575,-2.64551 0,-2.74805 2.23536,-4.32715 2.23535,-1.59961 6.13183,-1.59961 3.62988,0 7.09571,1.47656 l -1.20997,2.76856 q -3.38378,-1.39453 -6.13183,-1.39453 -2.41992,0 -3.65039,0.75878 -1.23047,0.75879 -1.23047,2.0918 0,0.90235 0.45117,1.53809 0.47168,0.63574 1.49707,1.20996 1.02539,0.57422 3.9375,1.66113 3.99902,1.45606 5.39356,2.93262 1.41503,1.47656 1.41503,3.71191 z"
           style=""
           id="path4550" /><path
           d="m 262.51515,-115.93652 q 0.90235,0 1.74317,-0.12304 0.84082,-0.14356 1.333,-0.28711 v 2.60449 q -0.55371,0.2666 -1.64062,0.43066 -1.06641,0.18457 -1.92774,0.18457 -6.52148,0 -6.52148,-6.87011 v -13.3711 h -3.21973 v -1.64062 l 3.21973,-1.41504 1.43555,-4.79883 h 1.96875 v 5.20899 h 6.52148 v 2.6455 h -6.52148 v 13.22754 q 0,2.03028 0.96386,3.11719 0.96387,1.08691 2.64551,1.08691 z"
           style=""
           id="path4552" /><path
           d="m 279.59816,-113.12695 q -4.9834,0 -7.875,-3.03515 -2.87109,-3.03516 -2.87109,-8.42871 0,-5.43457 2.66601,-8.63379 2.68653,-3.19922 7.19824,-3.19922 4.22461,0 6.68555,2.78906 2.46094,2.76856 2.46094,7.32129 v 2.15332 h -15.4834 q 0.10254,3.95801 1.98926,6.00879 1.90722,2.05078 5.35254,2.05078 3.62988,0 7.17773,-1.51758 v 3.03516 q -1.80469,0.7793 -3.4248,1.10742 -1.59961,0.34863 -3.87598,0.34863 z m -0.92285,-20.44628 q -2.70703,0 -4.32715,1.76367 -1.59961,1.76367 -1.88672,4.88086 h 11.75098 q 0,-3.21973 -1.43555,-4.92188 -1.43555,-1.72265 -4.10156,-1.72265 z"
           style=""
           id="path4554" /><path
           d="m 303.89992,-136.42382 q 1.49707,0 2.68652,0.24609 l -0.47168,3.15821 q -1.39453,-0.30762 -2.46094,-0.30762 -2.72754,0 -4.67578,2.21484 -1.92773,2.21485 -1.92773,5.5166 v 12.0586 h -3.4043 v -22.47656 h 2.80957 l 0.38965,4.16308 h 0.16406 q 1.25098,-2.19433 3.01465,-3.38379 1.76367,-1.18945 3.87598,-1.18945 z"
           style=""
           id="path4556" /><path
           d="m 308.90382,-123.2373 v -3.11718 h 10.06934 v 3.11718 z"
           style=""
           id="path4558" /><path
           d="m 327.73,-113.5371 h -3.4043 v -31.91016 h 3.4043 z"
           style=""
           id="path4560" /><path
           d="m 344.48488,-113.12695 q -4.9834,0 -7.875,-3.03515 -2.8711,-3.03516 -2.8711,-8.42871 0,-5.43457 2.66602,-8.63379 2.68652,-3.19922 7.19824,-3.19922 4.22461,0 6.68555,2.78906 2.46094,2.76856 2.46094,7.32129 v 2.15332 h -15.4834 q 0.10254,3.95801 1.98926,6.00879 1.90722,2.05078 5.35254,2.05078 3.62988,0 7.17773,-1.51758 v 3.03516 q -1.80469,0.7793 -3.4248,1.10742 -1.59961,0.34863 -3.87598,0.34863 z m -0.92285,-20.44628 q -2.70703,0 -4.32715,1.76367 -1.59961,1.76367 -1.88672,4.88086 h 11.75098 q 0,-3.21973 -1.43555,-4.92188 -1.43555,-1.72265 -4.10156,-1.72265 z"
           style=""
           id="path4562" /><path
           d="m 356.64601,-123.2373 v -3.11718 h 10.06934 v 3.11718 z"
           style=""
           id="path4564" /><path
           d="m 389.49953,-121.51464 q 0,3.95801 -2.8711,6.17285 -2.87109,2.21484 -7.79297,2.21484 -5.33203,0 -8.20312,-1.37402 v -3.36328 q 1.8457,0.7793 4.01953,1.23047 2.17383,0.45117 4.30664,0.45117 3.48633,0 5.25,-1.3125 1.76367,-1.33301 1.76367,-3.69141 0,-1.55859 -0.63574,-2.54296 -0.61523,-1.00489 -2.0918,-1.84571 -1.45605,-0.84082 -4.45019,-1.90722 -4.18359,-1.49707 -5.98828,-3.54786 -1.78418,-2.05078 -1.78418,-5.35253 0,-3.46583 2.60449,-5.51661 2.60449,-2.05078 6.89063,-2.05078 4.4707,0 8.22363,1.64063 l -1.08692,3.03515 q -3.71191,-1.55859 -7.21875,-1.55859 -2.76855,0 -4.32714,1.18945 -1.5586,1.18946 -1.5586,3.30176 0,1.55859 0.57422,2.56348 0.57422,0.98437 1.92773,1.82519 1.37403,0.82032 4.1836,1.8252 4.7168,1.68164 6.48047,3.60937 1.78418,1.92774 1.78418,5.00391 z"
           style=""
           id="path4566" /><path
           d="m 402.37843,-115.93652 q 0.90235,0 1.74317,-0.12304 0.84082,-0.14356 1.33301,-0.28711 v 2.60449 q -0.55372,0.2666 -1.64063,0.43066 -1.06641,0.18457 -1.92773,0.18457 -6.52149,0 -6.52149,-6.87011 v -13.3711 h -3.21973 v -1.64062 l 3.21973,-1.41504 1.43555,-4.79883 h 1.96875 v 5.20899 h 6.52148 v 2.6455 h -6.52148 v 13.22754 q 0,2.03028 0.96387,3.11719 0.96386,1.08691 2.6455,1.08691 z"
           style=""
           id="path4568" /><path
           d="m 420.22023,-136.42382 q 1.49707,0 2.68652,0.24609 l -0.47168,3.15821 q -1.39453,-0.30762 -2.46093,-0.30762 -2.72754,0 -4.67578,2.21484 -1.92774,2.21485 -1.92774,5.5166 v 12.0586 h -3.4043 v -22.47656 h 2.80957 l 0.38965,4.16308 h 0.16407 q 1.25097,-2.19433 3.01464,-3.38379 1.76368,-1.18945 3.87598,-1.18945 z"
           style=""
           id="path4570" /><path
           d="m 436.60597,-113.12695 q -4.9834,0 -7.875,-3.03515 -2.87109,-3.03516 -2.87109,-8.42871 0,-5.43457 2.66601,-8.63379 2.68653,-3.19922 7.19825,-3.19922 4.22461,0 6.68554,2.78906 2.46094,2.76856 2.46094,7.32129 v 2.15332 h -15.4834 q 0.10254,3.95801 1.98926,6.00879 1.90723,2.05078 5.35254,2.05078 3.62988,0 7.17773,-1.51758 v 3.03516 q -1.80468,0.7793 -3.4248,1.10742 -1.59961,0.34863 -3.87598,0.34863 z m -0.92285,-20.44628 q -2.70703,0 -4.32715,1.76367 -1.59961,1.76367 -1.88672,4.88086 h 11.75098 q 0,-3.21973 -1.43555,-4.92188 -1.43554,-1.72265 -4.10156,-1.72265 z"
           style=""
           id="path4572" /><path
           d="m 460.14894,-113.12695 q -4.9834,0 -7.875,-3.03515 -2.87109,-3.03516 -2.87109,-8.42871 0,-5.43457 2.66601,-8.63379 2.68653,-3.19922 7.19825,-3.19922 4.2246,0 6.68554,2.78906 2.46094,2.76856 2.46094,7.32129 v 2.15332 h -15.4834 q 0.10254,3.95801 1.98926,6.00879 1.90723,2.05078 5.35254,2.05078 3.62988,0 7.17773,-1.51758 v 3.03516 q -1.80469,0.7793 -3.4248,1.10742 -1.59961,0.34863 -3.87598,0.34863 z m -0.92285,-20.44628 q -2.70703,0 -4.32715,1.76367 -1.59961,1.76367 -1.88672,4.88086 h 11.75098 q 0,-3.21973 -1.43555,-4.92188 -1.43554,-1.72265 -4.10156,-1.72265 z"
           style=""
           id="path4574" /><path
           d="m 481.45656,-115.93652 q 0.90234,0 1.74316,-0.12304 0.84082,-0.14356 1.33301,-0.28711 v 2.60449 q -0.55371,0.2666 -1.64062,0.43066 -1.06641,0.18457 -1.92774,0.18457 -6.52148,0 -6.52148,-6.87011 v -13.3711 h -3.21973 v -1.64062 l 3.21973,-1.41504 1.43554,-4.79883 h 1.96875 v 5.20899 h 6.52149 v 2.6455 h -6.52149 v 13.22754 q 0,2.03028 0.96387,3.11719 0.96387,1.08691 2.64551,1.08691 z"
           style=""
           id="path4576" /><path
           d="m 519.31398,-113.5371 -3.73242,-9.53613 h -12.01758 l -3.69141,9.53613 h -3.52734 l 11.85352,-30.10547 h 2.93261 l 11.792,30.10547 z m -4.81934,-12.67383 -3.48632,-9.29004 q -0.67676,-1.76367 -1.39454,-4.32715 -0.45117,1.96875 -1.29199,4.32715 l -3.52734,9.29004 z"
           style=""
           id="path4578" /><path
           d="m 543.96437,-121.51464 q 0,3.95801 -2.87109,6.17285 -2.8711,2.21484 -7.79297,2.21484 -5.33203,0 -8.20313,-1.37402 v -3.36328 q 1.84571,0.7793 4.01953,1.23047 2.17383,0.45117 4.30665,0.45117 3.48632,0 5.25,-1.3125 1.76367,-1.33301 1.76367,-3.69141 0,-1.55859 -0.63575,-2.54296 -0.61523,-1.00489 -2.09179,-1.84571 -1.45606,-0.84082 -4.4502,-1.90722 -4.18359,-1.49707 -5.98828,-3.54786 -1.78418,-2.05078 -1.78418,-5.35253 0,-3.46583 2.60449,-5.51661 2.6045,-2.05078 6.89063,-2.05078 4.4707,0 8.22363,1.64063 l -1.08691,3.03515 q -3.71192,-1.55859 -7.21875,-1.55859 -2.76856,0 -4.32715,1.18945 -1.55859,1.18946 -1.55859,3.30176 0,1.55859 0.57421,2.56348 0.57422,0.98437 1.92774,1.82519 1.37402,0.82032 4.18359,1.8252 4.7168,1.68164 6.48047,3.60937 1.78418,1.92774 1.78418,5.00391 z"
           style=""
           id="path4580" /><path
           d="m 562.9341,-140.833 q -4.94239,0 -7.81348,3.30176 -2.85059,3.28125 -2.85059,9.00293 0,5.88574 2.74805,9.10547 2.76856,3.19921 7.875,3.19921 3.1377,0 7.15723,-1.12792 v 3.05566 q -3.11719,1.16894 -7.69043,1.16894 -6.62402,0 -10.2334,-4.01953 -3.58887,-4.01953 -3.58887,-11.42285 0,-4.63476 1.72266,-8.12109 1.74316,-3.48633 5.00391,-5.37305 3.28125,-1.88672 7.71093,-1.88672 4.7168,0 8.24414,1.72266 l -1.47656,2.99414 q -3.4043,-1.59961 -6.80859,-1.59961 z"
           style=""
           id="path4582" /></g><g
         aria-label="Online Store"
         transform="scale(1,-1)"
         style="font-style:italic;font-variant:normal;font-weight:600;font-stretch:normal;font-size:42px;font-family:'Open Sans Semibold';-inkscape-font-specification:OpenSans-SemiboldItalic;writing-mode:lr-tb;fill:#e20000;fill-opacity:1;fill-rule:nonzero;stroke:none"
         id="text34"><path
           d="m 186.73878,-94.082771 q 0,5.721679 -1.94824,10.192383 -1.94824,4.470703 -5.37304,6.808593 -3.4043,2.317383 -7.91602,2.317383 -5.31152,0 -8.22363,-3.055664 -2.91211,-3.076172 -2.91211,-8.490234 0,-5.475586 2.00976,-9.987305 2.03028,-4.532225 5.53711,-6.931645 3.50684,-2.39941 7.95703,-2.39941 5.14747,0 7.99805,3.05566 2.87109,3.055668 2.87109,8.490239 z M 175.48,-101.42457 q -2.83008,0 -5.12696,1.968752 -2.29687,1.96875 -3.60937,5.475586 -1.29199,3.486328 -1.29199,7.628906 0,3.547852 1.66113,5.475586 1.68164,1.927734 4.67578,1.927734 2.83008,0 5.08594,-1.948242 2.27636,-1.96875 3.52734,-5.43457 1.27149,-3.486328 1.27149,-7.710938 0,-3.486328 -1.62012,-5.43457 -1.62012,-1.948244 -4.57324,-1.948244 z"
           style=""
           id="path4585" /><path
           d="m 202.42726,-75.174568 2.91211,-13.78125 q 0.36914,-1.845703 0.36914,-2.686524 0,-2.686523 -2.64551,-2.686523 -1.47656,0 -2.91211,1.168945 -1.43554,1.168946 -2.58398,3.383789 -1.14844,2.194336 -1.72266,4.983399 l -2.00976,9.618164 h -4.83985 l 4.83985,-22.681641 h 3.77344 l -0.43067,4.204102 h 0.18457 q 1.70215,-2.419922 3.50684,-3.506836 1.80469,-1.107422 3.91699,-1.107422 2.74805,0 4.24512,1.558594 1.51758,1.558593 1.51758,4.429687 0,1.415039 -0.47168,3.711914 l -2.80957,13.391602 z"
           style=""
           id="path4587" /><path
           d="m 218.56691,-75.174568 h -4.79883 l 6.76758,-31.910152 h 4.81934 z"
           style=""
           id="path4589" /><path
           d="m 231.1382,-103.43433 q 0,-1.39454 0.7998,-2.25586 0.79981,-0.86133 2.25586,-0.86133 1.08692,0 1.76367,0.55371 0.67676,0.5332 0.67676,1.64062 0,1.45606 -0.82031,2.29688 -0.82031,0.84082 -2.15332,0.84082 -1.08691,0 -1.80469,-0.5332 -0.71777,-0.53321 -0.71777,-1.68164 z m -0.96387,28.259762 h -4.83984 l 4.83984,-22.681641 h 4.81934 z"
           style=""
           id="path4591" /><path
           d="m 250.33351,-75.174568 2.91211,-13.78125 q 0.36914,-1.845703 0.36914,-2.686524 0,-2.686523 -2.64551,-2.686523 -1.47656,0 -2.91211,1.168945 -1.43554,1.168946 -2.58398,3.383789 -1.14844,2.194336 -1.72266,4.983399 l -2.00976,9.618164 h -4.83985 l 4.83985,-22.681641 h 3.77344 l -0.43067,4.204102 h 0.18457 q 1.70215,-2.419922 3.50684,-3.506836 1.80469,-1.107422 3.91699,-1.107422 2.74805,0 4.24512,1.558594 1.51758,1.558593 1.51758,4.429687 0,1.415039 -0.47168,3.711914 l -2.80957,13.391602 z"
           style=""
           id="path4593" /><path
           d="m 274.32765,-94.574959 q -1.96875,0 -3.71191,1.763672 -1.72266,1.763672 -2.48145,4.655274 h 0.59473 q 3.85547,0 6.0293,-1.086915 2.17382,-1.107421 2.17382,-3.117187 0,-1.045898 -0.65625,-1.620117 -0.65625,-0.594727 -1.94824,-0.594727 z m -3.11719,19.810547 q -4.04003,0 -6.3164,-2.276367 -2.25586,-2.276367 -2.25586,-6.357422 0,-4.060547 1.5791,-7.546875 1.59961,-3.506836 4.30664,-5.414062 2.72754,-1.907227 6.09082,-1.907227 3.30176,0 5.12695,1.49707 1.84571,1.476563 1.84571,4.204102 0,3.732422 -3.42481,5.844726 -3.40429,2.091797 -9.7207,2.091797 h -0.88184 l -0.041,0.635742 v 0.594727 q 0,2.276367 1.14844,3.568359 1.16894,1.291993 3.46582,1.291993 1.47656,0 2.93261,-0.389649 1.45606,-0.389648 3.44532,-1.333008 v 3.834961 q -1.96875,0.902344 -3.62989,1.271485 -1.64062,0.389648 -3.6709,0.389648 z"
           style=""
           id="path4595" /><path
           d="m 312.75929,-83.951912 q 0,4.306641 -2.97363,6.74707 -2.95313,2.44043 -8.16211,2.44043 -4.30664,0 -7.13672,-1.538086 v -4.59375 q 3.54785,1.989258 7.17774,1.989258 2.80957,0 4.42968,-1.189453 1.62012,-1.209961 1.62012,-3.342774 0,-1.415039 -0.84082,-2.501953 -0.84082,-1.107422 -3.52734,-2.80957 -2.15332,-1.374023 -3.17871,-2.501953 -1.02539,-1.12793 -1.57911,-2.460938 -0.5332,-1.353515 -0.5332,-2.973632 0,-2.625 1.25098,-4.655277 1.27148,-2.03027 3.56836,-3.13769 2.31738,-1.10742 5.20898,-1.10742 4.2041,0 7.81348,1.88671 l -1.76367,3.916997 q -3.30176,-1.599607 -6.04981,-1.599607 -2.23535,0 -3.58887,1.20996 -1.35351,1.189452 -1.35351,3.117186 0,0.963867 0.30762,1.702148 0.30761,0.717774 0.94336,1.353516 0.65625,0.615234 2.76855,1.948242 3.17871,1.989258 4.38867,3.855469 1.20996,1.845703 1.20996,4.245117 z"
           style=""
           id="path4597" /><path
           d="m 324.67433,-78.660896 q 1.39453,0 3.09668,-0.635742 v 3.65039 q -0.71777,0.348633 -1.94824,0.615235 -1.23047,0.266601 -2.46094,0.266601 -5.61914,0 -5.61914,-5.06543 0,-1.168945 0.32813,-2.686523 l 2.48144,-11.689453 H 317.23 l 0.43066,-2.25586 3.89648,-1.68164 2.64551,-4.757812 h 2.99414 l -1.0664,5.044921 h 5.72168 l -0.79981,3.650391 h -5.68066 l -2.50196,11.730469 q -0.2666,1.127929 -0.2666,1.886718 0,0.881836 0.5127,1.415039 0.51269,0.512696 1.55859,0.512696 z"
           style=""
           id="path4599" /><path
           d="m 348.03273,-89.571053 q 0,-2.194335 -1.00488,-3.424804 -1.00489,-1.250977 -2.8711,-1.250977 -1.90722,0 -3.4248,1.476563 -1.49707,1.456054 -2.33789,3.978515 -0.82031,2.501953 -0.82031,5.352539 0,2.276368 1.00488,3.486329 1.02539,1.20996 3.01465,1.20996 1.8457,0 3.32226,-1.394531 1.47657,-1.394531 2.29688,-3.896484 0.82031,-2.522461 0.82031,-5.53711 z m 4.86035,0.205079 q 0,4.142578 -1.49707,7.546875 -1.49707,3.383789 -4.12207,5.208984 -2.60449,1.804687 -6.00879,1.804687 -3.9375,0 -6.25488,-2.33789 -2.31738,-2.358399 -2.31738,-6.398438 0,-4.081054 1.45605,-7.485351 1.47656,-3.404297 4.12207,-5.291016 2.64551,-1.907226 6.11133,-1.907226 3.99902,0 6.25488,2.378906 2.25586,2.378906 2.25586,6.480469 z"
           style=""
           id="path4601" /><path
           d="m 371.22707,-98.266365 q 1.27148,0 2.21484,0.246094 l -1.0459,4.491211 q -1.10742,-0.28711 -2.0918,-0.28711 -2.58398,0 -4.61425,2.317383 -2.03028,2.317383 -2.83008,6.070313 l -2.17383,10.253906 h -4.83984 l 4.83984,-22.681641 h 3.77344 l -0.43067,4.204102 h 0.18457 q 1.70215,-2.460938 3.4043,-3.527344 1.70215,-1.086914 3.60938,-1.086914 z"
           style=""
           id="path4603" /><path
           d="m 385.64406,-94.574959 q -1.96875,0 -3.71192,1.763672 -1.72265,1.763672 -2.48144,4.655274 h 0.59473 q 3.85546,0 6.02929,-1.086915 2.17383,-1.107421 2.17383,-3.117187 0,-1.045898 -0.65625,-1.620117 -0.65625,-0.594727 -1.94824,-0.594727 z m -3.11719,19.810547 q -4.04004,0 -6.31641,-2.276367 -2.25585,-2.276367 -2.25585,-6.357422 0,-4.060547 1.5791,-7.546875 1.59961,-3.506836 4.30664,-5.414062 2.72754,-1.907227 6.09082,-1.907227 3.30176,0 5.12695,1.49707 1.8457,1.476563 1.8457,4.204102 0,3.732422 -3.4248,5.844726 -3.4043,2.091797 -9.7207,2.091797 h -0.88184 l -0.041,0.635742 v 0.594727 q 0,2.276367 1.14844,3.568359 1.16895,1.291993 3.46582,1.291993 1.47656,0 2.93262,-0.389649 1.45605,-0.389648 3.44531,-1.333008 v 3.834961 q -1.96875,0.902344 -3.62988,1.271485 -1.64063,0.389648 -3.6709,0.389648 z"
           style=""
           id="path4605" /></g></g></g></svg>