<?xml version="1.0" encoding="UTF-8" standalone="no"?>
<svg id="Layer_1" xmlns="http://www.w3.org/2000/svg" viewBox="0 0 438.2 71.5">
 <style type="text/css">.st0{fill:#383838;}
	.st1{fill:#8F8F8F;}
	.st2{fill:none;}
	.st3{fill:#E20000;}</style>
 <path id="XMLID_2_" d="m42 2.5c-0.8-2.2-3.5-1.2-3.5-1.2s-3.7 0.5-4.3 0.8c-0.4-0.5-1.2-1.2-2.3-1.7-2-0.8-3.8-0.3-4.3-0.2-1.7 0.3-5.8 1.4-9.5 4.8-3.6 3.3-5 7.1-5.5 8.8-1.3 0.1-5 0.4-8.3 3.2-2.5 2-3.7 4.4-4.2 5.7 0.9-0.2 3-0.6 5.5 0.2 2.4 0.7 3.9 2.2 4.5 2.8 0.1 2.9 0.6 8 3.3 13.7 2.6 5.4 6 8.9 8.2 10.8-0.4 2.5-0.4 4.6-0.3 6 0.1 1.9 0.2 3 0.8 4.3 1 2.1 2.9 3.2 3.8 3.7-0.2-1.3-0.3-3.4 0.3-5.8 0.5-2 1.4-3.5 2-4.5 0.5-0.7 1.6-2 3.3-3s3.3-1.2 4.2-1.3c-0.5-0.6-1.2-1.2-2-1.7-3.5-2.1-7.3-1.3-8.5-1-1-2.1-2.4-5.7-2.5-10.3-0.2-7.5 2.9-12.9 4.3-15 0.8 0.8 1.6 1.9 2.5 3.2 1 1.6 1.6 3.1 2 4.3 0.6-1.5 1.4-4 1.3-7.2 0-2.9-0.8-5.2-1.3-6.7 1.8-1.4 3.7-3 5.7-4.8 1.3-1.2 2.5-2.5 3.7-3.7 0.3-1.4 1.9-2.1 1.1-4.2z" class="st0"/>
 <path id="XMLID_1_" d="m36.7 31.5c0.5-1.4 2.2-0.7 2.2-0.7s2.3 0.3 2.8 0.5c0.3-0.3 0.7-0.8 1.5-1.1 1.3-0.5 2.4-0.2 2.8-0.1 1.1 0.2 3.7 0.8 6.1 3.1 2.7 2.6 3.4 5.6 3.5 6.6 0.9 0.1 3.2 0.4 5.3 2.3 1.4 1.3 2.1 2.7 2.4 3.5-0.8-0.1-1.9-0.3-3.2-0.1s-2.2 0.6-2.9 0.9c-0.4 2.2-1.1 5.2-2.7 8.5-1.5 3.2-3.3 5.6-4.7 7.3 0.3 1.6 0.3 2.9 0.2 3.8-0.1 1.2-0.1 2-0.5 2.8-1.2 2.3-4.5 2.6-5.2 2.7 0.1-0.2 1.7-3.3 0-6.4-1.5-2.7-4.3-3.2-4.7-3.2 0.5-0.4 1.2-0.9 2-1.2 2.5-1.1 4.8-0.8 5.9-0.5 0.3-2.4 0.5-5.4 0.1-8.9-0.3-2.8-0.8-5.3-1.3-7.4-0.5 0.2-1.3 0.7-2 1.5-0.9 1.1-1.2 2.3-1.3 2.8-0.2-0.3-1.8-1.9-1.6-4.4 0.2-2.4 1.7-3.8 2-4-1.2-0.9-2.4-1.9-3.6-3.1l-2.4-2.4c-0.2-1-1.2-1.5-0.7-2.8z" class="st1"/>
 <g id="XMLID_3_">
  <rect id="XMLID_50_" class="st2" height="35.9" width="265.7" y="18.2" x="70.5"/>
  <path id="XMLID_7_" d="m85 22.1c-2.8 0-5.1 0.9-6.7 2.8s-2.5 4.5-2.5 7.7c0 3.4 0.8 6 2.4 7.8s3.8 2.8 6.7 2.8c1.8 0 3.8-0.3 6.1-1v2.6c-1.8 0.7-4 1-6.6 1-3.8 0-6.7-1.1-8.8-3.4s-3.1-5.6-3.1-9.8c0-2.6 0.5-5 1.5-7s2.4-3.5 4.3-4.6 4.1-1.6 6.6-1.6c2.7 0 5.1 0.5 7.1 1.5l-1.3 2.6c-1.8-0.9-3.7-1.4-5.7-1.4z"/>
  <path id="XMLID_17_" d="m108.3 45.5v-12.4c0-1.6-0.4-2.7-1.1-3.5s-1.8-1.2-3.4-1.2c-2 0-3.5 0.6-4.4 1.7s-1.4 2.9-1.4 5.4v10.1h-2.9v-27.4h2.9v8.3c0 1 0 1.8-0.1 2.5h0.2c0.6-0.9 1.4-1.7 2.5-2.2s2.3-0.8 3.6-0.8c2.4 0 4.1 0.6 5.3 1.7s1.8 2.9 1.8 5.3v12.6h-3z"/>
  <path id="XMLID_19_" d="m124.2 45.9c-2.8 0-5.1-0.9-6.7-2.6s-2.5-4.1-2.5-7.2c0-3.1 0.8-5.6 2.3-7.4s3.6-2.7 6.2-2.7c2.4 0 4.3 0.8 5.7 2.4s2.1 3.7 2.1 6.3v1.8h-13.3c0.1 2.3 0.6 4 1.7 5.2s2.6 1.8 4.6 1.8c2.1 0 4.1-0.4 6.2-1.3v2.6c-1 0.4-2 0.8-2.9 1s-2.1 0.1-3.4 0.1zm-0.8-17.5c-1.5 0-2.8 0.5-3.7 1.5s-1.5 2.4-1.6 4.2h10.1c0-1.8-0.4-3.2-1.2-4.2s-2-1.5-3.6-1.5z"/>
  <path id="XMLID_22_" d="m147.6 40.3c0 1.8-0.7 3.2-2 4.1s-3.2 1.5-5.6 1.5c-2.6 0-4.5-0.4-6-1.2v-2.7c0.9 0.5 1.9 0.8 3 1.1s2.1 0.4 3.1 0.4c1.5 0 2.7-0.2 3.5-0.7s1.2-1.2 1.2-2.2c0-0.8-0.3-1.4-1-1.9s-1.9-1.2-3.8-1.9c-1.8-0.7-3.1-1.3-3.8-1.7s-1.3-1.1-1.7-1.7-0.6-1.4-0.6-2.3c0-1.6 0.6-2.8 1.9-3.7s3-1.4 5.3-1.4c2.1 0 4.1 0.4 6.1 1.3l-1 2.4c-1.9-0.8-3.7-1.2-5.3-1.2-1.4 0-2.4 0.2-3.1 0.7s-1.1 1-1.1 1.8c0 0.5 0.1 1 0.4 1.3s0.7 0.7 1.3 1 1.7 0.8 3.4 1.4c2.3 0.8 3.8 1.7 4.6 2.5s1.2 1.8 1.2 3.1z"/>
  <path id="XMLID_24_" d="m157.4 43.5c0.5 0 1 0 1.5-0.1s0.9-0.2 1.1-0.2v2.2c-0.3 0.2-0.8 0.3-1.4 0.4s-1.2 0.1-1.7 0.1c-3.7 0-5.6-2-5.6-5.9v-11.5h-2.8v-1.4l2.8-1.2 1.2-4.1h1.7v4.5h5.6v2.3h-5.6v11.3c0 1.2 0.3 2.1 0.8 2.7s1.4 0.9 2.4 0.9z"/>
  <path id="XMLID_26_" d="m170.9 45.9c-2.8 0-5.1-0.9-6.7-2.6s-2.5-4.1-2.5-7.2c0-3.1 0.8-5.6 2.3-7.4s3.6-2.7 6.2-2.7c2.4 0 4.3 0.8 5.7 2.4s2.1 3.7 2.1 6.3v1.8h-13.3c0.1 2.3 0.6 4 1.7 5.2s2.6 1.8 4.6 1.8c2.1 0 4.1-0.4 6.2-1.3v2.6c-1 0.4-2 0.8-2.9 1s-2.1 0.1-3.4 0.1zm-0.8-17.5c-1.5 0-2.8 0.5-3.7 1.5s-1.5 2.4-1.6 4.2h10.1c0-1.8-0.4-3.2-1.2-4.2s-2.1-1.5-3.6-1.5z"/>
  <path id="XMLID_29_" d="m190.6 25.9c0.9 0 1.6 0.1 2.3 0.2l-0.4 2.7c-0.8-0.2-1.5-0.3-2.1-0.3-1.6 0-2.9 0.6-4 1.9s-1.7 2.8-1.7 4.7v10.3h-2.9v-19.1h2.4l0.3 3.6h0.1c0.7-1.3 1.6-2.2 2.6-2.9s2.1-1.1 3.4-1.1z"/>
  <path id="XMLID_31_" d="m206.4 45.5h-2.9v-27.3h2.9v27.3z"/>
  <path id="XMLID_33_" d="m219.6 45.9c-2.8 0-5.1-0.9-6.7-2.6s-2.5-4.1-2.5-7.2 0.8-5.6 2.3-7.4 3.6-2.7 6.2-2.7c2.4 0 4.3 0.8 5.7 2.4s2.1 3.7 2.1 6.3v1.8h-13.3c0.1 2.3 0.6 4 1.7 5.2s2.6 1.8 4.6 1.8c2.1 0 4.1-0.4 6.2-1.3v2.6c-1 0.4-2 0.8-2.9 1s-2.1 0.1-3.4 0.1zm-0.8-17.5c-1.5 0-2.8 0.5-3.7 1.5s-1.5 2.4-1.6 4.2h10.1c0-1.8-0.4-3.2-1.2-4.2s-2.1-1.5-3.6-1.5z"/>
  <path id="XMLID_36_" d="m253.6 38.7c0 2.3-0.8 4-2.5 5.3s-3.9 1.9-6.7 1.9c-3 0-5.4-0.4-7-1.2v-2.9c1.1 0.4 2.2 0.8 3.4 1.1s2.5 0.4 3.7 0.4c2 0 3.5-0.4 4.5-1.1s1.5-1.8 1.5-3.2c0-0.9-0.2-1.6-0.5-2.2s-1-1.1-1.8-1.6-2.1-1-3.8-1.6c-2.4-0.9-4.1-1.9-5.1-3s-1.5-2.7-1.5-4.6c0-2 0.7-3.6 2.2-4.7s3.5-1.8 5.9-1.8c2.6 0 4.9 0.5 7 1.4l-0.9 2.6c-2.1-0.9-4.2-1.3-6.2-1.3-1.6 0-2.8 0.3-3.7 1s-1.3 1.6-1.3 2.8c0 0.9 0.2 1.6 0.5 2.2s0.9 1.1 1.7 1.6 2 1 3.6 1.6c2.7 1 4.5 2 5.6 3.1s1.4 2.4 1.4 4.2z"/>
  <path id="XMLID_38_" d="m263.5 43.5c0.5 0 1 0 1.5-0.1s0.9-0.2 1.1-0.2v2.2c-0.3 0.2-0.8 0.3-1.4 0.4s-1.2 0.1-1.7 0.1c-3.7 0-5.6-2-5.6-5.9v-11.5h-2.8v-1.4l2.8-1.2 1.2-4.1h1.7v4.5h5.6v2.3h-5.6v11.3c0 1.2 0.3 2.1 0.8 2.7s1.5 0.9 2.4 0.9z"/>
  <path id="XMLID_40_" d="m277.7 25.9c0.9 0 1.6 0.1 2.3 0.2l-0.4 2.7c-0.8-0.2-1.5-0.3-2.1-0.3-1.6 0-2.9 0.6-4 1.9s-1.7 2.8-1.7 4.7v10.3h-2.9v-19.1h2.4l0.3 3.6h0.1c0.7-1.3 1.6-2.2 2.6-2.9s2.2-1.1 3.4-1.1z"/>
  <path id="XMLID_42_" d="m290.6 45.9c-2.8 0-5.1-0.9-6.7-2.6s-2.5-4.1-2.5-7.2c0-3.1 0.8-5.6 2.3-7.4s3.6-2.7 6.2-2.7c2.4 0 4.3 0.8 5.7 2.4s2.1 3.7 2.1 6.3v1.8h-13.3c0.1 2.3 0.6 4 1.7 5.2s2.6 1.8 4.6 1.8c2.1 0 4.1-0.4 6.2-1.3v2.6c-1 0.4-2 0.8-2.9 1s-2.1 0.1-3.4 0.1zm-0.8-17.5c-1.5 0-2.8 0.5-3.7 1.5s-1.5 2.4-1.6 4.2h10.1c0-1.8-0.4-3.2-1.2-4.2s-2.1-1.5-3.6-1.5z"/>
  <path id="XMLID_45_" d="m309.6 45.9c-2.8 0-5.1-0.9-6.7-2.6s-2.5-4.1-2.5-7.2c0-3.1 0.8-5.6 2.3-7.4s3.6-2.7 6.2-2.7c2.4 0 4.3 0.8 5.7 2.4s2.1 3.7 2.1 6.3v1.8h-13.3c0.1 2.3 0.6 4 1.7 5.2s2.6 1.8 4.6 1.8c2.1 0 4.1-0.4 6.2-1.3v2.6c-1 0.4-2 0.8-2.9 1s-2.1 0.1-3.4 0.1zm-0.8-17.5c-1.5 0-2.8 0.5-3.7 1.5s-1.5 2.4-1.6 4.2h10.1c0-1.8-0.4-3.2-1.2-4.2s-2.1-1.5-3.6-1.5z"/>
  <path id="XMLID_48_" d="m326.7 43.5c0.5 0 1 0 1.5-0.1s0.9-0.2 1.1-0.2v2.2c-0.3 0.2-0.8 0.3-1.4 0.4s-1.2 0.1-1.7 0.1c-3.7 0-5.6-2-5.6-5.9v-11.5h-2.6v-1.4l2.8-1.2 1.2-4.1h1.7v4.5h5.6v2.3h-5.6v11.3c0 1.2 0.3 2.1 0.8 2.7s1.3 0.9 2.2 0.9z"/>
 </g>
 <g id="XMLID_5_">
  <rect id="XMLID_15_" class="st2" height="51.7" width="104" y="10.3" x="339.5"/>
  <path id="XMLID_8_" d="m363.3 42.3h-14.5l-7.2 13.6h-5.5l23.4-42.8h5.1l5.4 42.8h-5l-1.7-13.6zm-0.5-4.6l-1-8.8c-0.5-3.5-0.8-6.9-0.8-10.3-0.7 1.7-1.5 3.4-2.4 5.1s-3.3 6.3-7.3 13.9h11.5z" class="st3"/>
  <path id="XMLID_11_" d="m398.1 43.5c0 4.1-1.4 7.3-4.1 9.6s-6.6 3.4-11.6 3.4c-2.1 0-3.9-0.1-5.5-0.4s-3.1-0.8-4.4-1.4v-5c3.2 1.6 6.5 2.5 10 2.5 3.2 0 5.7-0.7 7.5-2.2s2.8-3.5 2.8-6.1c0-1.5-0.5-2.9-1.5-4s-2.9-2.5-5.7-4.1c-2.9-1.7-5-3.3-6.1-5s-1.7-3.6-1.7-5.9c0-3.7 1.3-6.6 3.9-8.9s6-3.4 10.2-3.4c1.9 0 3.7 0.2 5.4 0.6s3.4 1 5.3 1.9l-1.9 4.4c-1.3-0.7-2.7-1.3-4.3-1.8s-3.1-0.6-4.4-0.6c-2.6 0-4.7 0.7-6.3 2s-2.4 3.2-2.4 5.5c0 1.1 0.2 2 0.5 2.7s0.9 1.5 1.6 2.1 2.1 1.6 4.2 2.8c2.9 1.7 4.8 3.1 5.8 4s1.8 2.1 2.3 3.2 0.4 2.5 0.4 4.1z" class="st3"/>
  <path id="XMLID_13_" d="m427.5 16.9c-3.4 0-6.4 0.9-9.1 2.8s-4.8 4.7-6.4 8.3-2.4 7.7-2.4 12c0 3.7 1 6.6 2.9 8.7s4.5 3.3 7.9 3.3c2.7 0 5.9-0.6 9.4-1.7v4.4c-1.7 0.6-3.3 1-4.8 1.3s-3.4 0.4-5.5 0.4c-4.7 0-8.4-1.5-11.1-4.4s-4-6.9-4-11.9c0-5.1 1-9.8 3.1-14.2s4.8-7.7 8.3-10 7.4-3.5 11.8-3.5c3.8 0 7.2 0.8 10.2 2.3l-2 4.1c-2.8-1.2-5.5-1.9-8.3-1.9z" class="st3"/>
 </g>
</svg>
