<?xml version="1.0" encoding="utf-8"?>
<!-- Generator: Adobe Illustrator 19.0.0, SVG Export Plug-In . SVG Version: 6.00 Build 0)  -->
<svg version="1.1" id="Layer_1" xmlns="http://www.w3.org/2000/svg" xmlns:xlink="http://www.w3.org/1999/xlink" x="0px" y="0px"
	 viewBox="0 0 438.2 71.5" style="enable-background:new 0 0 438.2 71.5;" xml:space="preserve">
<style type="text/css">
	.st0{fill:#383838;}
	.st1{fill:#8F8F8F;}
	.st2{fill:none;}
	.st3{fill:#E20000;}
</style>
<path id="XMLID_2_" class="st0" d="M42,2.5c-0.8-2.2-3.5-1.2-3.5-1.2s-3.7,0.5-4.3,0.8c-0.4-0.5-1.2-1.2-2.3-1.7
	c-2-0.8-3.8-0.3-4.3-0.2c-1.7,0.3-5.8,1.4-9.5,4.8c-3.6,3.3-5,7.1-5.5,8.8c-1.3,0.1-5,0.4-8.3,3.2c-2.5,2-3.7,4.4-4.2,5.7
	c0.9-0.2,3-0.6,5.5,0.2c2.4,0.7,3.9,2.2,4.5,2.8c0.1,2.9,0.6,8,3.3,13.7c2.6,5.4,6,8.9,8.2,10.8c-0.4,2.5-0.4,4.6-0.3,6
	c0.1,1.9,0.2,3,0.8,4.3c1,2.1,2.9,3.2,3.8,3.7c-0.2-1.3-0.3-3.4,0.3-5.8c0.5-2,1.4-3.5,2-4.5c0.5-0.7,1.6-2,3.3-3
	c1.7-1,3.3-1.2,4.2-1.3c-0.5-0.6-1.2-1.2-2-1.7c-3.5-2.1-7.3-1.3-8.5-1c-1-2.1-2.4-5.7-2.5-10.3c-0.2-7.5,2.9-12.9,4.3-15
	c0.8,0.8,1.6,1.9,2.5,3.2c1,1.6,1.6,3.1,2,4.3c0.6-1.5,1.4-4,1.3-7.2c0-2.9-0.8-5.2-1.3-6.7c1.8-1.4,3.7-3,5.7-4.8
	c1.3-1.2,2.5-2.5,3.7-3.7C41.2,5.3,42.8,4.6,42,2.5z"/>
<path id="XMLID_1_" class="st1" d="M36.7,31.5c0.5-1.4,2.2-0.7,2.2-0.7s2.3,0.3,2.8,0.5c0.3-0.3,0.7-0.8,1.5-1.1
	c1.3-0.5,2.4-0.2,2.8-0.1c1.1,0.2,3.7,0.8,6.1,3.1c2.7,2.6,3.4,5.6,3.5,6.6c0.9,0.1,3.2,0.4,5.3,2.3c1.4,1.3,2.1,2.7,2.4,3.5
	c-0.8-0.1-1.9-0.3-3.2-0.1c-1.3,0.2-2.2,0.6-2.9,0.9c-0.4,2.2-1.1,5.2-2.7,8.5c-1.5,3.2-3.3,5.6-4.7,7.3c0.3,1.6,0.3,2.9,0.2,3.8
	c-0.1,1.2-0.1,2-0.5,2.8c-1.2,2.3-4.5,2.6-5.2,2.7c0.1-0.2,1.7-3.3,0-6.4c-1.5-2.7-4.3-3.2-4.7-3.2c0.5-0.4,1.2-0.9,2-1.2
	c2.5-1.1,4.8-0.8,5.9-0.5c0.3-2.4,0.5-5.4,0.1-8.9c-0.3-2.8-0.8-5.3-1.3-7.4c-0.5,0.2-1.3,0.7-2,1.5c-0.9,1.1-1.2,2.3-1.3,2.8
	c-0.2-0.3-1.8-1.9-1.6-4.4c0.2-2.4,1.7-3.8,2-4c-1.2-0.9-2.4-1.9-3.6-3.1c-0.8-0.8-1.6-1.6-2.4-2.4C37.2,33.3,36.2,32.8,36.7,31.5z"
	/>
<g id="XMLID_3_">
	<rect id="XMLID_50_" x="70.5" y="18.2" class="st2" width="265.7" height="35.9"/>
	<path id="XMLID_7_" d="M85,22.1c-2.8,0-5.1,0.9-6.7,2.8s-2.5,4.5-2.5,7.7c0,3.4,0.8,6,2.4,7.8s3.8,2.8,6.7,2.8c1.8,0,3.8-0.3,6.1-1
		v2.6c-1.8,0.7-4,1-6.6,1c-3.8,0-6.7-1.1-8.8-3.4s-3.1-5.6-3.1-9.8c0-2.6,0.5-5,1.5-7s2.4-3.5,4.3-4.6s4.1-1.6,6.6-1.6
		c2.7,0,5.1,0.5,7.1,1.5l-1.3,2.6C88.9,22.6,87,22.1,85,22.1z"/>
	<path id="XMLID_17_" d="M108.3,45.5V33.1c0-1.6-0.4-2.7-1.1-3.5s-1.8-1.2-3.4-1.2c-2,0-3.5,0.6-4.4,1.7s-1.4,2.9-1.4,5.4v10.1h-2.9
		V18.2h2.9v8.3c0,1,0,1.8-0.1,2.5h0.2c0.6-0.9,1.4-1.7,2.5-2.2s2.3-0.8,3.6-0.8c2.4,0,4.1,0.6,5.3,1.7s1.8,2.9,1.8,5.3v12.6H108.3z"
		/>
	<path id="XMLID_19_" d="M124.2,45.9c-2.8,0-5.1-0.9-6.7-2.6s-2.5-4.1-2.5-7.2c0-3.1,0.8-5.6,2.3-7.4s3.6-2.7,6.2-2.7
		c2.4,0,4.3,0.8,5.7,2.4s2.1,3.7,2.1,6.3v1.8H118c0.1,2.3,0.6,4,1.7,5.2s2.6,1.8,4.6,1.8c2.1,0,4.1-0.4,6.2-1.3v2.6
		c-1,0.4-2,0.8-2.9,1S125.5,45.9,124.2,45.9z M123.4,28.4c-1.5,0-2.8,0.5-3.7,1.5s-1.5,2.4-1.6,4.2h10.1c0-1.8-0.4-3.2-1.2-4.2
		S125,28.4,123.4,28.4z"/>
	<path id="XMLID_22_" d="M147.6,40.3c0,1.8-0.7,3.2-2,4.1s-3.2,1.5-5.6,1.5c-2.6,0-4.5-0.4-6-1.2V42c0.9,0.5,1.9,0.8,3,1.1
		s2.1,0.4,3.1,0.4c1.5,0,2.7-0.2,3.5-0.7s1.2-1.2,1.2-2.2c0-0.8-0.3-1.4-1-1.9s-1.9-1.2-3.8-1.9c-1.8-0.7-3.1-1.3-3.8-1.7
		s-1.3-1.1-1.7-1.7s-0.6-1.4-0.6-2.3c0-1.6,0.6-2.8,1.9-3.7s3-1.4,5.3-1.4c2.1,0,4.1,0.4,6.1,1.3l-1,2.4c-1.9-0.8-3.7-1.2-5.3-1.2
		c-1.4,0-2.4,0.2-3.1,0.7s-1.1,1-1.1,1.8c0,0.5,0.1,1,0.4,1.3s0.7,0.7,1.3,1s1.7,0.8,3.4,1.4c2.3,0.8,3.8,1.7,4.6,2.5
		S147.6,39,147.6,40.3z"/>
	<path id="XMLID_24_" d="M157.4,43.5c0.5,0,1,0,1.5-0.1s0.9-0.2,1.1-0.2v2.2c-0.3,0.2-0.8,0.3-1.4,0.4s-1.2,0.1-1.7,0.1
		c-3.7,0-5.6-2-5.6-5.9V28.5h-2.8v-1.4l2.8-1.2l1.2-4.1h1.7v4.5h5.6v2.3h-5.6v11.3c0,1.2,0.3,2.1,0.8,2.7S156.4,43.5,157.4,43.5z"/>
	<path id="XMLID_26_" d="M170.9,45.9c-2.8,0-5.1-0.9-6.7-2.6s-2.5-4.1-2.5-7.2c0-3.1,0.8-5.6,2.3-7.4s3.6-2.7,6.2-2.7
		c2.4,0,4.3,0.8,5.7,2.4s2.1,3.7,2.1,6.3v1.8h-13.3c0.1,2.3,0.6,4,1.7,5.2s2.6,1.8,4.6,1.8c2.1,0,4.1-0.4,6.2-1.3v2.6
		c-1,0.4-2,0.8-2.9,1S172.2,45.9,170.9,45.9z M170.1,28.4c-1.5,0-2.8,0.5-3.7,1.5s-1.5,2.4-1.6,4.2h10.1c0-1.8-0.4-3.2-1.2-4.2
		S171.6,28.4,170.1,28.4z"/>
	<path id="XMLID_29_" d="M190.6,25.9c0.9,0,1.6,0.1,2.3,0.2l-0.4,2.7c-0.8-0.2-1.5-0.3-2.1-0.3c-1.6,0-2.9,0.6-4,1.9
		s-1.7,2.8-1.7,4.7v10.3h-2.9V26.3h2.4l0.3,3.6h0.1c0.7-1.3,1.6-2.2,2.6-2.9S189.3,25.9,190.6,25.9z"/>
	<path id="XMLID_31_" d="M206.4,45.5h-2.9V18.2h2.9V45.5z"/>
	<path id="XMLID_33_" d="M219.6,45.9c-2.8,0-5.1-0.9-6.7-2.6c-1.6-1.7-2.5-4.1-2.5-7.2c0-3.1,0.8-5.6,2.3-7.4s3.6-2.7,6.2-2.7
		c2.4,0,4.3,0.8,5.7,2.4s2.1,3.7,2.1,6.3v1.8h-13.3c0.1,2.3,0.6,4,1.7,5.2c1.1,1.2,2.6,1.8,4.6,1.8c2.1,0,4.1-0.4,6.2-1.3v2.6
		c-1,0.4-2,0.8-2.9,1S220.9,45.9,219.6,45.9z M218.8,28.4c-1.5,0-2.8,0.5-3.7,1.5c-0.9,1-1.5,2.4-1.6,4.2h10.1
		c0-1.8-0.4-3.2-1.2-4.2S220.3,28.4,218.8,28.4z"/>
	<path id="XMLID_36_" d="M253.6,38.7c0,2.3-0.8,4-2.5,5.3s-3.9,1.9-6.7,1.9c-3,0-5.4-0.4-7-1.2v-2.9c1.1,0.4,2.2,0.8,3.4,1.1
		s2.5,0.4,3.7,0.4c2,0,3.5-0.4,4.5-1.1s1.5-1.8,1.5-3.2c0-0.9-0.2-1.6-0.5-2.2s-1-1.1-1.8-1.6s-2.1-1-3.8-1.6
		c-2.4-0.9-4.1-1.9-5.1-3s-1.5-2.7-1.5-4.6c0-2,0.7-3.6,2.2-4.7s3.5-1.8,5.9-1.8c2.6,0,4.9,0.5,7,1.4l-0.9,2.6
		c-2.1-0.9-4.2-1.3-6.2-1.3c-1.6,0-2.8,0.3-3.7,1s-1.3,1.6-1.3,2.8c0,0.9,0.2,1.6,0.5,2.2s0.9,1.1,1.7,1.6s2,1,3.6,1.6
		c2.7,1,4.5,2,5.6,3.1S253.6,36.9,253.6,38.7z"/>
	<path id="XMLID_38_" d="M263.5,43.5c0.5,0,1,0,1.5-0.1s0.9-0.2,1.1-0.2v2.2c-0.3,0.2-0.8,0.3-1.4,0.4s-1.2,0.1-1.7,0.1
		c-3.7,0-5.6-2-5.6-5.9V28.5h-2.8v-1.4l2.8-1.2l1.2-4.1h1.7v4.5h5.6v2.3h-5.6v11.3c0,1.2,0.3,2.1,0.8,2.7S262.6,43.5,263.5,43.5z"/>
	<path id="XMLID_40_" d="M277.7,25.9c0.9,0,1.6,0.1,2.3,0.2l-0.4,2.7c-0.8-0.2-1.5-0.3-2.1-0.3c-1.6,0-2.9,0.6-4,1.9
		s-1.7,2.8-1.7,4.7v10.3h-2.9V26.3h2.4l0.3,3.6h0.1c0.7-1.3,1.6-2.2,2.6-2.9S276.5,25.9,277.7,25.9z"/>
	<path id="XMLID_42_" d="M290.6,45.9c-2.8,0-5.1-0.9-6.7-2.6s-2.5-4.1-2.5-7.2c0-3.1,0.8-5.6,2.3-7.4s3.6-2.7,6.2-2.7
		c2.4,0,4.3,0.8,5.7,2.4s2.1,3.7,2.1,6.3v1.8h-13.3c0.1,2.3,0.6,4,1.7,5.2s2.6,1.8,4.6,1.8c2.1,0,4.1-0.4,6.2-1.3v2.6
		c-1,0.4-2,0.8-2.9,1S291.9,45.9,290.6,45.9z M289.8,28.4c-1.5,0-2.8,0.5-3.7,1.5s-1.5,2.4-1.6,4.2h10.1c0-1.8-0.4-3.2-1.2-4.2
		S291.3,28.4,289.8,28.4z"/>
	<path id="XMLID_45_" d="M309.6,45.9c-2.8,0-5.1-0.9-6.7-2.6s-2.5-4.1-2.5-7.2c0-3.1,0.8-5.6,2.3-7.4s3.6-2.7,6.2-2.7
		c2.4,0,4.3,0.8,5.7,2.4s2.1,3.7,2.1,6.3v1.8h-13.3c0.1,2.3,0.6,4,1.7,5.2s2.6,1.8,4.6,1.8c2.1,0,4.1-0.4,6.2-1.3v2.6
		c-1,0.4-2,0.8-2.9,1S310.9,45.9,309.6,45.9z M308.8,28.4c-1.5,0-2.8,0.5-3.7,1.5s-1.5,2.4-1.6,4.2h10.1c0-1.8-0.4-3.2-1.2-4.2
		S310.3,28.4,308.8,28.4z"/>
	<path id="XMLID_48_" d="M326.7,43.5c0.5,0,1,0,1.5-0.1s0.9-0.2,1.1-0.2v2.2c-0.3,0.2-0.8,0.3-1.4,0.4s-1.2,0.1-1.7,0.1
		c-3.7,0-5.6-2-5.6-5.9V28.5H318v-1.4l2.8-1.2l1.2-4.1h1.7v4.5h5.6v2.3h-5.6v11.3c0,1.2,0.3,2.1,0.8,2.7S325.8,43.5,326.7,43.5z"/>
</g>
<g id="XMLID_5_">
	<rect id="XMLID_15_" x="339.5" y="10.3" class="st2" width="104" height="51.7"/>
	<path id="XMLID_8_" class="st3" d="M363.3,42.3h-14.5l-7.2,13.6h-5.5l23.4-42.8h5.1l5.4,42.8h-5L363.3,42.3z M362.8,37.7l-1-8.8
		c-0.5-3.5-0.8-6.9-0.8-10.3c-0.7,1.7-1.5,3.4-2.4,5.1s-3.3,6.3-7.3,13.9H362.8z"/>
	<path id="XMLID_11_" class="st3" d="M398.1,43.5c0,4.1-1.4,7.3-4.1,9.6s-6.6,3.4-11.6,3.4c-2.1,0-3.9-0.1-5.5-0.4s-3.1-0.8-4.4-1.4
		v-5c3.2,1.6,6.5,2.5,10,2.5c3.2,0,5.7-0.7,7.5-2.2s2.8-3.5,2.8-6.1c0-1.5-0.5-2.9-1.5-4s-2.9-2.5-5.7-4.1c-2.9-1.7-5-3.3-6.1-5
		s-1.7-3.6-1.7-5.9c0-3.7,1.3-6.6,3.9-8.9s6-3.4,10.2-3.4c1.9,0,3.7,0.2,5.4,0.6s3.4,1,5.3,1.9l-1.9,4.4c-1.3-0.7-2.7-1.3-4.3-1.8
		s-3.1-0.6-4.4-0.6c-2.6,0-4.7,0.7-6.3,2s-2.4,3.2-2.4,5.5c0,1.1,0.2,2,0.5,2.7s0.9,1.5,1.6,2.1s2.1,1.6,4.2,2.8
		c2.9,1.7,4.8,3.1,5.8,4s1.8,2.1,2.3,3.2S398.1,41.9,398.1,43.5z"/>
	<path id="XMLID_13_" class="st3" d="M427.5,16.9c-3.4,0-6.4,0.9-9.1,2.8s-4.8,4.7-6.4,8.3s-2.4,7.7-2.4,12c0,3.7,1,6.6,2.9,8.7
		s4.5,3.3,7.9,3.3c2.7,0,5.9-0.6,9.4-1.7v4.4c-1.7,0.6-3.3,1-4.8,1.3s-3.4,0.4-5.5,0.4c-4.7,0-8.4-1.5-11.1-4.4s-4-6.9-4-11.9
		c0-5.1,1-9.8,3.1-14.2s4.8-7.7,8.3-10s7.4-3.5,11.8-3.5c3.8,0,7.2,0.8,10.2,2.3l-2,4.1C433,17.6,430.3,16.9,427.5,16.9z"/>
</g>
<g id="XMLID_4_">
</g>
<g id="XMLID_6_">
</g>
<g id="XMLID_51_">
</g>
<g id="XMLID_52_">
</g>
<g id="XMLID_53_">
</g>
<g id="XMLID_54_">
</g>
<g id="XMLID_55_">
</g>
<g id="XMLID_56_">
</g>
<g id="XMLID_57_">
</g>
<g id="XMLID_58_">
</g>
<g id="XMLID_59_">
</g>
<g id="XMLID_60_">
</g>
<g id="XMLID_61_">
</g>
<g id="XMLID_62_">
</g>
<g id="XMLID_63_">
</g>
</svg>
