<?xml version="1.0" encoding="UTF-8" standalone="no"?>
<svg
   xmlns:dc="http://purl.org/dc/elements/1.1/"
   xmlns:cc="http://creativecommons.org/ns#"
   xmlns:rdf="http://www.w3.org/1999/02/22-rdf-syntax-ns#"
   xmlns:svg="http://www.w3.org/2000/svg"
   xmlns="http://www.w3.org/2000/svg"
   viewBox="0 0 648.65948 106.072"
   height="106.072"
   width="648.65948"
   xml:space="preserve"
   id="svg2"
   version="1.1"><metadata
     id="metadata8"><rdf:RDF><cc:Work
         rdf:about=""><dc:format>image/svg+xml</dc:format><dc:type
           rdf:resource="http://purl.org/dc/dcmitype/StillImage" /><dc:title></dc:title></cc:Work></rdf:RDF></metadata><defs
     id="defs6"><clipPath
       id="clipPath26"
       clipPathUnits="userSpaceOnUse"><path
         id="path24"
         d="M 0,333.5 H 777 V 0 H 0 Z" /></clipPath></defs><g
     transform="matrix(1.3333333,0,0,-1.3333333,-205.99132,278.66666)"
     id="g10"><g
       id="g4554"><g
         id="text18"
         style="font-variant:normal;font-weight:normal;font-stretch:normal;font-size:42px;font-family:'Open Sans';-inkscape-font-specification:OpenSans;writing-mode:lr-tb;fill:#000000;fill-opacity:1;fill-rule:nonzero;stroke:none"
         transform="scale(1,-1)"
         aria-label="Services to Clubs"><path
           id="path868"
           d="m 259.80762,-137.83369 q 0,3.958 -2.8711,6.17285 -2.87109,2.21484 -7.79297,2.21484 -5.33203,0 -8.20312,-1.37402 v -3.36328 q 1.8457,0.77929 4.01953,1.23046 2.17383,0.45118 4.30664,0.45118 3.48633,0 5.25,-1.3125 1.76367,-1.33301 1.76367,-3.69141 0,-1.55859 -0.63574,-2.54297 -0.61523,-1.00488 -2.0918,-1.8457 -1.45605,-0.84082 -4.45019,-1.90723 -4.18359,-1.49707 -5.98828,-3.54785 -1.78418,-2.05078 -1.78418,-5.35254 0,-3.46582 2.60449,-5.5166 2.60449,-2.05078 6.89063,-2.05078 4.4707,0 8.22363,1.64062 l -1.08692,3.03516 q -3.71191,-1.55859 -7.21875,-1.55859 -2.76855,0 -4.32714,1.18945 -1.5586,1.18945 -1.5586,3.30176 0,1.55859 0.57422,2.56347 0.57422,0.98438 1.92773,1.8252 1.37403,0.82031 4.1836,1.82519 4.7168,1.68164 6.48047,3.60938 1.78418,1.92773 1.78418,5.00391 z" /><path
           id="path870"
           d="m 273.58508,-129.446 q -4.9834,0 -7.875,-3.03516 -2.87109,-3.03515 -2.87109,-8.42871 0,-5.43457 2.66601,-8.63379 2.68653,-3.19921 7.19825,-3.19921 4.22461,0 6.68554,2.78906 2.46094,2.76855 2.46094,7.32129 v 2.15332 h -15.4834 q 0.10254,3.95801 1.98926,6.00879 1.90723,2.05078 5.35254,2.05078 3.62988,0 7.17773,-1.51758 v 3.03516 q -1.80468,0.77929 -3.4248,1.10742 -1.59961,0.34863 -3.87598,0.34863 z m -0.92285,-20.44629 q -2.70703,0 -4.32715,1.76367 -1.59961,1.76368 -1.88672,4.88086 h 11.75098 q 0,-3.21972 -1.43555,-4.92187 -1.43554,-1.72266 -4.10156,-1.72266 z" /><path
           id="path872"
           d="m 296.56189,-152.74287 q 1.49707,0 2.68652,0.24609 l -0.47168,3.1582 q -1.39453,-0.30761 -2.46093,-0.30761 -2.72754,0 -4.67579,2.21484 -1.92773,2.21484 -1.92773,5.5166 v 12.05859 h -3.4043 v -22.47656 h 2.80957 l 0.38965,4.16309 h 0.16406 q 1.25098,-2.19434 3.01465,-3.38379 1.76367,-1.18945 3.87598,-1.18945 z" /><path
           id="path874"
           d="m 307.02185,-129.85616 -8.53125,-22.47656 h 3.65039 l 4.83984,13.33008 q 1.64063,4.67578 1.92774,6.07031 h 0.16406 q 0.22559,-1.08691 1.41504,-4.49121 1.20996,-3.4248 5.39356,-14.90918 h 3.65039 l -8.53125,22.47656 z" /><path
           id="path876"
           d="m 325.20227,-129.85616 h -3.4043 v -22.47656 h 3.4043 z m -3.69141,-28.56738 q 0,-1.16894 0.57422,-1.70215 0.57422,-0.55371 1.43555,-0.55371 0.82031,0 1.41504,0.55371 0.59473,0.55371 0.59473,1.70215 0,1.14844 -0.59473,1.72266 -0.59473,0.55371 -1.41504,0.55371 -0.86133,0 -1.43555,-0.55371 -0.57422,-0.57422 -0.57422,-1.72266 z" /><path
           id="path878"
           d="m 340.06241,-129.446 q -4.88086,0 -7.56738,-2.99414 -2.66602,-3.01465 -2.66602,-8.51074 0,-5.63965 2.70703,-8.71582 2.72754,-3.07617 7.75195,-3.07617 1.62012,0 3.24024,0.34863 1.62012,0.34863 2.54297,0.82031 l -1.0459,2.8916 q -1.12793,-0.45117 -2.46094,-0.73828 -1.33301,-0.30762 -2.3584,-0.30762 -6.84961,0 -6.84961,8.73633 0,4.14258 1.66114,6.35742 1.68164,2.21485 4.96289,2.21485 2.80957,0 5.76269,-1.20996 v 3.01465 q -2.25586,1.16894 -5.68066,1.16894 z" /><path
           id="path880"
           d="m 359.22308,-129.446 q -4.98339,0 -7.875,-3.03516 -2.87109,-3.03515 -2.87109,-8.42871 0,-5.43457 2.66602,-8.63379 2.68652,-3.19921 7.19824,-3.19921 4.22461,0 6.68554,2.78906 2.46094,2.76855 2.46094,7.32129 v 2.15332 h -15.4834 q 0.10254,3.95801 1.98926,6.00879 1.90723,2.05078 5.35254,2.05078 3.62988,0 7.17773,-1.51758 v 3.03516 q -1.80468,0.77929 -3.4248,1.10742 -1.59961,0.34863 -3.87598,0.34863 z m -0.92285,-20.44629 q -2.70703,0 -4.32715,1.76367 -1.59961,1.76368 -1.88672,4.88086 h 11.75098 q 0,-3.21972 -1.43555,-4.92187 -1.43554,-1.72266 -4.10156,-1.72266 z" /><path
           id="path882"
           d="m 386.44501,-135.98799 q 0,3.13769 -2.33789,4.83984 -2.33789,1.70215 -6.5625,1.70215 -4.47071,0 -6.97266,-1.41504 v -3.1582 q 1.62012,0.82031 3.46582,1.29199 1.86621,0.47168 3.58887,0.47168 2.66601,0 4.10156,-0.84082 1.43555,-0.86133 1.43555,-2.60449 0,-1.3125 -1.14844,-2.23535 -1.12793,-0.94336 -4.42969,-2.21485 -3.13769,-1.16894 -4.4707,-2.03027 -1.3125,-0.88184 -1.96875,-1.98926 -0.63574,-1.10742 -0.63574,-2.64551 0,-2.74804 2.23535,-4.32714 2.23535,-1.59961 6.13183,-1.59961 3.62989,0 7.09571,1.47656 l -1.20996,2.76855 q -3.38379,-1.39453 -6.13184,-1.39453 -2.41992,0 -3.65039,0.75879 -1.23047,0.75879 -1.23047,2.0918 0,0.90234 0.45117,1.53808 0.47168,0.63575 1.49707,1.20996 1.02539,0.57422 3.9375,1.66114 3.99903,1.45605 5.39356,2.93261 1.41504,1.47657 1.41504,3.71192 z" /><path
           id="path884"
           d="m 407.47174,-132.25557 q 0.90234,0 1.74316,-0.12305 0.84083,-0.14355 1.33301,-0.28711 v 2.6045 q -0.55371,0.2666 -1.64062,0.43066 -1.06641,0.18457 -1.92774,0.18457 -6.52148,0 -6.52148,-6.87012 v -13.37109 h -3.21973 v -1.64063 l 3.21973,-1.41503 1.43555,-4.79883 h 1.96875 v 5.20898 h 6.52148 v 2.64551 h -6.52148 v 13.22754 q 0,2.03027 0.96386,3.11719 0.96387,1.08691 2.64551,1.08691 z" /><path
           id="path886"
           d="m 433.09436,-141.11494 q 0,5.49609 -2.76855,8.59277 -2.76856,3.07617 -7.64942,3.07617 -3.01465,0 -5.35254,-1.41504 -2.33789,-1.41504 -3.60937,-4.06055 -1.27149,-2.6455 -1.27149,-6.19335 0,-5.4961 2.74805,-8.55176 2.74805,-3.07617 7.62891,-3.07617 4.71679,0 7.48535,3.13769 2.78906,3.1377 2.78906,8.49024 z m -17.12402,0 q 0,4.30664 1.72265,6.5625 1.72266,2.25585 5.06543,2.25585 3.34278,0 5.06543,-2.23535 1.74317,-2.25586 1.74317,-6.583 0,-4.28614 -1.74317,-6.50098 -1.72265,-2.23535 -5.10644,-2.23535 -3.34278,0 -5.04492,2.19433 -1.70215,2.19434 -1.70215,6.542 z" /><path
           id="path888"
           d="m 460.64456,-157.15205 q -4.94238,0 -7.81347,3.30175 -2.85059,3.28125 -2.85059,9.00293 0,5.88575 2.74805,9.10547 2.76855,3.19922 7.875,3.19922 3.13769,0 7.15722,-1.12793 v 3.05567 q -3.11718,1.16894 -7.69043,1.16894 -6.62402,0 -10.2334,-4.01953 -3.58886,-4.01953 -3.58886,-11.42285 0,-4.63477 1.72265,-8.1211 1.74317,-3.48632 5.00391,-5.37304 3.28125,-1.88672 7.71094,-1.88672 4.71679,0 8.24414,1.72265 l -1.47656,2.99415 q -3.4043,-1.59961 -6.8086,-1.59961 z" /><path
           id="path890"
           d="m 475.85626,-129.85616 h -3.40429 v -31.91015 h 3.40429 z" /><path
           id="path892"
           d="m 484.9332,-152.33272 v 14.58106 q 0,2.74804 1.25097,4.10156 1.25098,1.35351 3.917,1.35351 3.52734,0 5.14746,-1.92773 1.64062,-1.92773 1.64062,-6.2959 v -11.8125 h 3.4043 v 22.47656 h -2.80957 l -0.49219,-3.01464 h -0.18457 q -1.0459,1.66113 -2.91211,2.54296 -1.8457,0.88184 -4.22461,0.88184 -4.10156,0 -6.15234,-1.94824 -2.03028,-1.94824 -2.03028,-6.23438 v -14.7041 z" /><path
           id="path894"
           d="m 516.63696,-152.70186 q 4.42969,0 6.87012,3.03516 2.46094,3.01465 2.46094,8.55176 0,5.5371 -2.48145,8.61328 -2.46094,3.05566 -6.84961,3.05566 -2.19433,0 -4.01953,-0.7998 -1.80469,-0.82032 -3.03515,-2.50196 h -0.2461 l -0.71777,2.8916 h -2.44043 v -31.91015 h 3.4043 v 7.75195 q 0,2.60449 -0.16407,4.67578 h 0.16407 q 2.3789,-3.36328 7.05468,-3.36328 z m -0.49218,2.85059 q -3.48633,0 -5.02442,2.00976 -1.53808,1.98926 -1.53808,6.72657 0,4.7373 1.5791,6.78808 1.5791,2.03027 5.06543,2.03027 3.13769,0 4.67578,-2.27636 1.53808,-2.29688 1.53808,-6.58301 0,-4.38867 -1.53808,-6.54199 -1.53809,-2.15332 -4.75781,-2.15332 z" /><path
           id="path896"
           d="m 545.07898,-135.98799 q 0,3.13769 -2.33789,4.83984 -2.33789,1.70215 -6.5625,1.70215 -4.4707,0 -6.97266,-1.41504 v -3.1582 q 1.62012,0.82031 3.46582,1.29199 1.86621,0.47168 3.58887,0.47168 2.66602,0 4.10156,-0.84082 1.43555,-0.86133 1.43555,-2.60449 0,-1.3125 -1.14844,-2.23535 -1.12793,-0.94336 -4.42969,-2.21485 -3.13769,-1.16894 -4.4707,-2.03027 -1.3125,-0.88184 -1.96875,-1.98926 -0.63574,-1.10742 -0.63574,-2.64551 0,-2.74804 2.23535,-4.32714 2.23535,-1.59961 6.13184,-1.59961 3.62988,0 7.0957,1.47656 l -1.20996,2.76855 q -3.38379,-1.39453 -6.13184,-1.39453 -2.41992,0 -3.65039,0.75879 -1.23047,0.75879 -1.23047,2.0918 0,0.90234 0.45118,1.53808 0.47168,0.63575 1.49707,1.20996 1.02539,0.57422 3.9375,1.66114 3.99902,1.45605 5.39355,2.93261 1.41504,1.47657 1.41504,3.71192 z" /></g><g
         id="g20"><g
           id="g22"
           clip-path="url(#clipPath26)"><g
             id="g4540"><path
               d="m 154.5,209 h 65 v -40.812 c 0,0 0.845,-13.165 -7.494,-23.737 -11.318,-14.35 -24.784,-15.005 -24.784,-15.005 0,0 -13.915,0.655 -24.934,15.005 -8.31,10.823 -7.788,23.737 -7.788,23.737 z"
               style="fill:#005fbd;fill-opacity:1;fill-rule:nonzero;stroke:none"
               id="path30" /><g
               transform="translate(195.1369,200.4859)"
               id="g32"><path
                 id="path34"
                 style="fill:#ffffff;fill-opacity:1;fill-rule:nonzero;stroke:none"
                 d="m 0,0 c -0.674,1.753 -2.832,0.944 -2.832,0.944 0,0 -2.965,-0.402 -3.507,-0.674 -0.328,0.37 -0.943,0.962 -1.889,1.349 -1.597,0.653 -3.044,0.276 -3.506,0.134 -1.398,-0.277 -4.668,-1.122 -7.688,-3.911 -2.93,-2.705 -4.045,-5.78 -4.451,-7.149 -1.055,-0.051 -4.015,-0.336 -6.744,-2.562 -2.019,-1.646 -2.965,-3.582 -3.372,-4.586 0.729,0.178 2.434,0.491 4.451,-0.135 1.931,-0.599 3.13,-1.742 3.641,-2.293 0.078,-2.377 0.517,-6.502 2.698,-11.06 2.086,-4.359 4.855,-7.211 6.609,-8.767 -0.341,-2.02 -0.339,-3.691 -0.27,-4.856 0.092,-1.533 0.157,-2.46 0.675,-3.506 0.842,-1.702 2.317,-2.58 3.102,-2.968 -0.144,1.034 -0.245,2.732 0.27,4.721 0.418,1.618 1.093,2.845 1.618,3.642 0.433,0.6 1.287,1.622 2.698,2.428 1.368,0.781 2.641,1.005 3.372,1.079 -0.418,0.459 -0.95,0.935 -1.619,1.348 -2.808,1.733 -5.935,1.053 -6.879,0.81 -0.823,1.715 -1.935,4.627 -2.023,8.362 -0.142,6.071 2.38,10.478 3.507,12.139 0.62,-0.652 1.323,-1.5 1.989,-2.563 0.817,-1.302 1.327,-2.528 1.653,-3.506 0.474,1.184 1.113,3.215 1.079,5.799 -0.032,2.374 -0.62,4.249 -1.079,5.395 1.471,1.141 3.014,2.439 4.586,3.912 1.072,1.004 2.352,2.327 2.967,2.967 C -0.186,-2.557 0.674,-1.753 0,0" /></g><g
               transform="translate(190.8662,177.0215)"
               id="g36"><path
                 id="path38"
                 style="fill:#ffffff;fill-opacity:1;fill-rule:nonzero;stroke:none"
                 d="m 0,0 c 0.433,1.125 1.817,0.606 1.817,0.606 0,0 1.902,-0.258 2.25,-0.433 0.21,0.238 0.604,0.617 1.211,0.865 1.025,0.42 1.953,0.178 2.25,0.087 0.867,-0.161 3.006,-0.678 4.932,-2.509 2.176,-2.07 2.722,-4.525 2.871,-5.364 0.707,-0.072 2.619,-0.362 4.316,-1.889 1.141,-1.026 1.696,-2.172 1.956,-2.832 -0.611,0.117 -1.531,0.221 -2.631,0.067 -1.016,-0.142 -1.82,-0.453 -2.359,-0.712 -0.305,-1.784 -0.906,-4.194 -2.159,-6.841 -1.218,-2.574 -2.652,-4.525 -3.811,-5.878 0.219,-1.296 0.218,-2.368 0.173,-3.115 -0.056,-0.939 -0.115,-1.622 -0.433,-2.25 -0.936,-1.85 -3.663,-2.13 -4.224,-2.177 0.087,0.16 1.407,2.688 0,5.193 -1.21,2.154 -3.475,2.579 -3.777,2.63 0.414,0.343 0.95,0.711 1.619,1.011 1.998,0.899 3.894,0.621 4.738,0.438 0.238,1.956 0.365,4.398 0.118,7.183 -0.205,2.3 -0.618,4.309 -1.07,5.969 -0.394,-0.187 -1.043,-0.558 -1.628,-1.248 -0.761,-0.898 -0.997,-1.841 -1.079,-2.293 -0.202,0.214 -1.425,1.553 -1.281,3.574 0.137,1.927 1.415,3.054 1.652,3.255 -0.944,0.732 -1.934,1.565 -2.942,2.51 C 1.822,-3.509 1.334,-3.011 0.606,-2.25 -0.123,-1.488 -0.433,-1.125 0,0" /></g></g></g></g><g
         id="text14"
         style="font-variant:normal;font-weight:600;font-stretch:normal;font-size:42px;font-family:'Open Sans Semibold';-inkscape-font-specification:OpenSans-Semibold;writing-mode:lr-tb;fill:#32a0ff;fill-opacity:1;fill-rule:nonzero;stroke:none"
         transform="matrix(1,0,0,-1,238.5,176.7041)"
         aria-label="Chester-le-Street ASC"><path
           id="path827"
           style="font-style:normal;font-variant:normal;font-weight:bold;font-stretch:normal;font-family:'Open Sans';-inkscape-font-specification:'Open Sans Bold';fill:#005fbd;fill-opacity:1"
           d="m 16.508789,-25.12207 q -3.588867,0 -5.557617,2.707031 -1.9687501,2.686523 -1.9687501,7.505859 0,10.0283206 7.5263671,10.0283206 3.158203,0 7.649414,-1.5791015 v 5.3320312 q -3.691406,1.53808595 -8.24414,1.53808595 -6.5419927,0 -10.007813,-3.95800785 -3.4658203,-3.9785156 -3.4658203,-11.4023434 0,-4.675782 1.7021484,-8.182617 1.7021485,-3.527344 4.8808594,-5.393555 3.1992185,-1.886719 7.4853515,-1.886719 4.368164,0 8.777344,2.112305 l -2.050781,5.167969 q -1.681641,-0.799805 -3.38379,-1.394532 -1.702148,-0.594726 -3.342773,-0.594726 z" /><path
           id="path829"
           style="font-style:normal;font-variant:normal;font-weight:bold;font-stretch:normal;font-family:'Open Sans';-inkscape-font-specification:'Open Sans Bold';fill:#005fbd;fill-opacity:1"
           d="M 49.729313,0 H 43.47443 v -13.391602 q 0,-4.96289 -3.691406,-4.96289 -2.625,0 -3.793945,1.78418 -1.168946,1.784179 -1.168946,5.783203 V 0 H 28.56525 v -31.910156 h 6.254883 v 6.500976 q 0,0.758789 -0.143554,3.56836 l -0.143555,1.845703 h 0.328125 q 2.091797,-3.363281 6.644531,-3.363281 4.040039,0 6.131836,2.173828 2.091797,2.173828 2.091797,6.234375 z" /><path
           id="path831"
           style="font-style:normal;font-variant:normal;font-weight:bold;font-stretch:normal;font-family:'Open Sans';-inkscape-font-specification:'Open Sans Bold';fill:#005fbd;fill-opacity:1"
           d="m 63.386368,-18.908203 q -1.989258,0 -3.117188,1.271484 -1.127929,1.250977 -1.291992,3.56836 h 8.777344 q -0.04102,-2.317383 -1.209961,-3.56836 -1.168945,-1.271484 -3.158203,-1.271484 z m 0.881836,19.31835925 q -5.53711,0 -8.654297,-3.05566405 -3.117188,-3.0556641 -3.117188,-8.6542972 0,-5.762695 2.871094,-8.90039 2.891602,-3.158203 7.977539,-3.158203 4.860352,0 7.567383,2.768554 2.707031,2.768555 2.707031,7.649414 v 3.0351566 H 58.833633 q 0.102539,2.6660156 1.579102,4.1630859 1.476562,1.4970703 4.142578,1.4970703 2.071289,0 3.916992,-0.430664 1.845703,-0.4306641 3.855469,-1.3740235 v 4.8398438 Q 70.687149,-0.38964844 68.820938,0 66.954727,0.41015625 64.268204,0.41015625 Z" /><path
           id="path833"
           style="font-style:normal;font-variant:normal;font-weight:bold;font-stretch:normal;font-family:'Open Sans';-inkscape-font-specification:'Open Sans Bold';fill:#005fbd;fill-opacity:1"
           d="m 92.735344,-6.8085937 q 0,3.5273437 -2.460938,5.3730468 -2.440429,1.84570315 -7.321289,1.84570315 -2.501953,0 -4.265625,-0.34863281 -1.763672,-0.328125 -3.301757,-0.984375 V -6.0908203 q 1.743164,0.8203125 3.916992,1.3740234 2.194336,0.553711 3.855468,0.553711 3.404297,0 3.404297,-1.96875 0,-0.7382813 -0.451172,-1.1894532 -0.451171,-0.4716796 -1.558593,-1.0458984 -1.107422,-0.5947266 -2.953125,-1.3740234 -2.645508,-1.1074221 -3.896485,-2.0507811 -1.230468,-0.94336 -1.804687,-2.153321 -0.553711,-1.230468 -0.553711,-3.014648 0,-3.055664 2.358398,-4.716797 2.378907,-1.68164 6.726563,-1.68164 4.142578,0 8.05957,1.804687 l -1.886719,4.511719 q -1.722656,-0.738281 -3.219726,-1.209961 -1.49707,-0.47168 -3.055664,-0.47168 -2.768555,0 -2.768555,1.497071 0,0.84082 0.881836,1.456054 0.902344,0.615235 3.916992,1.825195 2.686524,1.086915 3.9375,2.030274 1.250977,0.943359 1.845703,2.1738281 0.594727,1.2304687 0.594727,2.9326172 z" /><path
           id="path835"
           style="font-style:normal;font-variant:normal;font-weight:bold;font-stretch:normal;font-family:'Open Sans';-inkscape-font-specification:'Open Sans Bold';fill:#005fbd;fill-opacity:1"
           d="m 105.50843,-4.5732422 q 1.64063,0 3.9375,-0.7177734 v 4.65527341 q -2.33789,1.04589844 -5.74219,1.04589844 -3.752927,0 -5.475583,-1.88671875 -1.702148,-1.9072266 -1.702148,-5.7011719 V -18.231445 h -2.994141 v -2.645508 l 3.445312,-2.091797 1.804688,-4.839844 h 3.999022 v 4.88086 h 6.41895 v 4.696289 h -6.41895 v 11.0537106 q 0,1.3330078 0.73828,1.96875 0.75879,0.6357422 1.98926,0.6357422 z" /><path
           id="path837"
           style="font-style:normal;font-variant:normal;font-weight:bold;font-stretch:normal;font-family:'Open Sans';-inkscape-font-specification:'Open Sans Bold';fill:#005fbd;fill-opacity:1"
           d="m 120.50637,-18.908203 q -1.98926,0 -3.11719,1.271484 -1.12793,1.250977 -1.29199,3.56836 h 8.77734 q -0.041,-2.317383 -1.20996,-3.56836 -1.16894,-1.271484 -3.1582,-1.271484 z m 0.88184,19.31835925 q -5.53711,0 -8.6543,-3.05566405 -3.11719,-3.0556641 -3.11719,-8.6542972 0,-5.762695 2.8711,-8.90039 2.8916,-3.158203 7.97753,-3.158203 4.86036,0 7.56739,2.768554 2.70703,2.768555 2.70703,7.649414 v 3.0351566 h -14.78613 q 0.10254,2.6660156 1.5791,4.1630859 1.47656,1.4970703 4.14258,1.4970703 2.07128,0 3.91699,-0.430664 1.8457,-0.4306641 3.85547,-1.3740235 v 4.8398438 Q 127.80715,-0.38964844 125.94094,0 q -1.86621,0.41015625 -4.55273,0.41015625 z" /><path
           id="path839"
           style="font-style:normal;font-variant:normal;font-weight:bold;font-stretch:normal;font-family:'Open Sans';-inkscape-font-specification:'Open Sans Bold';fill:#005fbd;fill-opacity:1"
           d="m 146.65613,-23.358398 q 1.27148,0 2.1123,0.18457 l -0.47168,5.865234 q -0.75879,-0.205078 -1.8457,-0.205078 -2.99414,0 -4.67578,1.538086 -1.66113,1.538086 -1.66113,4.306641 V 0 h -6.25489 v -22.927734 h 4.73731 l 0.92285,3.855468 h 0.30762 q 1.0664,-1.927734 2.87109,-3.096679 1.8252,-1.189453 3.95801,-1.189453 z" /><path
           id="path841"
           style="font-style:normal;font-variant:normal;font-weight:bold;font-stretch:normal;font-family:'Open Sans';-inkscape-font-specification:'Open Sans Bold';fill:#005fbd;fill-opacity:1"
           d="m 148.58698,-8.6953125 v -5.1269535 h 11.01269 v 5.1269535 z" /><path
           id="path843"
           style="font-style:normal;font-variant:normal;font-weight:bold;font-stretch:normal;font-family:'Open Sans';-inkscape-font-specification:'Open Sans Bold';fill:#005fbd;fill-opacity:1"
           d="m 169.05214,0 h -6.25488 v -31.910156 h 6.25488 z" /><path
           id="path845"
           style="font-style:normal;font-variant:normal;font-weight:bold;font-stretch:normal;font-family:'Open Sans';-inkscape-font-specification:'Open Sans Bold';fill:#005fbd;fill-opacity:1"
           d="m 182.66637,-18.908203 q -1.98926,0 -3.11719,1.271484 -1.12793,1.250977 -1.29199,3.56836 h 8.77734 q -0.041,-2.317383 -1.20996,-3.56836 -1.16895,-1.271484 -3.1582,-1.271484 z m 0.88183,19.31835925 q -5.53711,0 -8.65429,-3.05566405 -3.11719,-3.0556641 -3.11719,-8.6542972 0,-5.762695 2.87109,-8.90039 2.8916,-3.158203 7.97754,-3.158203 4.86035,0 7.56738,2.768554 2.70704,2.768555 2.70704,7.649414 v 3.0351566 h -14.78614 q 0.10254,2.6660156 1.5791,4.1630859 1.47657,1.4970703 4.14258,1.4970703 2.07129,0 3.91699,-0.430664 1.84571,-0.4306641 3.85547,-1.3740235 v 4.8398438 Q 189.96715,-0.38964844 188.10094,0 186.23473,0.41015625 183.5482,0.41015625 Z" /><path
           id="path847"
           style="font-style:normal;font-variant:normal;font-weight:bold;font-stretch:normal;font-family:'Open Sans';-inkscape-font-specification:'Open Sans Bold';fill:#005fbd;fill-opacity:1"
           d="m 193.98898,-8.6953125 v -5.1269535 h 11.0127 v 5.1269535 z" /><path
           id="path849"
           style="font-style:normal;font-variant:normal;font-weight:bold;font-stretch:normal;font-family:'Open Sans';-inkscape-font-specification:'Open Sans Bold';fill:#005fbd;fill-opacity:1"
           d="m 226.38968,-8.3261719 q 0,4.0605469 -2.93262,6.3984375 -2.91211,2.33789065 -8.12109,2.33789065 -4.79883,0 -8.49024,-1.80468745 v -5.90625 q 3.03516,1.3535156 5.12696,1.9072265 2.1123,0.553711 3.85547,0.553711 2.09179,0 3.19921,-0.7998047 1.12793,-0.7998047 1.12793,-2.3789063 0,-0.8818359 -0.49218,-1.5585937 -0.49219,-0.6972656 -1.45606,-1.3330076 -0.94336,-0.635742 -3.87597,-2.030274 -2.74805,-1.291992 -4.12208,-2.481445 -1.37402,-1.189453 -2.19433,-2.768555 -0.82031,-1.579101 -0.82031,-3.691406 0,-3.978516 2.68652,-6.254883 2.70703,-2.276367 7.46484,-2.276367 2.33789,0 4.4502,0.553711 2.13281,0.553711 4.45019,1.558594 l -2.05078,4.942383 q -2.39941,-0.984375 -3.97851,-1.374024 -1.5586,-0.389648 -3.07617,-0.389648 -1.80469,0 -2.76856,0.84082 -0.96387,0.84082 -0.96387,2.194336 0,0.84082 0.38965,1.476562 0.38965,0.615235 1.23047,1.209961 0.86133,0.574219 4.04004,2.091797 4.2041,2.009766 5.7627,4.040039 1.55859,2.009766 1.55859,4.9423831 z" /><path
           id="path851"
           style="font-style:normal;font-variant:normal;font-weight:bold;font-stretch:normal;font-family:'Open Sans';-inkscape-font-specification:'Open Sans Bold';fill:#005fbd;fill-opacity:1"
           d="m 239.61443,-4.5732422 q 1.64062,0 3.9375,-0.7177734 v 4.65527341 q -2.33789,1.04589844 -5.74219,1.04589844 -3.75293,0 -5.47559,-1.88671875 Q 230.632,-3.3837891 230.632,-7.1777344 V -18.231445 h -2.99414 v -2.645508 l 3.44532,-2.091797 1.80468,-4.839844 h 3.99903 v 4.88086 h 6.41894 v 4.696289 h -6.41894 v 11.0537106 q 0,1.3330078 0.73828,1.96875 0.75879,0.6357422 1.98926,0.6357422 z" /><path
           id="path853"
           style="font-style:normal;font-variant:normal;font-weight:bold;font-stretch:normal;font-family:'Open Sans';-inkscape-font-specification:'Open Sans Bold';fill:#005fbd;fill-opacity:1"
           d="m 257.91412,-23.358398 q 1.27149,0 2.11231,0.18457 l -0.47168,5.865234 q -0.75879,-0.205078 -1.8457,-0.205078 -2.99415,0 -4.67579,1.538086 -1.66113,1.538086 -1.66113,4.306641 V 0 h -6.25488 v -22.927734 h 4.7373 l 0.92285,3.855468 h 0.30762 q 1.06641,-1.927734 2.8711,-3.096679 1.82519,-1.189453 3.958,-1.189453 z" /><path
           id="path855"
           style="font-style:normal;font-variant:normal;font-weight:bold;font-stretch:normal;font-family:'Open Sans';-inkscape-font-specification:'Open Sans Bold';fill:#005fbd;fill-opacity:1"
           d="m 271.37036,-18.908203 q -1.98926,0 -3.11719,1.271484 -1.12793,1.250977 -1.29199,3.56836 h 8.77735 q -0.041,-2.317383 -1.20997,-3.56836 -1.16894,-1.271484 -3.1582,-1.271484 z m 0.88184,19.31835925 q -5.53711,0 -8.6543,-3.05566405 -3.11719,-3.0556641 -3.11719,-8.6542972 0,-5.762695 2.8711,-8.90039 2.8916,-3.158203 7.97754,-3.158203 4.86035,0 7.56738,2.768554 2.70703,2.768555 2.70703,7.649414 v 3.0351566 h -14.78613 q 0.10254,2.6660156 1.5791,4.1630859 1.47656,1.4970703 4.14258,1.4970703 2.07129,0 3.91699,-0.430664 1.8457,-0.4306641 3.85547,-1.3740235 v 4.8398438 Q 278.67114,-0.38964844 276.80493,0 274.93872,0.41015625 272.2522,0.41015625 Z" /><path
           id="path857"
           style="font-style:normal;font-variant:normal;font-weight:bold;font-stretch:normal;font-family:'Open Sans';-inkscape-font-specification:'Open Sans Bold';fill:#005fbd;fill-opacity:1"
           d="m 294.21835,-18.908203 q -1.98925,0 -3.11718,1.271484 -1.12793,1.250977 -1.292,3.56836 h 8.77735 q -0.041,-2.317383 -1.20996,-3.56836 -1.16895,-1.271484 -3.15821,-1.271484 z m 0.88184,19.31835925 q -5.53711,0 -8.6543,-3.05566405 -3.11719,-3.0556641 -3.11719,-8.6542972 0,-5.762695 2.8711,-8.90039 2.8916,-3.158203 7.97754,-3.158203 4.86035,0 7.56738,2.768554 2.70703,2.768555 2.70703,7.649414 v 3.0351566 h -14.78613 q 0.10254,2.6660156 1.5791,4.1630859 1.47656,1.4970703 4.14258,1.4970703 2.07129,0 3.91699,-0.430664 1.8457,-0.4306641 3.85547,-1.3740235 v 4.8398438 Q 301.51913,-0.38964844 299.65292,0 q -1.86621,0.41015625 -4.55273,0.41015625 z" /><path
           id="path859"
           style="font-style:normal;font-variant:normal;font-weight:bold;font-stretch:normal;font-family:'Open Sans';-inkscape-font-specification:'Open Sans Bold';fill:#005fbd;fill-opacity:1"
           d="m 317.23044,-4.5732422 q 1.64062,0 3.9375,-0.7177734 v 4.65527341 q -2.33789,1.04589844 -5.74219,1.04589844 -3.75293,0 -5.47559,-1.88671875 -1.70214,-1.9072266 -1.70214,-5.7011719 V -18.231445 h -2.99414 v -2.645508 l 3.44531,-2.091797 1.80469,-4.839844 h 3.99902 v 4.88086 h 6.41894 v 4.696289 h -6.41894 v 11.0537106 q 0,1.3330078 0.73828,1.96875 0.75879,0.6357422 1.98926,0.6357422 z" /><path
           id="path861"
           style="font-style:normal;font-variant:normal;font-weight:bold;font-stretch:normal;font-family:'Open Sans';-inkscape-font-specification:'Open Sans Bold';fill:#005fbd;fill-opacity:1"
           d="m 351.15594,0 -2.17382,-7.1367187 H 338.05145 L 335.87762,0 h -6.8496 l 10.58203,-30.105469 h 7.77246 L 358.00555,0 Z m -3.6914,-12.46875 q -3.01465,-9.700195 -3.4043,-10.97168 -0.36914,-1.271484 -0.5332,-2.009765 -0.67676,2.625 -3.87598,12.981445 z" /><path
           id="path863"
           style="font-style:normal;font-variant:normal;font-weight:bold;font-stretch:normal;font-family:'Open Sans';-inkscape-font-specification:'Open Sans Bold';fill:#005fbd;fill-opacity:1"
           d="m 376.91769,-8.3261719 q 0,4.0605469 -2.93261,6.3984375 -2.91211,2.33789065 -8.1211,2.33789065 -4.79882,0 -8.49023,-1.80468745 v -5.90625 q 3.03516,1.3535156 5.12695,1.9072265 2.11231,0.553711 3.85547,0.553711 2.0918,0 3.19922,-0.7998047 1.12793,-0.7998047 1.12793,-2.3789063 0,-0.8818359 -0.49219,-1.5585937 -0.49219,-0.6972656 -1.45605,-1.3330076 -0.94336,-0.635742 -3.87598,-2.030274 -2.74805,-1.291992 -4.12207,-2.481445 -1.37402,-1.189453 -2.19434,-2.768555 -0.82031,-1.579101 -0.82031,-3.691406 0,-3.978516 2.68653,-6.254883 2.70703,-2.276367 7.46484,-2.276367 2.33789,0 4.45019,0.553711 2.13282,0.553711 4.4502,1.558594 l -2.05078,4.942383 q -2.39942,-0.984375 -3.97852,-1.374024 -1.55859,-0.389648 -3.07617,-0.389648 -1.80469,0 -2.76855,0.84082 -0.96387,0.84082 -0.96387,2.194336 0,0.84082 0.38965,1.476562 0.38965,0.615235 1.23047,1.209961 0.86132,0.574219 4.04004,2.091797 4.2041,2.009766 5.76269,4.040039 1.55859,2.009766 1.55859,4.9423831 z" /><path
           id="path865"
           style="font-style:normal;font-variant:normal;font-weight:bold;font-stretch:normal;font-family:'Open Sans';-inkscape-font-specification:'Open Sans Bold';fill:#005fbd;fill-opacity:1"
           d="m 393.71078,-25.12207 q -3.58886,0 -5.55761,2.707031 -1.96875,2.686523 -1.96875,7.505859 0,10.0283206 7.52636,10.0283206 3.15821,0 7.64942,-1.5791015 v 5.3320312 q -3.69141,1.53808595 -8.24414,1.53808595 -6.54199,0 -10.00781,-3.95800785 -3.46582,-3.9785156 -3.46582,-11.4023434 0,-4.675782 1.70214,-8.182617 1.70215,-3.527344 4.88086,-5.393555 3.19922,-1.886719 7.48535,-1.886719 4.36817,0 8.77735,2.112305 l -2.05078,5.167969 q -1.68164,-0.799805 -3.38379,-1.394532 -1.70215,-0.594726 -3.34278,-0.594726 z" /></g></g></g></svg>